<ttFont>
    <TTGlyph name=".notdef" xMin="50" yMin="0" xMax="700" yMax="700">
      <contour>
        <pt x="50" y="700" on="1"/>
        <pt x="700" y="700" on="1"/>
        <pt x="700" y="0" on="1"/>
        <pt x="50" y="0" on="1"/>
      </contour>
      <contour>
        <pt x="570" y="620" on="1"/>
        <pt x="375" y="403" on="1"/>
        <pt x="180" y="620" on="1"/>
        <pt x="130" y="570" on="1"/>
        <pt x="327" y="350" on="1"/>
        <pt x="130" y="130" on="1"/>
        <pt x="180" y="80" on="1"/>
        <pt x="375" y="297" on="1"/>
        <pt x="570" y="80" on="1"/>
        <pt x="620" y="130" on="1"/>
        <pt x="422" y="350" on="1"/>
        <pt x="620" y="570" on="1"/>
      </contour>
      <contour>
        <pt x="129" y="27" on="1"/>
        <pt x="137" y="27" on="1"/>
        <pt x="137" y="39" on="1"/>
        <pt x="141" y="39" on="1"/>
        <pt x="147" y="39" on="0"/>
        <pt x="157" y="44" on="0"/>
        <pt x="157" y="51" on="1"/>
        <pt x="157" y="59" on="0"/>
        <pt x="146" y="63" on="0"/>
        <pt x="140" y="63" on="1"/>
        <pt x="129" y="63" on="1"/>
      </contour>
      <contour>
        <pt x="141" y="57" on="1"/>
        <pt x="149" y="57" on="0"/>
        <pt x="149" y="52" on="1"/>
        <pt x="149" y="47" on="0"/>
        <pt x="144" y="46" on="0"/>
        <pt x="140" y="46" on="1"/>
        <pt x="137" y="46" on="1"/>
        <pt x="137" y="57" on="1"/>
      </contour>
      <contour>
        <pt x="189" y="63" on="1"/>
        <pt x="158" y="63" on="1"/>
        <pt x="158" y="57" on="1"/>
        <pt x="170" y="57" on="1"/>
        <pt x="170" y="27" on="1"/>
        <pt x="177" y="27" on="1"/>
        <pt x="177" y="57" on="1"/>
        <pt x="189" y="57" on="1"/>
      </contour>
      <contour>
        <pt x="222" y="37" on="1"/>
        <pt x="222" y="33" on="0"/>
        <pt x="215" y="33" on="1"/>
        <pt x="208" y="33" on="0"/>
        <pt x="206" y="35" on="1"/>
        <pt x="203" y="28" on="1"/>
        <pt x="205" y="28" on="0"/>
        <pt x="211" y="26" on="0"/>
        <pt x="216" y="26" on="1"/>
        <pt x="230" y="26" on="0"/>
        <pt x="230" y="38" on="1"/>
        <pt x="230" y="47" on="0"/>
        <pt x="212" y="49" on="0"/>
        <pt x="212" y="54" on="1"/>
        <pt x="212" y="57" on="0"/>
        <pt x="218" y="57" on="1"/>
        <pt x="223" y="57" on="0"/>
        <pt x="227" y="55" on="1"/>
        <pt x="229" y="62" on="1"/>
        <pt x="223" y="64" on="0"/>
        <pt x="218" y="64" on="1"/>
        <pt x="204" y="64" on="0"/>
        <pt x="204" y="53" on="1"/>
        <pt x="204" y="48" on="0"/>
        <pt x="210" y="44" on="0"/>
        <pt x="216" y="41" on="0"/>
        <pt x="222" y="39" on="0"/>
      </contour>
      <contour>
        <pt x="237" y="47" on="1"/>
        <pt x="241" y="49" on="0"/>
        <pt x="246" y="49" on="1"/>
        <pt x="251" y="49" on="0"/>
        <pt x="251" y="45" on="1"/>
        <pt x="251" y="43" on="1"/>
        <pt x="250" y="43" on="0"/>
        <pt x="248" y="44" on="0"/>
        <pt x="246" y="44" on="1"/>
        <pt x="234" y="44" on="0"/>
        <pt x="234" y="34" on="1"/>
        <pt x="234" y="26" on="0"/>
        <pt x="242" y="26" on="1"/>
        <pt x="248" y="26" on="0"/>
        <pt x="251" y="31" on="1"/>
        <pt x="253" y="27" on="1"/>
        <pt x="259" y="27" on="1"/>
        <pt x="258" y="29" on="0"/>
        <pt x="258" y="34" on="1"/>
        <pt x="258" y="45" on="1"/>
        <pt x="258" y="55" on="0"/>
        <pt x="248" y="55" on="1"/>
        <pt x="244" y="55" on="0"/>
        <pt x="237" y="53" on="0"/>
        <pt x="235" y="52" on="1"/>
      </contour>
      <contour>
        <pt x="245" y="32" on="1"/>
        <pt x="241" y="32" on="0"/>
        <pt x="241" y="36" on="1"/>
        <pt x="241" y="40" on="0"/>
        <pt x="246" y="40" on="1"/>
        <pt x="248" y="40" on="0"/>
        <pt x="250" y="39" on="0"/>
        <pt x="251" y="39" on="1"/>
        <pt x="251" y="36" on="1"/>
        <pt x="249" y="32" on="0"/>
      </contour>
      <contour>
        <pt x="292" y="27" on="1"/>
        <pt x="292" y="43" on="1"/>
        <pt x="292" y="55" on="0"/>
        <pt x="283" y="55" on="1"/>
        <pt x="276" y="55" on="0"/>
        <pt x="273" y="50" on="1"/>
        <pt x="271" y="54" on="1"/>
        <pt x="266" y="54" on="1"/>
        <pt x="266" y="27" on="1"/>
        <pt x="273" y="27" on="1"/>
        <pt x="273" y="44" on="1"/>
        <pt x="275" y="48" on="0"/>
        <pt x="279" y="48" on="1"/>
        <pt x="284" y="48" on="0"/>
        <pt x="284" y="42" on="1"/>
        <pt x="284" y="27" on="1"/>
      </contour>
      <contour>
        <pt x="297" y="28" on="1"/>
        <pt x="301" y="26" on="0"/>
        <pt x="307" y="26" on="1"/>
        <pt x="318" y="26" on="0"/>
        <pt x="318" y="35" on="1"/>
        <pt x="318" y="40" on="0"/>
        <pt x="313" y="42" on="0"/>
        <pt x="310" y="44" on="1"/>
        <pt x="305" y="46" on="0"/>
        <pt x="305" y="47" on="1"/>
        <pt x="305" y="49" on="0"/>
        <pt x="308" y="49" on="1"/>
        <pt x="312" y="49" on="0"/>
        <pt x="316" y="47" on="1"/>
        <pt x="318" y="53" on="1"/>
        <pt x="314" y="55" on="0"/>
        <pt x="308" y="55" on="1"/>
        <pt x="298" y="55" on="0"/>
        <pt x="298" y="46" on="1"/>
        <pt x="298" y="41" on="0"/>
        <pt x="304" y="38" on="0"/>
        <pt x="306" y="37" on="1"/>
        <pt x="311" y="37" on="0"/>
        <pt x="311" y="34" on="1"/>
        <pt x="311" y="32" on="0"/>
        <pt x="308" y="32" on="1"/>
        <pt x="303" y="32" on="0"/>
        <pt x="299" y="34" on="1"/>
      </contour>
      <contour>
        <pt x="338" y="42" on="1"/>
        <pt x="338" y="21" on="0"/>
        <pt x="358" y="21" on="1"/>
        <pt x="378" y="21" on="0"/>
        <pt x="378" y="42" on="1"/>
        <pt x="378" y="62" on="0"/>
        <pt x="358" y="62" on="1"/>
        <pt x="350" y="62" on="0"/>
        <pt x="338" y="51" on="0"/>
      </contour>
      <contour>
        <pt x="344" y="42" on="1"/>
        <pt x="344" y="57" on="0"/>
        <pt x="358" y="57" on="1"/>
        <pt x="372" y="57" on="0"/>
        <pt x="372" y="42" on="1"/>
        <pt x="372" y="27" on="0"/>
        <pt x="358" y="27" on="1"/>
        <pt x="344" y="27" on="0"/>
      </contour>
      <contour>
        <pt x="364" y="38" on="1"/>
        <pt x="362" y="37" on="0"/>
        <pt x="360" y="37" on="1"/>
        <pt x="356" y="37" on="0"/>
        <pt x="356" y="42" on="1"/>
        <pt x="356" y="46" on="0"/>
        <pt x="360" y="46" on="1"/>
        <pt x="363" y="46" on="1"/>
        <pt x="365" y="50" on="1"/>
        <pt x="361" y="52" on="0"/>
        <pt x="358" y="52" on="1"/>
        <pt x="349" y="52" on="0"/>
        <pt x="349" y="42" on="1"/>
        <pt x="349" y="31" on="0"/>
        <pt x="358" y="31" on="1"/>
        <pt x="363" y="31" on="0"/>
        <pt x="365" y="33" on="1"/>
      </contour>
      <contour>
        <pt x="399" y="27" on="1"/>
        <pt x="407" y="27" on="1"/>
        <pt x="407" y="39" on="1"/>
        <pt x="411" y="39" on="1"/>
        <pt x="417" y="39" on="0"/>
        <pt x="427" y="44" on="0"/>
        <pt x="427" y="51" on="1"/>
        <pt x="427" y="59" on="0"/>
        <pt x="416" y="63" on="0"/>
        <pt x="410" y="63" on="1"/>
        <pt x="399" y="63" on="1"/>
      </contour>
      <contour>
        <pt x="411" y="57" on="1"/>
        <pt x="419" y="57" on="0"/>
        <pt x="419" y="52" on="1"/>
        <pt x="419" y="47" on="0"/>
        <pt x="414" y="46" on="0"/>
        <pt x="410" y="46" on="1"/>
        <pt x="407" y="46" on="1"/>
        <pt x="407" y="57" on="1"/>
      </contour>
      <contour>
        <pt x="432" y="47" on="1"/>
        <pt x="436" y="49" on="0"/>
        <pt x="441" y="49" on="1"/>
        <pt x="446" y="49" on="0"/>
        <pt x="446" y="45" on="1"/>
        <pt x="446" y="43" on="1"/>
        <pt x="445" y="43" on="0"/>
        <pt x="443" y="44" on="0"/>
        <pt x="441" y="44" on="1"/>
        <pt x="428" y="44" on="0"/>
        <pt x="428" y="34" on="1"/>
        <pt x="428" y="26" on="0"/>
        <pt x="437" y="26" on="1"/>
        <pt x="443" y="26" on="0"/>
        <pt x="446" y="31" on="1"/>
        <pt x="448" y="27" on="1"/>
        <pt x="454" y="27" on="1"/>
        <pt x="453" y="29" on="0"/>
        <pt x="453" y="34" on="1"/>
        <pt x="453" y="45" on="1"/>
        <pt x="453" y="55" on="0"/>
        <pt x="443" y="55" on="1"/>
        <pt x="439" y="55" on="0"/>
        <pt x="432" y="53" on="0"/>
        <pt x="430" y="52" on="1"/>
      </contour>
      <contour>
        <pt x="440" y="32" on="1"/>
        <pt x="436" y="32" on="0"/>
        <pt x="436" y="36" on="1"/>
        <pt x="436" y="40" on="0"/>
        <pt x="441" y="40" on="1"/>
        <pt x="443" y="40" on="0"/>
        <pt x="445" y="39" on="0"/>
        <pt x="446" y="39" on="1"/>
        <pt x="446" y="36" on="1"/>
        <pt x="444" y="32" on="0"/>
      </contour>
      <contour>
        <pt x="478" y="54" on="1"/>
        <pt x="477" y="55" on="0"/>
        <pt x="474" y="55" on="1"/>
        <pt x="470" y="55" on="0"/>
        <pt x="468" y="50" on="1"/>
        <pt x="467" y="50" on="1"/>
        <pt x="466" y="54" on="1"/>
        <pt x="460" y="54" on="1"/>
        <pt x="460" y="27" on="1"/>
        <pt x="468" y="27" on="1"/>
        <pt x="468" y="44" on="1"/>
        <pt x="468" y="48" on="0"/>
        <pt x="474" y="48" on="1"/>
        <pt x="475" y="48" on="1"/>
        <pt x="476" y="48" on="0"/>
        <pt x="476" y="47" on="0"/>
        <pt x="477" y="47" on="1"/>
      </contour>
      <contour>
        <pt x="483" y="47" on="1"/>
        <pt x="489" y="49" on="0"/>
        <pt x="492" y="49" on="1"/>
        <pt x="497" y="49" on="0"/>
        <pt x="497" y="45" on="1"/>
        <pt x="497" y="43" on="1"/>
        <pt x="496" y="43" on="0"/>
        <pt x="494" y="44" on="0"/>
        <pt x="492" y="44" on="1"/>
        <pt x="479" y="44" on="0"/>
        <pt x="479" y="34" on="1"/>
        <pt x="479" y="26" on="0"/>
        <pt x="488" y="26" on="1"/>
        <pt x="495" y="26" on="0"/>
        <pt x="497" y="31" on="1"/>
        <pt x="498" y="31" on="1"/>
        <pt x="499" y="27" on="1"/>
        <pt x="505" y="27" on="1"/>
        <pt x="504" y="29" on="0"/>
        <pt x="504" y="34" on="1"/>
        <pt x="504" y="45" on="1"/>
        <pt x="504" y="55" on="0"/>
        <pt x="494" y="55" on="1"/>
        <pt x="490" y="55" on="0"/>
        <pt x="484" y="53" on="0"/>
        <pt x="482" y="52" on="1"/>
      </contour>
      <contour>
        <pt x="491" y="32" on="1"/>
        <pt x="487" y="32" on="0"/>
        <pt x="487" y="36" on="1"/>
        <pt x="487" y="40" on="0"/>
        <pt x="492" y="40" on="1"/>
        <pt x="494" y="40" on="0"/>
        <pt x="496" y="39" on="0"/>
        <pt x="497" y="39" on="1"/>
        <pt x="497" y="36" on="1"/>
        <pt x="495" y="32" on="0"/>
      </contour>
      <contour>
        <pt x="533" y="63" on="1"/>
        <pt x="502" y="63" on="1"/>
        <pt x="502" y="57" on="1"/>
        <pt x="513" y="57" on="1"/>
        <pt x="513" y="27" on="1"/>
        <pt x="521" y="27" on="1"/>
        <pt x="521" y="57" on="1"/>
        <pt x="533" y="57" on="1"/>
      </contour>
      <contour>
        <pt x="541" y="54" on="1"/>
        <pt x="533" y="54" on="1"/>
        <pt x="545" y="27" on="1"/>
        <pt x="544" y="22" on="0"/>
        <pt x="540" y="22" on="1"/>
        <pt x="539" y="23" on="1"/>
        <pt x="537" y="17" on="1"/>
        <pt x="539" y="16" on="0"/>
        <pt x="542" y="16" on="1"/>
        <pt x="547" y="16" on="0"/>
        <pt x="552" y="29" on="1"/>
        <pt x="562" y="54" on="1"/>
        <pt x="554" y="54" on="1"/>
        <pt x="549" y="39" on="1"/>
        <pt x="549" y="34" on="1"/>
        <pt x="548" y="34" on="1"/>
        <pt x="547" y="39" on="1"/>
      </contour>
      <contour>
        <pt x="565" y="16" on="1"/>
        <pt x="573" y="16" on="1"/>
        <pt x="573" y="28" on="1"/>
        <pt x="574" y="26" on="0"/>
        <pt x="578" y="26" on="1"/>
        <pt x="592" y="26" on="0"/>
        <pt x="592" y="41" on="1"/>
        <pt x="592" y="55" on="0"/>
        <pt x="581" y="55" on="1"/>
        <pt x="576" y="55" on="0"/>
        <pt x="572" y="51" on="1"/>
        <pt x="571" y="51" on="1"/>
        <pt x="570" y="54" on="1"/>
        <pt x="565" y="54" on="1"/>
      </contour>
      <contour>
        <pt x="579" y="49" on="1"/>
        <pt x="584" y="49" on="0"/>
        <pt x="584" y="41" on="1"/>
        <pt x="584" y="32" on="0"/>
        <pt x="577" y="32" on="1"/>
        <pt x="575" y="32" on="0"/>
        <pt x="573" y="34" on="1"/>
        <pt x="573" y="44" on="1"/>
        <pt x="573" y="49" on="0"/>
      </contour>
      <contour>
        <pt x="618" y="34" on="1"/>
        <pt x="616" y="32" on="0"/>
        <pt x="611" y="32" on="1"/>
        <pt x="604" y="32" on="0"/>
        <pt x="603" y="38" on="1"/>
        <pt x="622" y="38" on="1"/>
        <pt x="622" y="44" on="1"/>
        <pt x="622" y="50" on="0"/>
        <pt x="615" y="55" on="0"/>
        <pt x="610" y="55" on="1"/>
        <pt x="596" y="55" on="0"/>
        <pt x="596" y="40" on="1"/>
        <pt x="596" y="26" on="0"/>
        <pt x="610" y="26" on="1"/>
        <pt x="613" y="26" on="0"/>
        <pt x="619" y="28" on="0"/>
        <pt x="621" y="29" on="1"/>
      </contour>
      <contour>
        <pt x="610" y="49" on="1"/>
        <pt x="616" y="49" on="0"/>
        <pt x="615" y="43" on="1"/>
        <pt x="604" y="43" on="1"/>
        <pt x="604" y="49" on="0"/>
      </contour>
    </TTGlyph>
    <TTGlyph name="A" xMin="-33" yMin="0" xMax="509" yMax="711">
      <contour>
        <pt x="404" y="194" on="1"/>
        <pt x="160" y="194" on="1"/>
        <pt x="52" y="0" on="1"/>
        <pt x="-33" y="0" on="1"/>
        <pt x="371" y="711" on="1"/>
        <pt x="408" y="711" on="1"/>
        <pt x="509" y="0" on="1"/>
        <pt x="432" y="0" on="1"/>
      </contour>
      <contour>
        <pt x="199" y="266" on="1"/>
        <pt x="396" y="266" on="1"/>
        <pt x="367" y="479" on="1"/>
        <pt x="365" y="585" on="1"/>
        <pt x="364" y="585" on="1"/>
        <pt x="319" y="477" on="1"/>
      </contour>
    </TTGlyph>
    <TTGlyph name="AE" xMin="-62" yMin="0" xMax="845" yMax="700">
      <contour>
        <pt x="459" y="599" on="1"/>
        <pt x="408" y="498" on="1"/>
        <pt x="234" y="269" on="1"/>
        <pt x="391" y="269" on="1"/>
        <pt x="462" y="599" on="1"/>
      </contour>
      <contour>
        <pt x="377" y="197" on="1"/>
        <pt x="178" y="197" on="1"/>
        <pt x="30" y="0" on="1"/>
        <pt x="-62" y="0" on="1"/>
        <pt x="479" y="700" on="1"/>
        <pt x="845" y="700" on="1"/>
        <pt x="830" y="626" on="1"/>
        <pt x="547" y="626" on="1"/>
        <pt x="498" y="397" on="1"/>
        <pt x="757" y="397" on="1"/>
        <pt x="741" y="323" on="1"/>
        <pt x="483" y="323" on="1"/>
        <pt x="429" y="74" on="1"/>
        <pt x="717" y="74" on="1"/>
        <pt x="702" y="0" on="1"/>
        <pt x="415" y="0" on="1"/>
        <pt x="335" y="0" on="1"/>
      </contour>
    </TTGlyph>
    <TTGlyph name="Aacute" xMin="-33" yMin="0" xMax="583" yMax="870">
      <component glyphName="A" x="0" y="0" flags="0x204"/>
      <component glyphName="uniF6C9" x="126" y="0" flags="0x4"/>
    </TTGlyph>
    <TTGlyph name="Abreve" xMin="-33" yMin="0" xMax="584" yMax="871">
      <component glyphName="A" x="0" y="0" flags="0x204"/>
      <component glyphName="uniF406" x="125" y="0" flags="0x4"/>
    </TTGlyph>
    <TTGlyph name="Acircumflex" xMin="-33" yMin="0" xMax="539" yMax="870">
      <component glyphName="A" x="0" y="0" flags="0x204"/>
      <component glyphName="uniF408" x="40" y="0" flags="0x4"/>
    </TTGlyph>
    <TTGlyph name="Adieresis" xMin="-33" yMin="0" xMax="547" yMax="841">
      <component glyphName="A" x="0" y="0" flags="0x204"/>
      <component glyphName="uniF6CB" x="153" y="0" flags="0x4"/>
    </TTGlyph>
    <TTGlyph name="Agrave" xMin="-33" yMin="0" xMax="509" yMax="870">
      <component glyphName="A" x="0" y="0" flags="0x204"/>
      <component glyphName="uniF6CE" x="114" y="0" flags="0x4"/>
    </TTGlyph>
    <TTGlyph name="Amacron" xMin="-33" yMin="0" xMax="560" yMax="843">
      <component glyphName="A" x="0" y="0" flags="0x204"/>
      <component glyphName="uniF6D0" x="96" y="0" flags="0x4"/>
    </TTGlyph>
    <TTGlyph name="Aogonek" xMin="-33" yMin="-195" xMax="509" yMax="711">
      <contour>
        <pt x="404" y="194" on="1"/>
        <pt x="160" y="194" on="1"/>
        <pt x="52" y="0" on="1"/>
        <pt x="-33" y="0" on="1"/>
        <pt x="371" y="711" on="1"/>
        <pt x="408" y="711" on="1"/>
        <pt x="509" y="0" on="1"/>
        <pt x="488" y="0" on="1"/>
        <pt x="473" y="-8" on="0"/>
        <pt x="446" y="-26" on="0"/>
        <pt x="424" y="-49" on="0"/>
        <pt x="412" y="-79" on="0"/>
        <pt x="411" y="-96" on="1"/>
        <pt x="411" y="-113" on="0"/>
        <pt x="430" y="-136" on="0"/>
        <pt x="452" y="-136" on="1"/>
        <pt x="471" y="-136" on="0"/>
        <pt x="494" y="-128" on="1"/>
        <pt x="495" y="-171" on="1"/>
        <pt x="476" y="-184" on="0"/>
        <pt x="428" y="-195" on="0"/>
        <pt x="409" y="-195" on="1"/>
        <pt x="375" y="-195" on="0"/>
        <pt x="329" y="-158" on="0"/>
        <pt x="329" y="-121" on="1"/>
        <pt x="331" y="-80" on="0"/>
        <pt x="389" y="-17" on="0"/>
        <pt x="431" y="0" on="1"/>
      </contour>
      <contour>
        <pt x="199" y="265" on="1"/>
        <pt x="396" y="265" on="1"/>
        <pt x="367" y="480" on="1"/>
        <pt x="366" y="498" on="0"/>
        <pt x="366" y="559" on="0"/>
        <pt x="365" y="585" on="1"/>
        <pt x="364" y="585" on="1"/>
        <pt x="319" y="477" on="1"/>
      </contour>
    </TTGlyph>
    <TTGlyph name="Aring" xMin="-33" yMin="0" xMax="509" yMax="853">
      <contour>
        <pt x="296" y="768" on="1"/>
        <pt x="296" y="805" on="0"/>
        <pt x="346" y="853" on="0"/>
        <pt x="401" y="853" on="1"/>
        <pt x="451" y="853" on="0"/>
        <pt x="507" y="810" on="0"/>
        <pt x="507" y="768" on="1"/>
        <pt x="507" y="733" on="0"/>
        <pt x="459" y="688" on="0"/>
        <pt x="411" y="685" on="1"/>
        <pt x="509" y="0" on="1"/>
        <pt x="432" y="0" on="1"/>
        <pt x="404" y="194" on="1"/>
        <pt x="160" y="194" on="1"/>
        <pt x="52" y="0" on="1"/>
        <pt x="-33" y="0" on="1"/>
        <pt x="359" y="690" on="1"/>
        <pt x="296" y="707" on="0"/>
      </contour>
      <contour>
        <pt x="199" y="265" on="1"/>
        <pt x="396" y="265" on="1"/>
        <pt x="367" y="479" on="1"/>
        <pt x="365" y="585" on="1"/>
        <pt x="364" y="585" on="1"/>
        <pt x="319" y="477" on="1"/>
      </contour>
      <contour>
        <pt x="357" y="768" on="1"/>
        <pt x="357" y="751" on="0"/>
        <pt x="378" y="728" on="0"/>
        <pt x="401" y="728" on="1"/>
        <pt x="423" y="728" on="0"/>
        <pt x="446" y="750" on="0"/>
        <pt x="446" y="768" on="1"/>
        <pt x="446" y="787" on="0"/>
        <pt x="424" y="810" on="0"/>
        <pt x="401" y="810" on="1"/>
        <pt x="379" y="810" on="0"/>
        <pt x="357" y="787" on="0"/>
      </contour>
    </TTGlyph>
    <TTGlyph name="Atilde" xMin="-33" yMin="0" xMax="559" yMax="840">
      <component glyphName="A" x="0" y="0" flags="0x204"/>
      <component glyphName="uniF40D" x="86" y="0" flags="0x4"/>
    </TTGlyph>
    <TTGlyph name="B" xMin="40" yMin="-8" xMax="561" yMax="708">
      <contour>
        <pt x="561" y="551" on="1"/>
        <pt x="561" y="512" on="0"/>
        <pt x="537" y="448" on="0"/>
        <pt x="493" y="400" on="0"/>
        <pt x="434" y="371" on="0"/>
        <pt x="400" y="366" on="1"/>
        <pt x="400" y="362" on="1"/>
        <pt x="422" y="357" on="0"/>
        <pt x="462" y="334" on="0"/>
        <pt x="492" y="300" on="0"/>
        <pt x="510" y="255" on="0"/>
        <pt x="510" y="228" on="1"/>
        <pt x="510" y="158" on="0"/>
        <pt x="455" y="67" on="0"/>
        <pt x="370" y="13" on="0"/>
        <pt x="265" y="-8" on="0"/>
        <pt x="214" y="-8" on="1"/>
        <pt x="198" y="-8" on="0"/>
        <pt x="153" y="-8" on="0"/>
        <pt x="118" y="-6" on="1"/>
        <pt x="58" y="0" on="0"/>
        <pt x="40" y="5" on="1"/>
        <pt x="186" y="694" on="1"/>
        <pt x="224" y="700" on="0"/>
        <pt x="319" y="708" on="0"/>
        <pt x="374" y="708" on="1"/>
        <pt x="411" y="708" on="0"/>
        <pt x="479" y="689" on="0"/>
        <pt x="530" y="651" on="0"/>
        <pt x="561" y="591" on="0"/>
      </contour>
      <contour>
        <pt x="236" y="64" on="1"/>
        <pt x="271" y="64" on="0"/>
        <pt x="339" y="81" on="0"/>
        <pt x="393" y="117" on="0"/>
        <pt x="426" y="175" on="0"/>
        <pt x="426" y="217" on="1"/>
        <pt x="426" y="248" on="0"/>
        <pt x="396" y="289" on="0"/>
        <pt x="348" y="313" on="0"/>
        <pt x="287" y="322" on="0"/>
        <pt x="256" y="322" on="1"/>
        <pt x="186" y="322" on="1"/>
        <pt x="133" y="71" on="1"/>
        <pt x="139" y="69" on="0"/>
        <pt x="164" y="67" on="0"/>
        <pt x="193" y="65" on="0"/>
        <pt x="224" y="64" on="0"/>
      </contour>
      <contour>
        <pt x="253" y="390" on="1"/>
        <pt x="270" y="390" on="0"/>
        <pt x="316" y="391" on="0"/>
        <pt x="332" y="393" on="1"/>
        <pt x="355" y="398" on="0"/>
        <pt x="407" y="416" on="0"/>
        <pt x="450" y="449" on="0"/>
        <pt x="477" y="500" on="0"/>
        <pt x="477" y="538" on="1"/>
        <pt x="477" y="566" on="0"/>
        <pt x="460" y="603" on="0"/>
        <pt x="427" y="626" on="0"/>
        <pt x="381" y="636" on="0"/>
        <pt x="353" y="636" on="1"/>
        <pt x="321" y="636" on="0"/>
        <pt x="265" y="633" on="0"/>
        <pt x="251" y="630" on="1"/>
        <pt x="200" y="390" on="1"/>
      </contour>
    </TTGlyph>
    <TTGlyph name="C" xMin="71" yMin="-12" xMax="601" yMax="712">
      <contour>
        <pt x="480" y="29" on="1"/>
        <pt x="446" y="6" on="0"/>
        <pt x="370" y="-12" on="0"/>
        <pt x="320" y="-12" on="1"/>
        <pt x="261" y="-12" on="0"/>
        <pt x="169" y="31" on="0"/>
        <pt x="105" y="108" on="0"/>
        <pt x="71" y="212" on="0"/>
        <pt x="71" y="274" on="1"/>
        <pt x="71" y="387" on="0"/>
        <pt x="137" y="552" on="0"/>
        <pt x="245" y="660" on="0"/>
        <pt x="380" y="712" on="0"/>
        <pt x="449" y="712" on="1"/>
        <pt x="506" y="712" on="0"/>
        <pt x="578" y="696" on="0"/>
        <pt x="601" y="685" on="1"/>
        <pt x="565" y="612" on="1"/>
        <pt x="545" y="623" on="0"/>
        <pt x="480" y="638" on="0"/>
        <pt x="438" y="638" on="1"/>
        <pt x="382" y="638" on="0"/>
        <pt x="279" y="589" on="0"/>
        <pt x="201" y="497" on="0"/>
        <pt x="155" y="365" on="0"/>
        <pt x="155" y="283" on="1"/>
        <pt x="155" y="235" on="0"/>
        <pt x="180" y="154" on="0"/>
        <pt x="227" y="95" on="0"/>
        <pt x="296" y="62" on="0"/>
        <pt x="340" y="62" on="1"/>
        <pt x="387" y="62" on="0"/>
        <pt x="449" y="83" on="0"/>
        <pt x="474" y="97" on="1"/>
      </contour>
    </TTGlyph>
    <TTGlyph name="Cacute" xMin="71" yMin="-12" xMax="650" yMax="870">
      <component glyphName="C" x="0" y="0" flags="0x204"/>
      <component glyphName="uniF6C9" x="193" y="0" flags="0x4"/>
    </TTGlyph>
    <TTGlyph name="Ccaron" xMin="71" yMin="-12" xMax="629" yMax="870">
      <component glyphName="C" x="0" y="0" flags="0x204"/>
      <component glyphName="uniF6CA" x="113" y="0" flags="0x4"/>
    </TTGlyph>
    <TTGlyph name="Ccedilla" xMin="71" yMin="-209" xMax="601" yMax="712">
      <contour>
        <pt x="480" y="29" on="1"/>
        <pt x="448" y="7" on="0"/>
        <pt x="375" y="-11" on="0"/>
        <pt x="328" y="-12" on="1"/>
        <pt x="304" y="-43" on="1"/>
        <pt x="331" y="-46" on="0"/>
        <pt x="366" y="-81" on="0"/>
        <pt x="366" y="-113" on="1"/>
        <pt x="366" y="-155" on="0"/>
        <pt x="303" y="-209" on="0"/>
        <pt x="240" y="-209" on="1"/>
        <pt x="228" y="-209" on="0"/>
        <pt x="201" y="-206" on="0"/>
        <pt x="187" y="-204" on="1"/>
        <pt x="204" y="-165" on="1"/>
        <pt x="209" y="-166" on="0"/>
        <pt x="220" y="-166" on="0"/>
        <pt x="225" y="-166" on="1"/>
        <pt x="246" y="-166" on="0"/>
        <pt x="274" y="-158" on="0"/>
        <pt x="290" y="-147" on="0"/>
        <pt x="296" y="-133" on="0"/>
        <pt x="296" y="-127" on="1"/>
        <pt x="296" y="-108" on="0"/>
        <pt x="254" y="-90" on="0"/>
        <pt x="219" y="-90" on="1"/>
        <pt x="277" y="-9" on="1"/>
        <pt x="228" y="-2" on="0"/>
        <pt x="152" y="47" on="0"/>
        <pt x="99" y="121" on="0"/>
        <pt x="71" y="218" on="0"/>
        <pt x="71" y="274" on="1"/>
        <pt x="71" y="387" on="0"/>
        <pt x="137" y="552" on="0"/>
        <pt x="245" y="660" on="0"/>
        <pt x="380" y="712" on="0"/>
        <pt x="449" y="712" on="1"/>
        <pt x="506" y="712" on="0"/>
        <pt x="578" y="696" on="0"/>
        <pt x="601" y="685" on="1"/>
        <pt x="565" y="612" on="1"/>
        <pt x="545" y="623" on="0"/>
        <pt x="480" y="638" on="0"/>
        <pt x="438" y="638" on="1"/>
        <pt x="382" y="638" on="0"/>
        <pt x="279" y="589" on="0"/>
        <pt x="201" y="497" on="0"/>
        <pt x="155" y="365" on="0"/>
        <pt x="155" y="283" on="1"/>
        <pt x="155" y="235" on="0"/>
        <pt x="180" y="154" on="0"/>
        <pt x="227" y="95" on="0"/>
        <pt x="296" y="62" on="0"/>
        <pt x="340" y="62" on="1"/>
        <pt x="387" y="62" on="0"/>
        <pt x="449" y="83" on="0"/>
        <pt x="474" y="97" on="1"/>
      </contour>
    </TTGlyph>
    <TTGlyph name="Ccircumflex" xMin="71" yMin="-12" xMax="602" yMax="870">
      <component glyphName="C" x="0" y="0" flags="0x204"/>
      <component glyphName="uniF408" x="103" y="0" flags="0x4"/>
    </TTGlyph>
    <TTGlyph name="D" xMin="40" yMin="-9" xMax="620" yMax="708">
      <contour>
        <pt x="189" y="700" on="1"/>
        <pt x="227" y="705" on="0"/>
        <pt x="323" y="708" on="0"/>
        <pt x="362" y="708" on="1"/>
        <pt x="421" y="708" on="0"/>
        <pt x="517" y="677" on="0"/>
        <pt x="584" y="613" on="0"/>
        <pt x="620" y="515" on="0"/>
        <pt x="620" y="449" on="1"/>
        <pt x="620" y="405" on="0"/>
        <pt x="604" y="302" on="0"/>
        <pt x="567" y="201" on="0"/>
        <pt x="505" y="107" on="0"/>
        <pt x="413" y="34" on="0"/>
        <pt x="289" y="-9" on="0"/>
        <pt x="208" y="-9" on="1"/>
        <pt x="193" y="-9" on="0"/>
        <pt x="144" y="-8" on="0"/>
        <pt x="120" y="-7" on="1"/>
        <pt x="50" y="-3" on="0"/>
        <pt x="40" y="-1" on="1"/>
      </contour>
      <contour>
        <pt x="356" y="634" on="1"/>
        <pt x="344" y="634" on="0"/>
        <pt x="314" y="633" on="0"/>
        <pt x="286" y="632" on="0"/>
        <pt x="260" y="630" on="0"/>
        <pt x="253" y="629" on="1"/>
        <pt x="135" y="69" on="1"/>
        <pt x="139" y="68" on="0"/>
        <pt x="163" y="67" on="0"/>
        <pt x="190" y="66" on="0"/>
        <pt x="215" y="65" on="0"/>
        <pt x="220" y="65" on="1"/>
        <pt x="307" y="65" on="0"/>
        <pt x="427" y="137" on="0"/>
        <pt x="502" y="247" on="0"/>
        <pt x="536" y="379" on="0"/>
        <pt x="536" y="438" on="1"/>
        <pt x="536" y="483" on="0"/>
        <pt x="516" y="555" on="0"/>
        <pt x="473" y="606" on="0"/>
        <pt x="405" y="634" on="0"/>
      </contour>
    </TTGlyph>
    <TTGlyph name="Dcaron" xMin="40" yMin="-9" xMax="620" yMax="870">
      <component glyphName="D" x="0" y="0" flags="0x204"/>
      <component glyphName="uniF6CA" x="41" y="0" flags="0x4"/>
    </TTGlyph>
    <TTGlyph name="Dcroat" xMin="28" yMin="-9" xMax="623" yMax="708">
      <component glyphName="Eth" x="0" y="0" flags="0x204"/>
    </TTGlyph>
    <TTGlyph name="E" xMin="40" yMin="0" xMax="550" yMax="700">
      <contour>
        <pt x="189" y="700" on="1"/>
        <pt x="550" y="700" on="1"/>
        <pt x="535" y="626" on="1"/>
        <pt x="252" y="626" on="1"/>
        <pt x="203" y="397" on="1"/>
        <pt x="462" y="397" on="1"/>
        <pt x="447" y="323" on="1"/>
        <pt x="188" y="323" on="1"/>
        <pt x="135" y="74" on="1"/>
        <pt x="423" y="74" on="1"/>
        <pt x="407" y="0" on="1"/>
        <pt x="119" y="0" on="1"/>
        <pt x="40" y="0" on="1"/>
      </contour>
    </TTGlyph>
    <TTGlyph name="Eacute" xMin="40" yMin="0" xMax="567" yMax="870">
      <component glyphName="E" x="0" y="0" flags="0x204"/>
      <component glyphName="uniF6C9" x="110" y="0" flags="0x4"/>
    </TTGlyph>
    <TTGlyph name="Ecaron" xMin="40" yMin="0" xMax="550" yMax="870">
      <component glyphName="E" x="0" y="0" flags="0x204"/>
      <component glyphName="uniF6CA" x="29" y="0" flags="0x4"/>
    </TTGlyph>
    <TTGlyph name="Ecircumflex" xMin="40" yMin="0" xMax="550" yMax="870">
      <component glyphName="E" x="0" y="0" flags="0x204"/>
      <component glyphName="uniF408" x="29" y="0" flags="0x4"/>
    </TTGlyph>
    <TTGlyph name="Edieresis" xMin="40" yMin="0" xMax="550" yMax="841">
      <component glyphName="E" x="0" y="0" flags="0x204"/>
      <component glyphName="uniF6CB" x="130" y="0" flags="0x4"/>
    </TTGlyph>
    <TTGlyph name="Edotaccent" xMin="40" yMin="0" xMax="550" yMax="849">
      <component glyphName="E" x="0" y="0" flags="0x204"/>
      <component glyphName="uniF40B" x="120" y="0" flags="0x4"/>
    </TTGlyph>
    <TTGlyph name="Egrave" xMin="40" yMin="0" xMax="550" yMax="870">
      <component glyphName="E" x="0" y="0" flags="0x204"/>
      <component glyphName="uniF6CE" x="80" y="0" flags="0x4"/>
    </TTGlyph>
    <TTGlyph name="Emacron" xMin="40" yMin="0" xMax="550" yMax="843">
      <component glyphName="E" x="0" y="0" flags="0x204"/>
      <component glyphName="uniF6D0" x="74" y="0" flags="0x4"/>
    </TTGlyph>
    <TTGlyph name="Eogonek" xMin="40" yMin="-195" xMax="550" yMax="700">
      <contour>
        <pt x="189" y="700" on="1"/>
        <pt x="550" y="700" on="1"/>
        <pt x="535" y="626" on="1"/>
        <pt x="252" y="626" on="1"/>
        <pt x="203" y="397" on="1"/>
        <pt x="462" y="397" on="1"/>
        <pt x="447" y="323" on="1"/>
        <pt x="188" y="323" on="1"/>
        <pt x="135" y="74" on="1"/>
        <pt x="423" y="74" on="1"/>
        <pt x="407" y="0" on="1"/>
        <pt x="380" y="0" on="1"/>
        <pt x="349" y="-15" on="0"/>
        <pt x="303" y="-61" on="0"/>
        <pt x="303" y="-96" on="1"/>
        <pt x="303" y="-113" on="0"/>
        <pt x="322" y="-136" on="0"/>
        <pt x="344" y="-136" on="1"/>
        <pt x="363" y="-136" on="0"/>
        <pt x="386" y="-128" on="1"/>
        <pt x="387" y="-171" on="1"/>
        <pt x="369" y="-184" on="0"/>
        <pt x="321" y="-195" on="0"/>
        <pt x="301" y="-195" on="1"/>
        <pt x="266" y="-195" on="0"/>
        <pt x="221" y="-159" on="0"/>
        <pt x="221" y="-122" on="1"/>
        <pt x="221" y="-78" on="0"/>
        <pt x="281" y="-17" on="0"/>
        <pt x="322" y="0" on="1"/>
        <pt x="120" y="0" on="1"/>
        <pt x="40" y="0" on="1"/>
      </contour>
    </TTGlyph>
    <TTGlyph name="Eth" xMin="28" yMin="-9" xMax="623" yMax="708">
      <contour>
        <pt x="41" y="392" on="1"/>
        <pt x="127" y="392" on="1"/>
        <pt x="193" y="700" on="1"/>
        <pt x="231" y="705" on="0"/>
        <pt x="327" y="708" on="0"/>
        <pt x="366" y="708" on="1"/>
        <pt x="424" y="708" on="0"/>
        <pt x="520" y="677" on="0"/>
        <pt x="587" y="613" on="0"/>
        <pt x="623" y="515" on="0"/>
        <pt x="623" y="449" on="1"/>
        <pt x="623" y="405" on="0"/>
        <pt x="607" y="302" on="0"/>
        <pt x="570" y="201" on="0"/>
        <pt x="508" y="107" on="0"/>
        <pt x="416" y="34" on="0"/>
        <pt x="293" y="-9" on="0"/>
        <pt x="212" y="-9" on="1"/>
        <pt x="197" y="-9" on="0"/>
        <pt x="148" y="-8" on="0"/>
        <pt x="122" y="-7" on="1"/>
        <pt x="54" y="-3" on="0"/>
        <pt x="44" y="-1" on="1"/>
        <pt x="115" y="332" on="1"/>
        <pt x="28" y="332" on="1"/>
      </contour>
      <contour>
        <pt x="360" y="634" on="1"/>
        <pt x="348" y="634" on="0"/>
        <pt x="318" y="633" on="0"/>
        <pt x="290" y="632" on="0"/>
        <pt x="264" y="630" on="0"/>
        <pt x="257" y="629" on="1"/>
        <pt x="207" y="392" on="1"/>
        <pt x="344" y="392" on="1"/>
        <pt x="332" y="332" on="1"/>
        <pt x="194" y="332" on="1"/>
        <pt x="139" y="69" on="1"/>
        <pt x="143" y="68" on="0"/>
        <pt x="167" y="67" on="0"/>
        <pt x="194" y="66" on="0"/>
        <pt x="219" y="65" on="0"/>
        <pt x="224" y="65" on="1"/>
        <pt x="311" y="65" on="0"/>
        <pt x="430" y="137" on="0"/>
        <pt x="505" y="247" on="0"/>
        <pt x="539" y="379" on="0"/>
        <pt x="539" y="438" on="1"/>
        <pt x="539" y="483" on="0"/>
        <pt x="519" y="555" on="0"/>
        <pt x="476" y="606" on="0"/>
        <pt x="408" y="634" on="0"/>
      </contour>
    </TTGlyph>
    <TTGlyph name="Euro" xMin="6" yMin="-12" xMax="608" yMax="712">
      <contour>
        <pt x="67" y="454" on="1"/>
        <pt x="141" y="454" on="1"/>
        <pt x="165" y="521" on="0"/>
        <pt x="240" y="618" on="0"/>
        <pt x="329" y="681" on="0"/>
        <pt x="425" y="712" on="0"/>
        <pt x="470" y="712" on="1"/>
        <pt x="518" y="712" on="0"/>
        <pt x="585" y="696" on="0"/>
        <pt x="608" y="683" on="1"/>
        <pt x="573" y="622" on="1"/>
        <pt x="536" y="644" on="0"/>
        <pt x="455" y="644" on="1"/>
        <pt x="428" y="644" on="0"/>
        <pt x="363" y="622" on="0"/>
        <pt x="299" y="576" on="0"/>
        <pt x="241" y="504" on="0"/>
        <pt x="220" y="454" on="1"/>
        <pt x="496" y="454" on="1"/>
        <pt x="465" y="388" on="1"/>
        <pt x="197" y="388" on="1"/>
        <pt x="189" y="354" on="0"/>
        <pt x="185" y="318" on="1"/>
        <pt x="430" y="318" on="1"/>
        <pt x="399" y="252" on="1"/>
        <pt x="180" y="252" on="1"/>
        <pt x="180" y="246" on="1"/>
        <pt x="180" y="205" on="0"/>
        <pt x="198" y="136" on="0"/>
        <pt x="238" y="85" on="0"/>
        <pt x="304" y="56" on="0"/>
        <pt x="352" y="56" on="1"/>
        <pt x="384" y="56" on="0"/>
        <pt x="447" y="74" on="0"/>
        <pt x="472" y="88" on="1"/>
        <pt x="486" y="28" on="1"/>
        <pt x="469" y="16" on="0"/>
        <pt x="428" y="1" on="0"/>
        <pt x="384" y="-8" on="0"/>
        <pt x="342" y="-12" on="0"/>
        <pt x="324" y="-12" on="1"/>
        <pt x="270" y="-12" on="0"/>
        <pt x="188" y="25" on="0"/>
        <pt x="133" y="91" on="0"/>
        <pt x="105" y="181" on="0"/>
        <pt x="105" y="233" on="1"/>
        <pt x="105" y="252" on="1"/>
        <pt x="6" y="252" on="1"/>
        <pt x="38" y="318" on="1"/>
        <pt x="110" y="318" on="1"/>
        <pt x="115" y="356" on="0"/>
        <pt x="122" y="388" on="1"/>
        <pt x="35" y="388" on="1"/>
      </contour>
    </TTGlyph>
    <TTGlyph name="F" xMin="40" yMin="0" xMax="550" yMax="700">
      <contour>
        <pt x="189" y="700" on="1"/>
        <pt x="550" y="700" on="1"/>
        <pt x="535" y="626" on="1"/>
        <pt x="252" y="626" on="1"/>
        <pt x="201" y="387" on="1"/>
        <pt x="465" y="387" on="1"/>
        <pt x="450" y="313" on="1"/>
        <pt x="186" y="313" on="1"/>
        <pt x="120" y="0" on="1"/>
        <pt x="40" y="0" on="1"/>
      </contour>
    </TTGlyph>
    <TTGlyph name="G" xMin="71" yMin="-12" xMax="611" yMax="712">
      <contour>
        <pt x="375" y="349" on="1"/>
        <pt x="491" y="349" on="1"/>
        <pt x="559" y="349" on="1"/>
        <pt x="494" y="41" on="1"/>
        <pt x="423" y="-12" on="0"/>
        <pt x="318" y="-12" on="1"/>
        <pt x="268" y="-12" on="0"/>
        <pt x="179" y="24" on="0"/>
        <pt x="111" y="95" on="0"/>
        <pt x="71" y="201" on="0"/>
        <pt x="71" y="272" on="1"/>
        <pt x="71" y="395" on="0"/>
        <pt x="143" y="563" on="0"/>
        <pt x="256" y="666" on="0"/>
        <pt x="392" y="712" on="0"/>
        <pt x="456" y="712" on="1"/>
        <pt x="513" y="712" on="0"/>
        <pt x="588" y="697" on="0"/>
        <pt x="611" y="686" on="1"/>
        <pt x="576" y="613" on="1"/>
        <pt x="556" y="624" on="0"/>
        <pt x="489" y="638" on="0"/>
        <pt x="447" y="638" on="1"/>
        <pt x="389" y="638" on="0"/>
        <pt x="284" y="593" on="0"/>
        <pt x="203" y="503" on="0"/>
        <pt x="155" y="370" on="0"/>
        <pt x="155" y="282" on="1"/>
        <pt x="155" y="237" on="0"/>
        <pt x="177" y="157" on="0"/>
        <pt x="222" y="97" on="0"/>
        <pt x="289" y="62" on="0"/>
        <pt x="335" y="62" on="1"/>
        <pt x="367" y="62" on="0"/>
        <pt x="413" y="75" on="0"/>
        <pt x="436" y="87" on="1"/>
        <pt x="477" y="282" on="1"/>
        <pt x="365" y="302" on="1"/>
      </contour>
    </TTGlyph>
    <TTGlyph name="Gbreve" xMin="71" yMin="-12" xMax="652" yMax="871">
      <component glyphName="G" x="0" y="0" flags="0x204"/>
      <component glyphName="uniF406" x="193" y="0" flags="0x4"/>
    </TTGlyph>
    <TTGlyph name="Gcircumflex" xMin="71" yMin="-12" xMax="613" yMax="870">
      <component glyphName="G" x="0" y="0" flags="0x204"/>
      <component glyphName="uniF408" x="114" y="0" flags="0x4"/>
    </TTGlyph>
    <TTGlyph name="Gcommaaccent" xMin="71" yMin="-245" xMax="611" yMax="712">
      <component glyphName="G" x="0" y="0" flags="0x204"/>
      <component glyphName="uniF6C3" x="248" y="0" flags="0x4"/>
    </TTGlyph>
    <TTGlyph name="H" xMin="40" yMin="0" xMax="665" yMax="700">
      <contour>
        <pt x="505" y="321" on="1"/>
        <pt x="187" y="321" on="1"/>
        <pt x="120" y="0" on="1"/>
        <pt x="40" y="0" on="1"/>
        <pt x="188" y="700" on="1"/>
        <pt x="268" y="700" on="1"/>
        <pt x="204" y="395" on="1"/>
        <pt x="521" y="395" on="1"/>
        <pt x="585" y="700" on="1"/>
        <pt x="665" y="700" on="1"/>
        <pt x="517" y="0" on="1"/>
        <pt x="437" y="0" on="1"/>
      </contour>
    </TTGlyph>
    <TTGlyph name="Hbar" xMin="43" yMin="0" xMax="721" yMax="700">
      <contour>
        <pt x="94" y="587" on="1"/>
        <pt x="167" y="587" on="1"/>
        <pt x="191" y="700" on="1"/>
        <pt x="271" y="700" on="1"/>
        <pt x="247" y="587" on="1"/>
        <pt x="564" y="587" on="1"/>
        <pt x="588" y="700" on="1"/>
        <pt x="668" y="700" on="1"/>
        <pt x="644" y="587" on="1"/>
        <pt x="721" y="587" on="1"/>
        <pt x="708" y="523" on="1"/>
        <pt x="630" y="523" on="1"/>
        <pt x="520" y="0" on="1"/>
        <pt x="440" y="0" on="1"/>
        <pt x="508" y="321" on="1"/>
        <pt x="190" y="321" on="1"/>
        <pt x="123" y="0" on="1"/>
        <pt x="43" y="0" on="1"/>
        <pt x="153" y="523" on="1"/>
        <pt x="80" y="523" on="1"/>
      </contour>
      <contour>
        <pt x="524" y="395" on="1"/>
        <pt x="551" y="523" on="1"/>
        <pt x="234" y="523" on="1"/>
        <pt x="207" y="395" on="1"/>
      </contour>
    </TTGlyph>
    <TTGlyph name="Hcircumflex" xMin="40" yMin="0" xMax="665" yMax="870">
      <component glyphName="H" x="0" y="0" flags="0x204"/>
      <component glyphName="uniF408" x="92" y="0" flags="0x4"/>
    </TTGlyph>
    <TTGlyph name="I" xMin="62" yMin="0" xMax="290" yMax="700">
      <contour>
        <pt x="210" y="700" on="1"/>
        <pt x="290" y="700" on="1"/>
        <pt x="142" y="0" on="1"/>
        <pt x="62" y="0" on="1"/>
      </contour>
    </TTGlyph>
    <TTGlyph name="Iacute" xMin="62" yMin="0" xMax="442" yMax="870">
      <component glyphName="I" x="0" y="0" flags="0x204"/>
      <component glyphName="uniF6C9" x="-15" y="0" flags="0x4"/>
    </TTGlyph>
    <TTGlyph name="Icircumflex" xMin="62" yMin="0" xMax="410" yMax="870">
      <component glyphName="I" x="0" y="0" flags="0x204"/>
      <component glyphName="uniF408" x="-89" y="0" flags="0x4"/>
    </TTGlyph>
    <TTGlyph name="Idieresis" xMin="62" yMin="0" xMax="407" yMax="841">
      <component glyphName="I" x="0" y="0" flags="0x204"/>
      <component glyphName="uniF6CB" x="13" y="0" flags="0x4"/>
    </TTGlyph>
    <TTGlyph name="Idotaccent" xMin="62" yMin="0" xMax="328" yMax="849">
      <component glyphName="I" x="0" y="0" flags="0x204"/>
      <component glyphName="uniF40B" x="-1" y="0" flags="0x4"/>
    </TTGlyph>
    <TTGlyph name="Igrave" xMin="62" yMin="0" xMax="317" yMax="870">
      <component glyphName="I" x="0" y="0" flags="0x204"/>
      <component glyphName="uniF6CE" x="-25" y="0" flags="0x4"/>
    </TTGlyph>
    <TTGlyph name="Imacron" xMin="62" yMin="0" xMax="422" yMax="843">
      <component glyphName="I" x="0" y="0" flags="0x204"/>
      <component glyphName="uniF6D0" x="-42" y="0" flags="0x4"/>
    </TTGlyph>
    <TTGlyph name="Iogonek" xMin="-32" yMin="-195" xMax="290" yMax="700">
      <contour>
        <pt x="210" y="700" on="1"/>
        <pt x="290" y="700" on="1"/>
        <pt x="142" y="0" on="1"/>
        <pt x="125" y="0" on="1"/>
        <pt x="96" y="-15" on="0"/>
        <pt x="50" y="-62" on="0"/>
        <pt x="50" y="-97" on="1"/>
        <pt x="50" y="-114" on="0"/>
        <pt x="69" y="-137" on="0"/>
        <pt x="90" y="-137" on="1"/>
        <pt x="109" y="-137" on="0"/>
        <pt x="132" y="-129" on="1"/>
        <pt x="133" y="-172" on="1"/>
        <pt x="115" y="-184" on="0"/>
        <pt x="67" y="-195" on="0"/>
        <pt x="47" y="-195" on="1"/>
        <pt x="13" y="-195" on="0"/>
        <pt x="-31" y="-160" on="0"/>
        <pt x="-32" y="-122" on="1"/>
        <pt x="-32" y="-80" on="0"/>
        <pt x="28" y="-17" on="0"/>
        <pt x="68" y="0" on="1"/>
        <pt x="62" y="0" on="1"/>
      </contour>
    </TTGlyph>
    <TTGlyph name="J" xMin="-61" yMin="-10" xMax="302" yMax="700">
      <contour>
        <pt x="222" y="700" on="1"/>
        <pt x="302" y="700" on="1"/>
        <pt x="186" y="154" on="1"/>
        <pt x="177" y="114" on="0"/>
        <pt x="152" y="53" on="0"/>
        <pt x="113" y="11" on="0"/>
        <pt x="56" y="-10" on="0"/>
        <pt x="16" y="-10" on="1"/>
        <pt x="8" y="-10" on="0"/>
        <pt x="-13" y="-8" on="0"/>
        <pt x="-35" y="-4" on="0"/>
        <pt x="-55" y="2" on="0"/>
        <pt x="-61" y="6" on="1"/>
        <pt x="-31" y="77" on="1"/>
        <pt x="-12" y="64" on="0"/>
        <pt x="23" y="64" on="1"/>
        <pt x="44" y="64" on="0"/>
        <pt x="72" y="79" on="0"/>
        <pt x="92" y="108" on="0"/>
        <pt x="105" y="148" on="0"/>
        <pt x="110" y="174" on="1"/>
      </contour>
    </TTGlyph>
    <TTGlyph name="Jcircumflex" xMin="-61" yMin="-10" xMax="416" yMax="870">
      <component glyphName="J" x="0" y="0" flags="0x204"/>
      <component glyphName="uniF408" x="-83" y="0" flags="0x4"/>
    </TTGlyph>
    <TTGlyph name="K" xMin="40" yMin="0" xMax="624" yMax="700">
      <contour>
        <pt x="239" y="324" on="1"/>
        <pt x="188" y="324" on="1"/>
        <pt x="120" y="0" on="1"/>
        <pt x="40" y="0" on="1"/>
        <pt x="188" y="700" on="1"/>
        <pt x="268" y="700" on="1"/>
        <pt x="198" y="374" on="1"/>
        <pt x="238" y="388" on="1"/>
        <pt x="525" y="700" on="1"/>
        <pt x="624" y="700" on="1"/>
        <pt x="338" y="396" on="1"/>
        <pt x="292" y="365" on="1"/>
        <pt x="331" y="325" on="1"/>
        <pt x="506" y="0" on="1"/>
        <pt x="415" y="0" on="1"/>
      </contour>
    </TTGlyph>
    <TTGlyph name="Kcommaaccent" xMin="40" yMin="-245" xMax="624" yMax="700">
      <component glyphName="K" x="0" y="0" flags="0x204"/>
      <component glyphName="uniF6C3" x="160" y="0" flags="0x4"/>
    </TTGlyph>
    <TTGlyph name="L" xMin="40" yMin="0" xMax="449" yMax="700">
      <contour>
        <pt x="434" y="0" on="1"/>
        <pt x="118" y="0" on="1"/>
        <pt x="40" y="0" on="1"/>
        <pt x="188" y="700" on="1"/>
        <pt x="268" y="700" on="1"/>
        <pt x="135" y="74" on="1"/>
        <pt x="449" y="74" on="1"/>
      </contour>
    </TTGlyph>
    <TTGlyph name="Lacute" xMin="40" yMin="0" xMax="467" yMax="870">
      <component glyphName="L" x="0" y="0" flags="0x204"/>
      <component glyphName="uniF6C9" x="10" y="0" flags="0x4"/>
    </TTGlyph>
    <TTGlyph name="Lcaron" xMin="40" yMin="0" xMax="516" yMax="700">
      <component glyphName="L" x="0" y="0" flags="0x204"/>
      <component glyphName="caron.l" x="65" y="0" flags="0x4"/>
    </TTGlyph>
    <TTGlyph name="Lcommaaccent" xMin="40" yMin="-245" xMax="449" yMax="700">
      <component glyphName="L" x="0" y="0" flags="0x204"/>
      <component glyphName="uniF6C3" x="148" y="0" flags="0x4"/>
    </TTGlyph>
    <TTGlyph name="Lslash" xMin="20" yMin="0" xMax="450" yMax="700">
      <contour>
        <pt x="36" y="287" on="1"/>
        <pt x="113" y="341" on="1"/>
        <pt x="189" y="700" on="1"/>
        <pt x="269" y="700" on="1"/>
        <pt x="206" y="407" on="1"/>
        <pt x="326" y="491" on="1"/>
        <pt x="309" y="411" on="1"/>
        <pt x="190" y="328" on="1"/>
        <pt x="136" y="74" on="1"/>
        <pt x="450" y="74" on="1"/>
        <pt x="435" y="0" on="1"/>
        <pt x="121" y="0" on="1"/>
        <pt x="41" y="0" on="1"/>
        <pt x="97" y="264" on="1"/>
        <pt x="20" y="211" on="1"/>
      </contour>
    </TTGlyph>
    <TTGlyph name="M" xMin="40" yMin="0" xMax="780" yMax="700">
      <contour>
        <pt x="651" y="470" on="1"/>
        <pt x="682" y="575" on="1"/>
        <pt x="678" y="575" on="1"/>
        <pt x="622" y="479" on="1"/>
        <pt x="382" y="163" on="1"/>
        <pt x="358" y="163" on="1"/>
        <pt x="243" y="479" on="1"/>
        <pt x="228" y="575" on="1"/>
        <pt x="224" y="575" on="1"/>
        <pt x="216" y="471" on="1"/>
        <pt x="116" y="0" on="1"/>
        <pt x="40" y="0" on="1"/>
        <pt x="189" y="700" on="1"/>
        <pt x="244" y="700" on="1"/>
        <pt x="374" y="342" on="1"/>
        <pt x="389" y="264" on="1"/>
        <pt x="390" y="264" on="1"/>
        <pt x="436" y="344" on="1"/>
        <pt x="709" y="700" on="1"/>
        <pt x="780" y="700" on="1"/>
        <pt x="631" y="0" on="1"/>
        <pt x="551" y="0" on="1"/>
      </contour>
    </TTGlyph>
    <TTGlyph name="N" xMin="40" yMin="-11" xMax="668" yMax="711">
      <contour>
        <pt x="261" y="458" on="1"/>
        <pt x="227" y="561" on="1"/>
        <pt x="224" y="561" on="1"/>
        <pt x="212" y="458" on="1"/>
        <pt x="115" y="0" on="1"/>
        <pt x="40" y="0" on="1"/>
        <pt x="191" y="711" on="1"/>
        <pt x="231" y="711" on="1"/>
        <pt x="449" y="243" on="1"/>
        <pt x="482" y="145" on="1"/>
        <pt x="486" y="145" on="1"/>
        <pt x="495" y="243" on="1"/>
        <pt x="593" y="700" on="1"/>
        <pt x="668" y="700" on="1"/>
        <pt x="517" y="-11" on="1"/>
        <pt x="480" y="-11" on="1"/>
      </contour>
    </TTGlyph>
    <TTGlyph name="Nacute" xMin="40" yMin="-11" xMax="668" yMax="870">
      <component glyphName="N" x="0" y="0" flags="0x204"/>
      <component glyphName="uniF6C9" x="183" y="0" flags="0x4"/>
    </TTGlyph>
    <TTGlyph name="Ncaron" xMin="40" yMin="-11" xMax="668" yMax="870">
      <component glyphName="N" x="0" y="0" flags="0x204"/>
      <component glyphName="uniF6CA" x="95" y="0" flags="0x4"/>
    </TTGlyph>
    <TTGlyph name="Ncommaaccent" xMin="40" yMin="-245" xMax="668" yMax="711">
      <component glyphName="N" x="0" y="0" flags="0x204"/>
      <component glyphName="uniF6C3" x="199" y="0" flags="0x4"/>
    </TTGlyph>
    <TTGlyph name="Ntilde" xMin="40" yMin="-11" xMax="668" yMax="840">
      <component glyphName="N" x="0" y="0" flags="0x204"/>
      <component glyphName="uniF40D" x="119" y="0" flags="0x4"/>
    </TTGlyph>
    <TTGlyph name="O" xMin="71" yMin="-12" xMax="647" yMax="712">
      <contour>
        <pt x="71" y="256" on="1"/>
        <pt x="71" y="348" on="0"/>
        <pt x="121" y="514" on="0"/>
        <pt x="214" y="639" on="0"/>
        <pt x="345" y="712" on="0"/>
        <pt x="425" y="712" on="1"/>
        <pt x="473" y="712" on="0"/>
        <pt x="555" y="683" on="0"/>
        <pt x="614" y="620" on="0"/>
        <pt x="647" y="520" on="0"/>
        <pt x="647" y="448" on="1"/>
        <pt x="647" y="354" on="0"/>
        <pt x="597" y="187" on="0"/>
        <pt x="507" y="61" on="0"/>
        <pt x="382" y="-12" on="0"/>
        <pt x="307" y="-12" on="1"/>
        <pt x="189" y="-12" on="0"/>
        <pt x="71" y="125" on="0"/>
      </contour>
      <contour>
        <pt x="155" y="257" on="1"/>
        <pt x="155" y="163" on="0"/>
        <pt x="233" y="60" on="0"/>
        <pt x="309" y="60" on="1"/>
        <pt x="365" y="60" on="0"/>
        <pt x="458" y="122" on="0"/>
        <pt x="526" y="228" on="0"/>
        <pt x="563" y="368" on="0"/>
        <pt x="563" y="446" on="1"/>
        <pt x="563" y="504" on="0"/>
        <pt x="537" y="580" on="0"/>
        <pt x="494" y="623" on="0"/>
        <pt x="439" y="640" on="0"/>
        <pt x="411" y="640" on="1"/>
        <pt x="354" y="640" on="0"/>
        <pt x="260" y="577" on="0"/>
        <pt x="193" y="471" on="0"/>
        <pt x="155" y="332" on="0"/>
      </contour>
    </TTGlyph>
    <TTGlyph name="OE" xMin="72" yMin="-12" xMax="929" yMax="712">
      <contour>
        <pt x="549" y="618" on="1"/>
        <pt x="526" y="629" on="0"/>
        <pt x="470" y="640" on="0"/>
        <pt x="423" y="640" on="1"/>
        <pt x="358" y="640" on="0"/>
        <pt x="258" y="577" on="0"/>
        <pt x="190" y="471" on="0"/>
        <pt x="156" y="333" on="0"/>
        <pt x="156" y="257" on="1"/>
        <pt x="156" y="227" on="0"/>
        <pt x="168" y="158" on="0"/>
        <pt x="202" y="99" on="0"/>
        <pt x="264" y="60" on="0"/>
        <pt x="314" y="60" on="1"/>
        <pt x="328" y="60" on="0"/>
        <pt x="354" y="61" on="0"/>
        <pt x="382" y="64" on="0"/>
        <pt x="414" y="71" on="0"/>
        <pt x="435" y="77" on="1"/>
      </contour>
      <contour>
        <pt x="419" y="0" on="1"/>
        <pt x="393" y="-6" on="0"/>
        <pt x="347" y="-12" on="0"/>
        <pt x="310" y="-12" on="1"/>
        <pt x="263" y="-12" on="0"/>
        <pt x="177" y="14" on="0"/>
        <pt x="111" y="76" on="0"/>
        <pt x="72" y="179" on="0"/>
        <pt x="72" y="256" on="1"/>
        <pt x="72" y="352" on="0"/>
        <pt x="122" y="519" on="0"/>
        <pt x="216" y="642" on="0"/>
        <pt x="350" y="712" on="0"/>
        <pt x="435" y="712" on="1"/>
        <pt x="457" y="712" on="0"/>
        <pt x="489" y="711" on="0"/>
        <pt x="518" y="708" on="0"/>
        <pt x="547" y="703" on="0"/>
        <pt x="567" y="700" on="1"/>
        <pt x="929" y="700" on="1"/>
        <pt x="913" y="626" on="1"/>
        <pt x="631" y="626" on="1"/>
        <pt x="582" y="397" on="1"/>
        <pt x="840" y="397" on="1"/>
        <pt x="825" y="323" on="1"/>
        <pt x="566" y="323" on="1"/>
        <pt x="514" y="74" on="1"/>
        <pt x="801" y="74" on="1"/>
        <pt x="786" y="0" on="1"/>
      </contour>
    </TTGlyph>
    <TTGlyph name="Oacute" xMin="71" yMin="-12" xMax="648" yMax="870">
      <component glyphName="O" x="0" y="0" flags="0x204"/>
      <component glyphName="uniF6C9" x="191" y="0" flags="0x4"/>
    </TTGlyph>
    <TTGlyph name="Ocircumflex" xMin="71" yMin="-12" xMax="647" yMax="870">
      <component glyphName="O" x="0" y="0" flags="0x204"/>
      <component glyphName="uniF408" x="95" y="0" flags="0x4"/>
    </TTGlyph>
    <TTGlyph name="Odieresis" xMin="71" yMin="-12" xMax="647" yMax="841">
      <component glyphName="O" x="0" y="0" flags="0x204"/>
      <component glyphName="uniF6CB" x="197" y="0" flags="0x4"/>
    </TTGlyph>
    <TTGlyph name="Ograve" xMin="71" yMin="-12" xMax="647" yMax="870">
      <component glyphName="O" x="0" y="0" flags="0x204"/>
      <component glyphName="uniF6CE" x="161" y="0" flags="0x4"/>
    </TTGlyph>
    <TTGlyph name="Ohungarumlaut" xMin="71" yMin="-12" xMax="672" yMax="850">
      <component glyphName="O" x="0" y="0" flags="0x204"/>
      <component glyphName="uniF6CF" x="81" y="0" flags="0x4"/>
    </TTGlyph>
    <TTGlyph name="Omacron" xMin="71" yMin="-12" xMax="647" yMax="843">
      <component glyphName="O" x="0" y="0" flags="0x204"/>
      <component glyphName="uniF6D0" x="147" y="0" flags="0x4"/>
    </TTGlyph>
    <TTGlyph name="Oslash" xMin="71" yMin="-12" xMax="647" yMax="712">
      <contour>
        <pt x="71" y="256" on="1"/>
        <pt x="71" y="348" on="0"/>
        <pt x="121" y="514" on="0"/>
        <pt x="214" y="639" on="0"/>
        <pt x="345" y="712" on="0"/>
        <pt x="425" y="712" on="1"/>
        <pt x="464" y="712" on="0"/>
        <pt x="533" y="693" on="0"/>
        <pt x="560" y="673" on="1"/>
        <pt x="589" y="712" on="1"/>
        <pt x="638" y="674" on="1"/>
        <pt x="603" y="627" on="1"/>
        <pt x="624" y="596" on="0"/>
        <pt x="647" y="508" on="0"/>
        <pt x="647" y="448" on="1"/>
        <pt x="647" y="354" on="0"/>
        <pt x="597" y="187" on="0"/>
        <pt x="507" y="61" on="0"/>
        <pt x="382" y="-12" on="0"/>
        <pt x="307" y="-12" on="1"/>
        <pt x="219" y="-12" on="0"/>
        <pt x="162" y="28" on="1"/>
        <pt x="133" y="-11" on="1"/>
        <pt x="83" y="28" on="1"/>
        <pt x="117" y="74" on="1"/>
        <pt x="71" y="139" on="0"/>
      </contour>
      <contour>
        <pt x="155" y="257" on="1"/>
        <pt x="155" y="194" on="0"/>
        <pt x="173" y="149" on="1"/>
        <pt x="510" y="605" on="1"/>
        <pt x="489" y="624" on="0"/>
        <pt x="438" y="640" on="0"/>
        <pt x="411" y="640" on="1"/>
        <pt x="354" y="640" on="0"/>
        <pt x="260" y="577" on="0"/>
        <pt x="193" y="471" on="0"/>
        <pt x="155" y="332" on="0"/>
      </contour>
      <contour>
        <pt x="563" y="446" on="1"/>
        <pt x="563" y="478" on="0"/>
        <pt x="555" y="530" on="0"/>
        <pt x="547" y="550" on="1"/>
        <pt x="210" y="94" on="1"/>
        <pt x="249" y="60" on="0"/>
        <pt x="309" y="60" on="1"/>
        <pt x="365" y="60" on="0"/>
        <pt x="458" y="122" on="0"/>
        <pt x="526" y="228" on="0"/>
        <pt x="563" y="368" on="0"/>
      </contour>
    </TTGlyph>
    <TTGlyph name="Otilde" xMin="71" yMin="-12" xMax="647" yMax="840">
      <component glyphName="O" x="0" y="0" flags="0x204"/>
      <component glyphName="uniF40D" x="128" y="0" flags="0x4"/>
    </TTGlyph>
    <TTGlyph name="P" xMin="40" yMin="0" xMax="566" yMax="708">
      <contour>
        <pt x="187" y="693" on="1"/>
        <pt x="225" y="702" on="0"/>
        <pt x="309" y="708" on="0"/>
        <pt x="350" y="708" on="1"/>
        <pt x="396" y="708" on="0"/>
        <pt x="475" y="688" on="0"/>
        <pt x="533" y="644" on="0"/>
        <pt x="566" y="575" on="0"/>
        <pt x="566" y="527" on="1"/>
        <pt x="566" y="451" on="0"/>
        <pt x="511" y="349" on="0"/>
        <pt x="422" y="288" on="0"/>
        <pt x="310" y="262" on="0"/>
        <pt x="253" y="262" on="1"/>
        <pt x="248" y="262" on="0"/>
        <pt x="227" y="262" on="0"/>
        <pt x="203" y="263" on="0"/>
        <pt x="181" y="265" on="0"/>
        <pt x="176" y="266" on="1"/>
        <pt x="120" y="0" on="1"/>
        <pt x="40" y="0" on="1"/>
      </contour>
      <contour>
        <pt x="333" y="636" on="1"/>
        <pt x="310" y="636" on="0"/>
        <pt x="267" y="633" on="0"/>
        <pt x="253" y="630" on="1"/>
        <pt x="192" y="339" on="1"/>
        <pt x="196" y="337" on="0"/>
        <pt x="215" y="336" on="0"/>
        <pt x="236" y="334" on="0"/>
        <pt x="256" y="334" on="0"/>
        <pt x="261" y="334" on="1"/>
        <pt x="304" y="334" on="0"/>
        <pt x="384" y="352" on="0"/>
        <pt x="445" y="396" on="0"/>
        <pt x="482" y="466" on="0"/>
        <pt x="482" y="519" on="1"/>
        <pt x="482" y="555" on="0"/>
        <pt x="458" y="601" on="0"/>
        <pt x="417" y="626" on="0"/>
        <pt x="363" y="636" on="0"/>
      </contour>
    </TTGlyph>
    <TTGlyph name="Q" xMin="71" yMin="-183" xMax="649" yMax="712">
      <contour>
        <pt x="633" y="-171" on="1"/>
        <pt x="609" y="-178" on="0"/>
        <pt x="564" y="-183" on="0"/>
        <pt x="542" y="-183" on="1"/>
        <pt x="494" y="-183" on="0"/>
        <pt x="408" y="-162" on="0"/>
        <pt x="329" y="-138" on="0"/>
        <pt x="256" y="-117" on="0"/>
        <pt x="221" y="-117" on="1"/>
        <pt x="210" y="-117" on="0"/>
        <pt x="187" y="-119" on="0"/>
        <pt x="176" y="-122" on="1"/>
        <pt x="191" y="-49" on="1"/>
        <pt x="218" y="-43" on="0"/>
        <pt x="244" y="-43" on="1"/>
        <pt x="284" y="-43" on="0"/>
        <pt x="358" y="-64" on="0"/>
        <pt x="435" y="-88" on="0"/>
        <pt x="517" y="-109" on="0"/>
        <pt x="564" y="-109" on="1"/>
        <pt x="605" y="-109" on="0"/>
        <pt x="649" y="-99" on="1"/>
      </contour>
      <contour>
        <pt x="71" y="256" on="1"/>
        <pt x="71" y="348" on="0"/>
        <pt x="121" y="514" on="0"/>
        <pt x="214" y="639" on="0"/>
        <pt x="345" y="712" on="0"/>
        <pt x="425" y="712" on="1"/>
        <pt x="473" y="712" on="0"/>
        <pt x="555" y="683" on="0"/>
        <pt x="614" y="620" on="0"/>
        <pt x="647" y="520" on="0"/>
        <pt x="647" y="448" on="1"/>
        <pt x="647" y="354" on="0"/>
        <pt x="597" y="187" on="0"/>
        <pt x="507" y="61" on="0"/>
        <pt x="382" y="-12" on="0"/>
        <pt x="307" y="-12" on="1"/>
        <pt x="189" y="-12" on="0"/>
        <pt x="71" y="125" on="0"/>
      </contour>
      <contour>
        <pt x="155" y="257" on="1"/>
        <pt x="155" y="163" on="0"/>
        <pt x="233" y="60" on="0"/>
        <pt x="309" y="60" on="1"/>
        <pt x="365" y="60" on="0"/>
        <pt x="458" y="122" on="0"/>
        <pt x="526" y="228" on="0"/>
        <pt x="563" y="368" on="0"/>
        <pt x="563" y="446" on="1"/>
        <pt x="563" y="504" on="0"/>
        <pt x="537" y="580" on="0"/>
        <pt x="494" y="623" on="0"/>
        <pt x="439" y="640" on="0"/>
        <pt x="411" y="640" on="1"/>
        <pt x="354" y="640" on="0"/>
        <pt x="260" y="577" on="0"/>
        <pt x="193" y="471" on="0"/>
        <pt x="155" y="332" on="0"/>
      </contour>
    </TTGlyph>
    <TTGlyph name="R" xMin="40" yMin="0" xMax="544" yMax="708">
      <contour>
        <pt x="187" y="693" on="1"/>
        <pt x="229" y="701" on="0"/>
        <pt x="307" y="708" on="0"/>
        <pt x="346" y="708" on="1"/>
        <pt x="384" y="708" on="0"/>
        <pt x="456" y="689" on="0"/>
        <pt x="511" y="648" on="0"/>
        <pt x="544" y="582" on="0"/>
        <pt x="544" y="535" on="1"/>
        <pt x="544" y="447" on="0"/>
        <pt x="441" y="330" on="0"/>
        <pt x="343" y="313" on="1"/>
        <pt x="379" y="277" on="1"/>
        <pt x="487" y="0" on="1"/>
        <pt x="400" y="0" on="1"/>
        <pt x="280" y="302" on="1"/>
        <pt x="186" y="317" on="1"/>
        <pt x="120" y="0" on="1"/>
        <pt x="40" y="0" on="1"/>
      </contour>
      <contour>
        <pt x="341" y="636" on="1"/>
        <pt x="317" y="636" on="0"/>
        <pt x="269" y="633" on="0"/>
        <pt x="253" y="630" on="1"/>
        <pt x="198" y="372" on="1"/>
        <pt x="267" y="372" on="1"/>
        <pt x="303" y="372" on="0"/>
        <pt x="372" y="386" on="0"/>
        <pt x="427" y="422" on="0"/>
        <pt x="460" y="484" on="0"/>
        <pt x="460" y="531" on="1"/>
        <pt x="460" y="549" on="0"/>
        <pt x="446" y="586" on="0"/>
        <pt x="418" y="617" on="0"/>
        <pt x="372" y="636" on="0"/>
      </contour>
    </TTGlyph>
    <TTGlyph name="Racute" xMin="40" yMin="0" xMax="557" yMax="870">
      <component glyphName="R" x="0" y="0" flags="0x204"/>
      <component glyphName="uniF6C9" x="100" y="0" flags="0x4"/>
    </TTGlyph>
    <TTGlyph name="Rcaron" xMin="40" yMin="0" xMax="544" yMax="870">
      <component glyphName="R" x="0" y="0" flags="0x204"/>
      <component glyphName="uniF6CA" x="13" y="0" flags="0x4"/>
    </TTGlyph>
    <TTGlyph name="Rcommaaccent" xMin="40" yMin="-245" xMax="544" yMax="708">
      <component glyphName="R" x="0" y="0" flags="0x204"/>
      <component glyphName="uniF6C3" x="160" y="0" flags="0x4"/>
    </TTGlyph>
    <TTGlyph name="S" xMin="17" yMin="-12" xMax="561" yMax="712">
      <contour>
        <pt x="388" y="180" on="1"/>
        <pt x="388" y="216" on="0"/>
        <pt x="351" y="266" on="0"/>
        <pt x="295" y="307" on="0"/>
        <pt x="230" y="345" on="0"/>
        <pt x="174" y="395" on="0"/>
        <pt x="137" y="463" on="0"/>
        <pt x="137" y="513" on="1"/>
        <pt x="137" y="566" on="0"/>
        <pt x="176" y="642" on="0"/>
        <pt x="243" y="690" on="0"/>
        <pt x="334" y="712" on="0"/>
        <pt x="385" y="712" on="1"/>
        <pt x="443" y="712" on="0"/>
        <pt x="535" y="694" on="0"/>
        <pt x="561" y="680" on="1"/>
        <pt x="521" y="609" on="1"/>
        <pt x="501" y="620" on="0"/>
        <pt x="422" y="640" on="0"/>
        <pt x="370" y="640" on="1"/>
        <pt x="304" y="640" on="0"/>
        <pt x="221" y="580" on="0"/>
        <pt x="221" y="523" on="1"/>
        <pt x="221" y="486" on="0"/>
        <pt x="258" y="435" on="0"/>
        <pt x="314" y="394" on="0"/>
        <pt x="379" y="356" on="0"/>
        <pt x="435" y="307" on="0"/>
        <pt x="472" y="239" on="0"/>
        <pt x="472" y="190" on="1"/>
        <pt x="472" y="93" on="0"/>
        <pt x="332" y="-12" on="0"/>
        <pt x="201" y="-12" on="1"/>
        <pt x="134" y="-12" on="0"/>
        <pt x="41" y="11" on="0"/>
        <pt x="17" y="25" on="1"/>
        <pt x="58" y="98" on="1"/>
        <pt x="81" y="85" on="0"/>
        <pt x="160" y="60" on="0"/>
        <pt x="214" y="60" on="1"/>
        <pt x="245" y="60" on="0"/>
        <pt x="307" y="71" on="0"/>
        <pt x="357" y="99" on="0"/>
        <pt x="388" y="145" on="0"/>
      </contour>
    </TTGlyph>
    <TTGlyph name="Sacute" xMin="17" yMin="-12" xMax="582" yMax="870">
      <component glyphName="S" x="0" y="0" flags="0x204"/>
      <component glyphName="uniF6C9" x="125" y="0" flags="0x4"/>
    </TTGlyph>
    <TTGlyph name="Scaron" xMin="17" yMin="-12" xMax="572" yMax="870">
      <component glyphName="S" x="0" y="0" flags="0x204"/>
      <component glyphName="uniF6CA" x="56" y="0" flags="0x4"/>
    </TTGlyph>
    <TTGlyph name="Scedilla" xMin="20" yMin="-209" xMax="564" yMax="712">
      <contour>
        <pt x="391" y="180" on="1"/>
        <pt x="391" y="216" on="0"/>
        <pt x="354" y="266" on="0"/>
        <pt x="298" y="307" on="0"/>
        <pt x="233" y="345" on="0"/>
        <pt x="177" y="395" on="0"/>
        <pt x="140" y="463" on="0"/>
        <pt x="140" y="513" on="1"/>
        <pt x="140" y="566" on="0"/>
        <pt x="179" y="642" on="0"/>
        <pt x="246" y="690" on="0"/>
        <pt x="337" y="712" on="0"/>
        <pt x="388" y="712" on="1"/>
        <pt x="446" y="712" on="0"/>
        <pt x="538" y="694" on="0"/>
        <pt x="564" y="680" on="1"/>
        <pt x="524" y="609" on="1"/>
        <pt x="504" y="620" on="0"/>
        <pt x="425" y="640" on="0"/>
        <pt x="373" y="640" on="1"/>
        <pt x="307" y="640" on="0"/>
        <pt x="224" y="580" on="0"/>
        <pt x="224" y="523" on="1"/>
        <pt x="224" y="486" on="0"/>
        <pt x="261" y="435" on="0"/>
        <pt x="317" y="394" on="0"/>
        <pt x="382" y="356" on="0"/>
        <pt x="438" y="307" on="0"/>
        <pt x="475" y="239" on="0"/>
        <pt x="475" y="190" on="1"/>
        <pt x="475" y="101" on="0"/>
        <pt x="355" y="-3" on="0"/>
        <pt x="243" y="-11" on="1"/>
        <pt x="219" y="-43" on="1"/>
        <pt x="246" y="-46" on="0"/>
        <pt x="281" y="-81" on="0"/>
        <pt x="281" y="-113" on="1"/>
        <pt x="281" y="-155" on="0"/>
        <pt x="218" y="-209" on="0"/>
        <pt x="155" y="-209" on="1"/>
        <pt x="143" y="-209" on="0"/>
        <pt x="116" y="-206" on="0"/>
        <pt x="102" y="-204" on="1"/>
        <pt x="119" y="-165" on="1"/>
        <pt x="124" y="-166" on="0"/>
        <pt x="135" y="-166" on="0"/>
        <pt x="140" y="-166" on="1"/>
        <pt x="161" y="-166" on="0"/>
        <pt x="189" y="-158" on="0"/>
        <pt x="205" y="-147" on="0"/>
        <pt x="211" y="-133" on="0"/>
        <pt x="211" y="-127" on="1"/>
        <pt x="211" y="-108" on="0"/>
        <pt x="169" y="-90" on="0"/>
        <pt x="134" y="-90" on="1"/>
        <pt x="190" y="-12" on="1"/>
        <pt x="128" y="-10" on="0"/>
        <pt x="43" y="11" on="0"/>
        <pt x="20" y="25" on="1"/>
        <pt x="61" y="98" on="1"/>
        <pt x="84" y="85" on="0"/>
        <pt x="163" y="60" on="0"/>
        <pt x="217" y="60" on="1"/>
        <pt x="248" y="60" on="0"/>
        <pt x="310" y="71" on="0"/>
        <pt x="360" y="99" on="0"/>
        <pt x="391" y="145" on="0"/>
      </contour>
    </TTGlyph>
    <TTGlyph name="Scircumflex" xMin="20" yMin="-12" xMax="564" yMax="870">
      <component glyphName="S" x="3" y="0" flags="0x204"/>
      <component glyphName="uniF408" x="41" y="0" flags="0x4"/>
    </TTGlyph>
    <TTGlyph name="Scommaaccent" xMin="20" yMin="-245" xMax="564" yMax="712">
      <component glyphName="S" x="3" y="0" flags="0x204"/>
      <component glyphName="uniF6C3" x="131" y="0" flags="0x4"/>
    </TTGlyph>
    <TTGlyph name="T" xMin="110" yMin="0" xMax="617" yMax="700">
      <contour>
        <pt x="602" y="626" on="1"/>
        <pt x="395" y="626" on="1"/>
        <pt x="263" y="0" on="1"/>
        <pt x="183" y="0" on="1"/>
        <pt x="315" y="626" on="1"/>
        <pt x="110" y="626" on="1"/>
        <pt x="125" y="700" on="1"/>
        <pt x="617" y="700" on="1"/>
      </contour>
    </TTGlyph>
    <TTGlyph name="Tcaron" xMin="110" yMin="0" xMax="617" yMax="870">
      <component glyphName="T" x="0" y="0" flags="0x204"/>
      <component glyphName="uniF6CA" x="39" y="0" flags="0x4"/>
    </TTGlyph>
    <TTGlyph name="Tcedilla" xMin="102" yMin="-209" xMax="617" yMax="700">
      <contour>
        <pt x="602" y="626" on="1"/>
        <pt x="395" y="626" on="1"/>
        <pt x="263" y="0" on="1"/>
        <pt x="252" y="0" on="1"/>
        <pt x="219" y="-43" on="1"/>
        <pt x="246" y="-46" on="0"/>
        <pt x="281" y="-81" on="0"/>
        <pt x="281" y="-113" on="1"/>
        <pt x="281" y="-155" on="0"/>
        <pt x="218" y="-209" on="0"/>
        <pt x="155" y="-209" on="1"/>
        <pt x="143" y="-209" on="0"/>
        <pt x="116" y="-206" on="0"/>
        <pt x="102" y="-204" on="1"/>
        <pt x="119" y="-165" on="1"/>
        <pt x="124" y="-166" on="0"/>
        <pt x="135" y="-166" on="0"/>
        <pt x="140" y="-166" on="1"/>
        <pt x="161" y="-166" on="0"/>
        <pt x="189" y="-158" on="0"/>
        <pt x="205" y="-147" on="0"/>
        <pt x="211" y="-133" on="0"/>
        <pt x="211" y="-127" on="1"/>
        <pt x="211" y="-90" on="0"/>
        <pt x="134" y="-90" on="1"/>
        <pt x="199" y="0" on="1"/>
        <pt x="183" y="0" on="1"/>
        <pt x="315" y="626" on="1"/>
        <pt x="110" y="626" on="1"/>
        <pt x="125" y="700" on="1"/>
        <pt x="617" y="700" on="1"/>
      </contour>
    </TTGlyph>
    <TTGlyph name="Tcommaaccent" xMin="110" yMin="-245" xMax="617" yMax="700">
      <component glyphName="T" x="0" y="0" flags="0x204"/>
      <component glyphName="uniF6C3" x="140" y="0" flags="0x4"/>
    </TTGlyph>
    <TTGlyph name="Thorn" xMin="40" yMin="0" xMax="549" yMax="700">
      <contour>
        <pt x="189" y="700" on="1"/>
        <pt x="268" y="700" on="1"/>
        <pt x="252" y="625" on="1"/>
        <pt x="292" y="628" on="0"/>
        <pt x="333" y="628" on="1"/>
        <pt x="379" y="628" on="0"/>
        <pt x="457" y="608" on="0"/>
        <pt x="515" y="564" on="0"/>
        <pt x="549" y="495" on="0"/>
        <pt x="549" y="447" on="1"/>
        <pt x="549" y="371" on="0"/>
        <pt x="495" y="269" on="0"/>
        <pt x="405" y="207" on="0"/>
        <pt x="293" y="181" on="0"/>
        <pt x="236" y="181" on="1"/>
        <pt x="231" y="181" on="0"/>
        <pt x="210" y="181" on="0"/>
        <pt x="186" y="182" on="0"/>
        <pt x="164" y="184" on="0"/>
        <pt x="159" y="185" on="1"/>
        <pt x="120" y="0" on="1"/>
        <pt x="40" y="0" on="1"/>
      </contour>
      <contour>
        <pt x="316" y="555" on="1"/>
        <pt x="293" y="555" on="0"/>
        <pt x="250" y="552" on="0"/>
        <pt x="236" y="549" on="1"/>
        <pt x="175" y="259" on="1"/>
        <pt x="179" y="257" on="0"/>
        <pt x="198" y="256" on="0"/>
        <pt x="219" y="254" on="0"/>
        <pt x="239" y="254" on="0"/>
        <pt x="244" y="254" on="1"/>
        <pt x="287" y="254" on="0"/>
        <pt x="367" y="272" on="0"/>
        <pt x="429" y="315" on="0"/>
        <pt x="465" y="386" on="0"/>
        <pt x="465" y="439" on="1"/>
        <pt x="465" y="475" on="0"/>
        <pt x="441" y="520" on="0"/>
        <pt x="400" y="545" on="0"/>
        <pt x="346" y="555" on="0"/>
      </contour>
    </TTGlyph>
    <TTGlyph name="U" xMin="87" yMin="-9" xMax="649" yMax="700">
      <contour>
        <pt x="573" y="700" on="1"/>
        <pt x="649" y="700" on="1"/>
        <pt x="551" y="233" on="1"/>
        <pt x="537" y="169" on="0"/>
        <pt x="495" y="77" on="0"/>
        <pt x="432" y="19" on="0"/>
        <pt x="344" y="-9" on="0"/>
        <pt x="286" y="-9" on="1"/>
        <pt x="231" y="-9" on="0"/>
        <pt x="155" y="16" on="0"/>
        <pt x="108" y="61" on="0"/>
        <pt x="87" y="126" on="0"/>
        <pt x="87" y="165" on="1"/>
        <pt x="87" y="206" on="0"/>
        <pt x="98" y="258" on="1"/>
        <pt x="191" y="700" on="1"/>
        <pt x="271" y="700" on="1"/>
        <pt x="178" y="257" on="1"/>
        <pt x="167" y="213" on="0"/>
        <pt x="167" y="177" on="1"/>
        <pt x="167" y="114" on="0"/>
        <pt x="233" y="65" on="0"/>
        <pt x="298" y="65" on="1"/>
        <pt x="337" y="65" on="0"/>
        <pt x="396" y="87" on="0"/>
        <pt x="439" y="133" on="0"/>
        <pt x="468" y="205" on="0"/>
        <pt x="479" y="256" on="1"/>
      </contour>
    </TTGlyph>
    <TTGlyph name="Uacute" xMin="87" yMin="-9" xMax="649" yMax="870">
      <component glyphName="U" x="0" y="0" flags="0x204"/>
      <component glyphName="uniF6C9" x="167" y="0" flags="0x4"/>
    </TTGlyph>
    <TTGlyph name="Ubreve" xMin="87" yMin="-9" xMax="649" yMax="871">
      <component glyphName="U" x="0" y="0" flags="0x204"/>
      <component glyphName="uniF406" x="149" y="0" flags="0x4"/>
    </TTGlyph>
    <TTGlyph name="Ucircumflex" xMin="87" yMin="-9" xMax="649" yMax="870">
      <component glyphName="U" x="0" y="0" flags="0x204"/>
      <component glyphName="uniF408" x="82" y="0" flags="0x4"/>
    </TTGlyph>
    <TTGlyph name="Udieresis" xMin="87" yMin="-9" xMax="649" yMax="841">
      <component glyphName="U" x="0" y="0" flags="0x204"/>
      <component glyphName="uniF6CB" x="186" y="0" flags="0x4"/>
    </TTGlyph>
    <TTGlyph name="Ugrave" xMin="87" yMin="-9" xMax="649" yMax="870">
      <component glyphName="U" x="0" y="0" flags="0x204"/>
      <component glyphName="uniF6CE" x="157" y="0" flags="0x4"/>
    </TTGlyph>
    <TTGlyph name="Uhungarumlaut" xMin="87" yMin="-9" xMax="649" yMax="850">
      <component glyphName="U" x="0" y="0" flags="0x204"/>
      <component glyphName="uniF6CF" x="53" y="0" flags="0x4"/>
    </TTGlyph>
    <TTGlyph name="Umacron" xMin="87" yMin="-9" xMax="649" yMax="843">
      <component glyphName="U" x="0" y="0" flags="0x204"/>
      <component glyphName="uniF6D0" x="128" y="0" flags="0x4"/>
    </TTGlyph>
    <TTGlyph name="Uogonek" xMin="87" yMin="-195" xMax="649" yMax="700">
      <contour>
        <pt x="573" y="700" on="1"/>
        <pt x="649" y="700" on="1"/>
        <pt x="551" y="233" on="1"/>
        <pt x="531" y="136" on="0"/>
        <pt x="454" y="25" on="0"/>
        <pt x="388" y="4" on="1"/>
        <pt x="354" y="-12" on="0"/>
        <pt x="308" y="-61" on="0"/>
        <pt x="307" y="-96" on="1"/>
        <pt x="307" y="-113" on="0"/>
        <pt x="324" y="-136" on="0"/>
        <pt x="347" y="-136" on="1"/>
        <pt x="366" y="-136" on="0"/>
        <pt x="389" y="-128" on="1"/>
        <pt x="390" y="-172" on="1"/>
        <pt x="372" y="-184" on="0"/>
        <pt x="324" y="-195" on="0"/>
        <pt x="304" y="-195" on="1"/>
        <pt x="271" y="-195" on="0"/>
        <pt x="226" y="-159" on="0"/>
        <pt x="225" y="-122" on="1"/>
        <pt x="225" y="-85" on="0"/>
        <pt x="271" y="-27" on="0"/>
        <pt x="304" y="-8" on="1"/>
        <pt x="299" y="-8" on="0"/>
        <pt x="291" y="-9" on="0"/>
        <pt x="286" y="-9" on="1"/>
        <pt x="231" y="-9" on="0"/>
        <pt x="155" y="16" on="0"/>
        <pt x="108" y="61" on="0"/>
        <pt x="87" y="126" on="0"/>
        <pt x="87" y="165" on="1"/>
        <pt x="87" y="206" on="0"/>
        <pt x="98" y="258" on="1"/>
        <pt x="191" y="700" on="1"/>
        <pt x="271" y="700" on="1"/>
        <pt x="178" y="257" on="1"/>
        <pt x="167" y="213" on="0"/>
        <pt x="167" y="177" on="1"/>
        <pt x="167" y="114" on="0"/>
        <pt x="233" y="65" on="0"/>
        <pt x="298" y="65" on="1"/>
        <pt x="337" y="65" on="0"/>
        <pt x="396" y="87" on="0"/>
        <pt x="439" y="133" on="0"/>
        <pt x="468" y="205" on="0"/>
        <pt x="479" y="256" on="1"/>
      </contour>
    </TTGlyph>
    <TTGlyph name="Uring" xMin="87" yMin="-9" xMax="649" yMax="853">
      <component glyphName="U" x="0" y="0" flags="0x204"/>
      <component glyphName="uniF40C" x="110" y="0" flags="0x4"/>
    </TTGlyph>
    <TTGlyph name="V" xMin="104" yMin="-11" xMax="651" yMax="700">
      <contour>
        <pt x="253" y="221" on="1"/>
        <pt x="253" y="114" on="1"/>
        <pt x="255" y="114" on="1"/>
        <pt x="300" y="223" on="1"/>
        <pt x="565" y="700" on="1"/>
        <pt x="651" y="700" on="1"/>
        <pt x="249" y="-11" on="1"/>
        <pt x="212" y="-11" on="1"/>
        <pt x="104" y="700" on="1"/>
        <pt x="186" y="700" on="1"/>
      </contour>
    </TTGlyph>
    <TTGlyph name="W" xMin="114" yMin="-11" xMax="887" yMax="700">
      <contour>
        <pt x="214" y="233" on="1"/>
        <pt x="205" y="117" on="1"/>
        <pt x="206" y="117" on="1"/>
        <pt x="245" y="235" on="1"/>
        <pt x="480" y="700" on="1"/>
        <pt x="523" y="700" on="1"/>
        <pt x="560" y="233" on="1"/>
        <pt x="551" y="117" on="1"/>
        <pt x="552" y="117" on="1"/>
        <pt x="592" y="235" on="1"/>
        <pt x="805" y="700" on="1"/>
        <pt x="887" y="700" on="1"/>
        <pt x="551" y="-11" on="1"/>
        <pt x="507" y="-11" on="1"/>
        <pt x="469" y="458" on="1"/>
        <pt x="475" y="564" on="1"/>
        <pt x="471" y="564" on="1"/>
        <pt x="431" y="457" on="1"/>
        <pt x="197" y="-11" on="1"/>
        <pt x="153" y="-11" on="1"/>
        <pt x="114" y="700" on="1"/>
        <pt x="196" y="700" on="1"/>
      </contour>
    </TTGlyph>
    <TTGlyph name="X" xMin="-7" yMin="0" xMax="666" yMax="700">
      <contour>
        <pt x="289" y="358" on="1"/>
        <pt x="159" y="700" on="1"/>
        <pt x="246" y="700" on="1"/>
        <pt x="332" y="463" on="1"/>
        <pt x="344" y="406" on="1"/>
        <pt x="378" y="463" on="1"/>
        <pt x="569" y="700" on="1"/>
        <pt x="666" y="700" on="1"/>
        <pt x="387" y="361" on="1"/>
        <pt x="529" y="0" on="1"/>
        <pt x="442" y="0" on="1"/>
        <pt x="346" y="251" on="1"/>
        <pt x="332" y="311" on="1"/>
        <pt x="294" y="251" on="1"/>
        <pt x="90" y="0" on="1"/>
        <pt x="-7" y="0" on="1"/>
      </contour>
    </TTGlyph>
    <TTGlyph name="Y" xMin="108" yMin="0" xMax="625" yMax="700">
      <contour>
        <pt x="241" y="278" on="1"/>
        <pt x="108" y="700" on="1"/>
        <pt x="195" y="700" on="1"/>
        <pt x="284" y="394" on="1"/>
        <pt x="287" y="333" on="1"/>
        <pt x="288" y="333" on="1"/>
        <pt x="318" y="396" on="1"/>
        <pt x="535" y="700" on="1"/>
        <pt x="625" y="700" on="1"/>
        <pt x="321" y="279" on="1"/>
        <pt x="262" y="0" on="1"/>
        <pt x="182" y="0" on="1"/>
      </contour>
    </TTGlyph>
    <TTGlyph name="Yacute" xMin="108" yMin="0" xMax="625" yMax="870">
      <component glyphName="Y" x="0" y="0" flags="0x204"/>
      <component glyphName="uniF6C9" x="133" y="0" flags="0x4"/>
    </TTGlyph>
    <TTGlyph name="Ydieresis" xMin="108" yMin="0" xMax="625" yMax="841">
      <component glyphName="Y" x="0" y="0" flags="0x204"/>
      <component glyphName="uniF6CB" x="142" y="0" flags="0x4"/>
    </TTGlyph>
    <TTGlyph name="Z" xMin="-1" yMin="0" xMax="594" yMax="700">
      <contour>
        <pt x="14" y="75" on="1"/>
        <pt x="449" y="586" on="1"/>
        <pt x="498" y="626" on="1"/>
        <pt x="132" y="626" on="1"/>
        <pt x="147" y="700" on="1"/>
        <pt x="594" y="700" on="1"/>
        <pt x="579" y="625" on="1"/>
        <pt x="141" y="111" on="1"/>
        <pt x="94" y="74" on="1"/>
        <pt x="461" y="74" on="1"/>
        <pt x="446" y="0" on="1"/>
        <pt x="-1" y="0" on="1"/>
      </contour>
    </TTGlyph>
    <TTGlyph name="Zacute" xMin="-1" yMin="0" xMax="594" yMax="870">
      <component glyphName="Z" x="0" y="0" flags="0x204"/>
      <component glyphName="uniF6C9" x="109" y="0" flags="0x4"/>
    </TTGlyph>
    <TTGlyph name="Zcaron" xMin="-1" yMin="0" xMax="594" yMax="870">
      <component glyphName="Z" x="0" y="0" flags="0x204"/>
      <component glyphName="uniF6CA" x="22" y="0" flags="0x4"/>
    </TTGlyph>
    <TTGlyph name="Zdotaccent" xMin="-1" yMin="0" xMax="594" yMax="849">
      <component glyphName="Z" x="0" y="0" flags="0x204"/>
      <component glyphName="uniF40B" x="120" y="0" flags="0x4"/>
    </TTGlyph>
    <TTGlyph name="a" xMin="45" yMin="-12" xMax="477" yMax="513">
      <contour>
        <pt x="414" y="197" on="1"/>
        <pt x="406" y="160" on="0"/>
        <pt x="400" y="84" on="0"/>
        <pt x="400" y="51" on="1"/>
        <pt x="400" y="36" on="0"/>
        <pt x="400" y="9" on="0"/>
        <pt x="402" y="-2" on="1"/>
        <pt x="346" y="-2" on="1"/>
        <pt x="332" y="85" on="1"/>
        <pt x="328" y="85" on="1"/>
        <pt x="316" y="68" on="0"/>
        <pt x="281" y="33" on="0"/>
        <pt x="239" y="5" on="0"/>
        <pt x="191" y="-12" on="0"/>
        <pt x="164" y="-12" on="1"/>
        <pt x="45" y="-12" on="0"/>
        <pt x="45" y="143" on="1"/>
        <pt x="45" y="207" on="0"/>
        <pt x="78" y="339" on="0"/>
        <pt x="147" y="445" on="0"/>
        <pt x="256" y="513" on="0"/>
        <pt x="333" y="513" on="1"/>
        <pt x="361" y="513" on="0"/>
        <pt x="442" y="500" on="0"/>
        <pt x="477" y="489" on="1"/>
      </contour>
      <contour>
        <pt x="187" y="52" on="1"/>
        <pt x="211" y="52" on="0"/>
        <pt x="255" y="75" on="0"/>
        <pt x="294" y="109" on="0"/>
        <pt x="324" y="148" on="0"/>
        <pt x="333" y="165" on="1"/>
        <pt x="389" y="435" on="1"/>
        <pt x="359" y="449" on="0"/>
        <pt x="313" y="449" on="1"/>
        <pt x="267" y="449" on="0"/>
        <pt x="197" y="395" on="0"/>
        <pt x="149" y="308" on="0"/>
        <pt x="125" y="198" on="0"/>
        <pt x="125" y="143" on="1"/>
        <pt x="125" y="105" on="0"/>
        <pt x="155" y="52" on="0"/>
      </contour>
    </TTGlyph>
    <TTGlyph name="aacute" xMin="45" yMin="-12" xMax="477" yMax="720">
      <component glyphName="a" x="0" y="0" flags="0x204"/>
      <component glyphName="acute" x="164" y="0" flags="0x4"/>
    </TTGlyph>
    <TTGlyph name="abreve" xMin="45" yMin="-12" xMax="505" yMax="720">
      <component glyphName="a" x="0" y="0" flags="0x204"/>
      <component glyphName="breve" x="105" y="0" flags="0x4"/>
    </TTGlyph>
    <TTGlyph name="acircumflex" xMin="45" yMin="-12" xMax="477" yMax="732">
      <component glyphName="a" x="0" y="0" flags="0x204"/>
      <component glyphName="circumflex" x="2" y="0" flags="0x4"/>
    </TTGlyph>
    <TTGlyph name="acute" xMin="140" yMin="571" xMax="312" yMax="720">
      <contour>
        <pt x="228" y="720" on="1"/>
        <pt x="312" y="720" on="1"/>
        <pt x="307" y="699" on="1"/>
        <pt x="184" y="571" on="1"/>
        <pt x="140" y="571" on="1"/>
      </contour>
    </TTGlyph>
    <TTGlyph name="acutecomb" xMin="-154" yMin="571" xMax="18" yMax="720">
      <component glyphName="acute" x="-294" y="0" flags="0x4"/>
    </TTGlyph>
    <TTGlyph name="adieresis" xMin="45" yMin="-12" xMax="477" yMax="704">
      <component glyphName="a" x="0" y="0" flags="0x204"/>
      <component glyphName="dieresis" x="97" y="0" flags="0x4"/>
    </TTGlyph>
    <TTGlyph name="ae" xMin="28" yMin="-12" xMax="745" yMax="512">
      <contour>
        <pt x="176" y="56" on="1"/>
        <pt x="203" y="56" on="0"/>
        <pt x="252" y="82" on="0"/>
        <pt x="292" y="117" on="0"/>
        <pt x="321" y="152" on="0"/>
        <pt x="328" y="163" on="1"/>
        <pt x="336" y="231" on="1"/>
        <pt x="325" y="232" on="0"/>
        <pt x="301" y="233" on="0"/>
        <pt x="290" y="233" on="1"/>
        <pt x="252" y="233" on="0"/>
        <pt x="185" y="221" on="0"/>
        <pt x="136" y="195" on="0"/>
        <pt x="108" y="156" on="0"/>
        <pt x="108" y="128" on="1"/>
        <pt x="108" y="90" on="0"/>
        <pt x="143" y="56" on="0"/>
      </contour>
      <contour>
        <pt x="332" y="87" on="1"/>
        <pt x="300" y="48" on="0"/>
        <pt x="205" y="-8" on="0"/>
        <pt x="148" y="-8" on="1"/>
        <pt x="117" y="-8" on="0"/>
        <pt x="72" y="12" on="0"/>
        <pt x="42" y="45" on="0"/>
        <pt x="28" y="88" on="0"/>
        <pt x="28" y="111" on="1"/>
        <pt x="28" y="162" on="0"/>
        <pt x="72" y="231" on="0"/>
        <pt x="147" y="272" on="0"/>
        <pt x="247" y="290" on="0"/>
        <pt x="302" y="290" on="1"/>
        <pt x="313" y="290" on="0"/>
        <pt x="336" y="290" on="0"/>
        <pt x="347" y="289" on="1"/>
        <pt x="367" y="354" on="0"/>
        <pt x="367" y="386" on="1"/>
        <pt x="367" y="418" on="0"/>
        <pt x="329" y="444" on="0"/>
        <pt x="285" y="444" on="1"/>
        <pt x="269" y="444" on="0"/>
        <pt x="230" y="439" on="0"/>
        <pt x="190" y="429" on="0"/>
        <pt x="153" y="416" on="0"/>
        <pt x="138" y="409" on="1"/>
        <pt x="126" y="469" on="1"/>
        <pt x="168" y="492" on="0"/>
        <pt x="267" y="508" on="0"/>
        <pt x="318" y="508" on="1"/>
        <pt x="366" y="508" on="0"/>
        <pt x="427" y="474" on="0"/>
        <pt x="434" y="442" on="1"/>
        <pt x="466" y="479" on="0"/>
        <pt x="557" y="512" on="0"/>
        <pt x="599" y="512" on="1"/>
        <pt x="673" y="512" on="0"/>
        <pt x="745" y="447" on="0"/>
        <pt x="745" y="399" on="1"/>
        <pt x="745" y="346" on="0"/>
        <pt x="696" y="282" on="0"/>
        <pt x="608" y="246" on="0"/>
        <pt x="484" y="233" on="0"/>
        <pt x="410" y="232" on="1"/>
        <pt x="407" y="215" on="0"/>
        <pt x="403" y="185" on="0"/>
        <pt x="403" y="171" on="1"/>
        <pt x="403" y="116" on="0"/>
        <pt x="459" y="52" on="0"/>
        <pt x="526" y="52" on="1"/>
        <pt x="558" y="52" on="0"/>
        <pt x="627" y="77" on="0"/>
        <pt x="648" y="92" on="1"/>
        <pt x="665" y="38" on="1"/>
        <pt x="631" y="14" on="0"/>
        <pt x="538" y="-12" on="0"/>
        <pt x="490" y="-12" on="1"/>
        <pt x="432" y="-12" on="0"/>
        <pt x="353" y="41" on="0"/>
        <pt x="339" y="87" on="1"/>
      </contour>
      <contour>
        <pt x="587" y="448" on="1"/>
        <pt x="526" y="448" on="0"/>
        <pt x="444" y="368" on="0"/>
        <pt x="422" y="293" on="1"/>
        <pt x="471" y="293" on="0"/>
        <pt x="560" y="298" on="0"/>
        <pt x="628" y="317" on="0"/>
        <pt x="668" y="355" on="0"/>
        <pt x="668" y="388" on="1"/>
        <pt x="668" y="413" on="0"/>
        <pt x="635" y="448" on="0"/>
      </contour>
    </TTGlyph>
    <TTGlyph name="afii10017" xMin="-33" yMin="0" xMax="509" yMax="711">
      <component glyphName="A" x="0" y="0" flags="0x204"/>
    </TTGlyph>
    <TTGlyph name="afii10018" xMin="40" yMin="-8" xMax="547" yMax="700">
      <contour>
        <pt x="187" y="700" on="1"/>
        <pt x="547" y="700" on="1"/>
        <pt x="532" y="626" on="1"/>
        <pt x="250" y="626" on="1"/>
        <pt x="206" y="416" on="1"/>
        <pt x="223" y="419" on="0"/>
        <pt x="271" y="425" on="0"/>
        <pt x="294" y="425" on="1"/>
        <pt x="393" y="425" on="0"/>
        <pt x="498" y="334" on="0"/>
        <pt x="498" y="253" on="1"/>
        <pt x="498" y="180" on="0"/>
        <pt x="445" y="80" on="0"/>
        <pt x="360" y="19" on="0"/>
        <pt x="253" y="-8" on="0"/>
        <pt x="199" y="-8" on="1"/>
        <pt x="183" y="-8" on="0"/>
        <pt x="143" y="-7" on="0"/>
        <pt x="117" y="-5" on="1"/>
        <pt x="97" y="-3" on="0"/>
        <pt x="57" y="2" on="0"/>
        <pt x="40" y="7" on="1"/>
      </contour>
      <contour>
        <pt x="224" y="64" on="1"/>
        <pt x="258" y="64" on="0"/>
        <pt x="326" y="84" on="0"/>
        <pt x="380" y="126" on="0"/>
        <pt x="414" y="193" on="0"/>
        <pt x="414" y="240" on="1"/>
        <pt x="414" y="301" on="0"/>
        <pt x="337" y="353" on="0"/>
        <pt x="271" y="353" on="1"/>
        <pt x="263" y="353" on="0"/>
        <pt x="239" y="351" on="0"/>
        <pt x="216" y="349" on="0"/>
        <pt x="196" y="346" on="0"/>
        <pt x="191" y="345" on="1"/>
        <pt x="133" y="70" on="1"/>
        <pt x="145" y="66" on="0"/>
        <pt x="200" y="64" on="0"/>
      </contour>
    </TTGlyph>
    <TTGlyph name="afii10019" xMin="40" yMin="-8" xMax="561" yMax="708">
      <component glyphName="B" x="0" y="0" flags="0x204"/>
    </TTGlyph>
    <TTGlyph name="afii10020" xMin="40" yMin="0" xMax="544" yMax="700">
      <contour>
        <pt x="529" y="626" on="1"/>
        <pt x="252" y="626" on="1"/>
        <pt x="120" y="0" on="1"/>
        <pt x="40" y="0" on="1"/>
        <pt x="189" y="700" on="1"/>
        <pt x="544" y="700" on="1"/>
      </contour>
    </TTGlyph>
    <TTGlyph name="afii10021" xMin="-63" yMin="-129" xMax="629" yMax="700">
      <contour>
        <pt x="541" y="-129" on="1"/>
        <pt x="486" y="-129" on="1"/>
        <pt x="499" y="0" on="1"/>
        <pt x="33" y="0" on="1"/>
        <pt x="-9" y="-129" on="1"/>
        <pt x="-63" y="-129" on="1"/>
        <pt x="-21" y="74" on="1"/>
        <pt x="46" y="74" on="1"/>
        <pt x="56" y="85" on="0"/>
        <pt x="108" y="163" on="0"/>
        <pt x="174" y="312" on="0"/>
        <pt x="245" y="540" on="0"/>
        <pt x="274" y="700" on="1"/>
        <pt x="349" y="700" on="1"/>
        <pt x="629" y="700" on="1"/>
        <pt x="496" y="74" on="1"/>
        <pt x="584" y="74" on="1"/>
      </contour>
      <contour>
        <pt x="417" y="74" on="1"/>
        <pt x="534" y="626" on="1"/>
        <pt x="334" y="626" on="1"/>
        <pt x="285" y="407" on="0"/>
        <pt x="182" y="139" on="0"/>
        <pt x="136" y="74" on="1"/>
      </contour>
    </TTGlyph>
    <TTGlyph name="afii10022" xMin="40" yMin="0" xMax="550" yMax="700">
      <component glyphName="E" x="0" y="0" flags="0x204"/>
    </TTGlyph>
    <TTGlyph name="afii10023" xMin="40" yMin="0" xMax="550" yMax="841">
      <component glyphName="E" x="0" y="0" flags="0x204"/>
      <component glyphName="uniF6CB" x="130" y="0" flags="0x4"/>
    </TTGlyph>
    <TTGlyph name="afii10024" xMin="-44" yMin="0" xMax="843" yMax="700">
      <contour>
        <pt x="446" y="700" on="1"/>
        <pt x="521" y="700" on="1"/>
        <pt x="452" y="374" on="1"/>
        <pt x="489" y="388" on="1"/>
        <pt x="746" y="700" on="1"/>
        <pt x="843" y="700" on="1"/>
        <pt x="587" y="396" on="1"/>
        <pt x="540" y="364" on="1"/>
        <pt x="580" y="323" on="1"/>
        <pt x="724" y="0" on="1"/>
        <pt x="636" y="0" on="1"/>
        <pt x="491" y="324" on="1"/>
        <pt x="441" y="324" on="1"/>
        <pt x="373" y="0" on="1"/>
        <pt x="298" y="0" on="1"/>
        <pt x="369" y="336" on="1"/>
        <pt x="332" y="323" on="1"/>
        <pt x="56" y="0" on="1"/>
        <pt x="-44" y="0" on="1"/>
        <pt x="231" y="313" on="1"/>
        <pt x="284" y="351" on="1"/>
        <pt x="250" y="386" on="1"/>
        <pt x="117" y="700" on="1"/>
        <pt x="205" y="700" on="1"/>
        <pt x="331" y="386" on="1"/>
        <pt x="379" y="386" on="1"/>
      </contour>
    </TTGlyph>
    <TTGlyph name="afii10025" xMin="6" yMin="-12" xMax="521" yMax="712">
      <contour>
        <pt x="164" y="331" on="1"/>
        <pt x="179" y="400" on="1"/>
        <pt x="193" y="400" on="1"/>
        <pt x="211" y="400" on="0"/>
        <pt x="264" y="403" on="0"/>
        <pt x="280" y="405" on="1"/>
        <pt x="307" y="408" on="0"/>
        <pt x="363" y="427" on="0"/>
        <pt x="408" y="461" on="0"/>
        <pt x="437" y="511" on="0"/>
        <pt x="437" y="545" on="1"/>
        <pt x="437" y="590" on="0"/>
        <pt x="373" y="640" on="0"/>
        <pt x="318" y="640" on="1"/>
        <pt x="267" y="640" on="0"/>
        <pt x="199" y="623" on="0"/>
        <pt x="171" y="613" on="1"/>
        <pt x="163" y="678" on="1"/>
        <pt x="186" y="689" on="0"/>
        <pt x="279" y="712" on="0"/>
        <pt x="340" y="712" on="1"/>
        <pt x="378" y="712" on="0"/>
        <pt x="444" y="693" on="0"/>
        <pt x="493" y="657" on="0"/>
        <pt x="521" y="603" on="0"/>
        <pt x="521" y="567" on="1"/>
        <pt x="521" y="524" on="0"/>
        <pt x="494" y="458" on="0"/>
        <pt x="449" y="410" on="0"/>
        <pt x="389" y="381" on="0"/>
        <pt x="356" y="376" on="1"/>
        <pt x="356" y="372" on="1"/>
        <pt x="377" y="367" on="0"/>
        <pt x="418" y="346" on="0"/>
        <pt x="451" y="310" on="0"/>
        <pt x="471" y="257" on="0"/>
        <pt x="471" y="220" on="1"/>
        <pt x="471" y="154" on="0"/>
        <pt x="417" y="65" on="0"/>
        <pt x="331" y="11" on="0"/>
        <pt x="226" y="-12" on="0"/>
        <pt x="174" y="-12" on="1"/>
        <pt x="111" y="-12" on="0"/>
        <pt x="30" y="3" on="0"/>
        <pt x="6" y="14" on="1"/>
        <pt x="42" y="87" on="1"/>
        <pt x="62" y="76" on="0"/>
        <pt x="136" y="60" on="0"/>
        <pt x="192" y="60" on="1"/>
        <pt x="226" y="60" on="0"/>
        <pt x="296" y="77" on="0"/>
        <pt x="352" y="115" on="0"/>
        <pt x="387" y="176" on="0"/>
        <pt x="387" y="220" on="1"/>
        <pt x="387" y="250" on="0"/>
        <pt x="366" y="290" on="0"/>
        <pt x="330" y="316" on="0"/>
        <pt x="284" y="328" on="0"/>
        <pt x="260" y="330" on="1"/>
        <pt x="249" y="331" on="0"/>
        <pt x="227" y="331" on="0"/>
        <pt x="216" y="331" on="1"/>
      </contour>
    </TTGlyph>
    <TTGlyph name="afii10026" xMin="40" yMin="0" xMax="674" yMax="700">
      <contour>
        <pt x="545" y="468" on="1"/>
        <pt x="569" y="549" on="1"/>
        <pt x="566" y="549" on="1"/>
        <pt x="507" y="465" on="1"/>
        <pt x="91" y="0" on="1"/>
        <pt x="40" y="0" on="1"/>
        <pt x="189" y="700" on="1"/>
        <pt x="269" y="700" on="1"/>
        <pt x="168" y="224" on="1"/>
        <pt x="143" y="148" on="1"/>
        <pt x="147" y="148" on="1"/>
        <pt x="206" y="230" on="1"/>
        <pt x="623" y="700" on="1"/>
        <pt x="674" y="700" on="1"/>
        <pt x="526" y="0" on="1"/>
        <pt x="446" y="0" on="1"/>
      </contour>
    </TTGlyph>
    <TTGlyph name="afii10027" xMin="40" yMin="0" xMax="674" yMax="870">
      <component glyphName="afii10026" x="0" y="0" flags="0x204"/>
      <component glyphName="uniF6D1" x="171" y="0" flags="0x4"/>
    </TTGlyph>
    <TTGlyph name="afii10028" xMin="40" yMin="0" xMax="624" yMax="700">
      <component glyphName="K" x="0" y="0" flags="0x204"/>
    </TTGlyph>
    <TTGlyph name="afii10029" xMin="-42" yMin="-5" xMax="620" yMax="700">
      <contour>
        <pt x="525" y="626" on="1"/>
        <pt x="329" y="626" on="1"/>
        <pt x="283" y="427" on="0"/>
        <pt x="198" y="162" on="0"/>
        <pt x="151" y="87" on="1"/>
        <pt x="120" y="38" on="0"/>
        <pt x="53" y="-5" on="0"/>
        <pt x="16" y="-5" on="1"/>
        <pt x="-1" y="-5" on="0"/>
        <pt x="-31" y="0" on="0"/>
        <pt x="-42" y="5" on="1"/>
        <pt x="-15" y="77" on="1"/>
        <pt x="-5" y="74" on="0"/>
        <pt x="7" y="74" on="1"/>
        <pt x="26" y="74" on="0"/>
        <pt x="65" y="98" on="0"/>
        <pt x="85" y="128" on="1"/>
        <pt x="103" y="155" on="0"/>
        <pt x="145" y="245" on="0"/>
        <pt x="191" y="382" on="0"/>
        <pt x="241" y="572" on="0"/>
        <pt x="268" y="700" on="1"/>
        <pt x="346" y="700" on="1"/>
        <pt x="620" y="700" on="1"/>
        <pt x="472" y="0" on="1"/>
        <pt x="392" y="0" on="1"/>
      </contour>
    </TTGlyph>
    <TTGlyph name="afii10030" xMin="40" yMin="0" xMax="780" yMax="700">
      <component glyphName="M" x="0" y="0" flags="0x204"/>
    </TTGlyph>
    <TTGlyph name="afii10031" xMin="40" yMin="0" xMax="665" yMax="700">
      <component glyphName="H" x="0" y="0" flags="0x204"/>
    </TTGlyph>
    <TTGlyph name="afii10032" xMin="71" yMin="-12" xMax="647" yMax="712">
      <component glyphName="O" x="0" y="0" flags="0x204"/>
    </TTGlyph>
    <TTGlyph name="afii10033" xMin="40" yMin="0" xMax="653" yMax="700">
      <contour>
        <pt x="558" y="626" on="1"/>
        <pt x="252" y="626" on="1"/>
        <pt x="120" y="0" on="1"/>
        <pt x="40" y="0" on="1"/>
        <pt x="189" y="700" on="1"/>
        <pt x="653" y="700" on="1"/>
        <pt x="505" y="0" on="1"/>
        <pt x="425" y="0" on="1"/>
      </contour>
    </TTGlyph>
    <TTGlyph name="afii10034" xMin="40" yMin="0" xMax="566" yMax="708">
      <component glyphName="P" x="0" y="0" flags="0x204"/>
    </TTGlyph>
    <TTGlyph name="afii10035" xMin="71" yMin="-12" xMax="601" yMax="712">
      <component glyphName="C" x="0" y="0" flags="0x204"/>
    </TTGlyph>
    <TTGlyph name="afii10036" xMin="110" yMin="0" xMax="617" yMax="700">
      <component glyphName="T" x="0" y="0" flags="0x204"/>
    </TTGlyph>
    <TTGlyph name="afii10037" xMin="54" yMin="-5" xMax="635" yMax="700">
      <contour>
        <pt x="294" y="331" on="1"/>
        <pt x="300" y="242" on="1"/>
        <pt x="304" y="242" on="1"/>
        <pt x="342" y="334" on="1"/>
        <pt x="547" y="700" on="1"/>
        <pt x="635" y="700" on="1"/>
        <pt x="370" y="245" on="1"/>
        <pt x="329" y="174" on="0"/>
        <pt x="269" y="78" on="0"/>
        <pt x="218" y="20" on="0"/>
        <pt x="169" y="-5" on="0"/>
        <pt x="138" y="-5" on="1"/>
        <pt x="106" y="-5" on="0"/>
        <pt x="68" y="8" on="0"/>
        <pt x="54" y="17" on="1"/>
        <pt x="93" y="86" on="1"/>
        <pt x="109" y="76" on="0"/>
        <pt x="134" y="69" on="0"/>
        <pt x="148" y="69" on="1"/>
        <pt x="174" y="69" on="0"/>
        <pt x="224" y="135" on="0"/>
        <pt x="253" y="186" on="1"/>
        <pt x="117" y="700" on="1"/>
        <pt x="202" y="700" on="1"/>
      </contour>
    </TTGlyph>
    <TTGlyph name="afii10038" xMin="63" yMin="-20" xMax="750" yMax="720">
      <contour>
        <pt x="309" y="80" on="1"/>
        <pt x="292" y="76" on="0"/>
        <pt x="259" y="73" on="0"/>
        <pt x="236" y="73" on="1"/>
        <pt x="209" y="73" on="0"/>
        <pt x="148" y="92" on="0"/>
        <pt x="97" y="140" on="0"/>
        <pt x="63" y="220" on="0"/>
        <pt x="63" y="281" on="1"/>
        <pt x="63" y="363" on="0"/>
        <pt x="106" y="495" on="0"/>
        <pt x="186" y="588" on="0"/>
        <pt x="298" y="638" on="0"/>
        <pt x="366" y="638" on="1"/>
        <pt x="379" y="638" on="0"/>
        <pt x="417" y="636" on="0"/>
        <pt x="427" y="634" on="1"/>
        <pt x="446" y="720" on="1"/>
        <pt x="523" y="720" on="1"/>
        <pt x="504" y="631" on="1"/>
        <pt x="523" y="636" on="0"/>
        <pt x="561" y="638" on="0"/>
        <pt x="576" y="638" on="1"/>
        <pt x="612" y="638" on="0"/>
        <pt x="676" y="615" on="0"/>
        <pt x="723" y="567" on="0"/>
        <pt x="750" y="490" on="0"/>
        <pt x="750" y="436" on="1"/>
        <pt x="750" y="348" on="0"/>
        <pt x="702" y="213" on="0"/>
        <pt x="621" y="121" on="0"/>
        <pt x="513" y="73" on="0"/>
        <pt x="453" y="73" on="1"/>
        <pt x="440" y="73" on="0"/>
        <pt x="398" y="76" on="0"/>
        <pt x="387" y="80" on="1"/>
        <pt x="365" y="-20" on="1"/>
        <pt x="288" y="-20" on="1"/>
      </contour>
      <contour>
        <pt x="553" y="569" on="1"/>
        <pt x="540" y="569" on="0"/>
        <pt x="502" y="567" on="0"/>
        <pt x="488" y="562" on="1"/>
        <pt x="399" y="145" on="1"/>
        <pt x="409" y="143" on="0"/>
        <pt x="440" y="142" on="0"/>
        <pt x="454" y="142" on="1"/>
        <pt x="506" y="142" on="0"/>
        <pt x="585" y="189" on="0"/>
        <pt x="639" y="268" on="0"/>
        <pt x="666" y="370" on="0"/>
        <pt x="666" y="425" on="1"/>
        <pt x="666" y="503" on="0"/>
        <pt x="604" y="569" on="0"/>
      </contour>
      <contour>
        <pt x="262" y="142" on="1"/>
        <pt x="272" y="142" on="0"/>
        <pt x="311" y="143" on="0"/>
        <pt x="325" y="148" on="1"/>
        <pt x="413" y="565" on="1"/>
        <pt x="402" y="567" on="0"/>
        <pt x="370" y="569" on="0"/>
        <pt x="356" y="569" on="1"/>
        <pt x="309" y="569" on="0"/>
        <pt x="232" y="527" on="0"/>
        <pt x="177" y="452" on="0"/>
        <pt x="147" y="348" on="0"/>
        <pt x="147" y="286" on="1"/>
        <pt x="147" y="245" on="0"/>
        <pt x="167" y="190" on="0"/>
        <pt x="200" y="156" on="0"/>
        <pt x="241" y="142" on="0"/>
      </contour>
    </TTGlyph>
    <TTGlyph name="afii10039" xMin="-7" yMin="0" xMax="666" yMax="700">
      <component glyphName="X" x="0" y="0" flags="0x204"/>
    </TTGlyph>
    <TTGlyph name="afii10040" xMin="40" yMin="-129" xMax="646" yMax="700">
      <contour>
        <pt x="558" y="-129" on="1"/>
        <pt x="504" y="-129" on="1"/>
        <pt x="516" y="0" on="1"/>
        <pt x="498" y="0" on="1"/>
        <pt x="417" y="0" on="1"/>
        <pt x="122" y="0" on="1"/>
        <pt x="40" y="0" on="1"/>
        <pt x="189" y="700" on="1"/>
        <pt x="269" y="700" on="1"/>
        <pt x="136" y="74" on="1"/>
        <pt x="434" y="74" on="1"/>
        <pt x="566" y="700" on="1"/>
        <pt x="646" y="700" on="1"/>
        <pt x="514" y="74" on="1"/>
        <pt x="601" y="74" on="1"/>
      </contour>
    </TTGlyph>
    <TTGlyph name="afii10041" xMin="120" yMin="0" xMax="602" yMax="700">
      <contour>
        <pt x="257" y="700" on="1"/>
        <pt x="209" y="475" on="1"/>
        <pt x="206" y="461" on="0"/>
        <pt x="202" y="434" on="0"/>
        <pt x="202" y="423" on="1"/>
        <pt x="202" y="331" on="0"/>
        <pt x="296" y="331" on="1"/>
        <pt x="341" y="331" on="0"/>
        <pt x="424" y="356" on="0"/>
        <pt x="453" y="377" on="1"/>
        <pt x="522" y="700" on="1"/>
        <pt x="602" y="700" on="1"/>
        <pt x="454" y="0" on="1"/>
        <pt x="374" y="0" on="1"/>
        <pt x="438" y="302" on="1"/>
        <pt x="409" y="285" on="0"/>
        <pt x="328" y="257" on="0"/>
        <pt x="271" y="257" on="1"/>
        <pt x="241" y="257" on="0"/>
        <pt x="186" y="272" on="0"/>
        <pt x="144" y="307" on="0"/>
        <pt x="120" y="362" on="0"/>
        <pt x="120" y="402" on="1"/>
        <pt x="120" y="432" on="0"/>
        <pt x="127" y="464" on="1"/>
        <pt x="177" y="700" on="1"/>
      </contour>
    </TTGlyph>
    <TTGlyph name="afii10042" xMin="40" yMin="0" xMax="861" yMax="700">
      <contour>
        <pt x="416" y="0" on="1"/>
        <pt x="336" y="0" on="1"/>
        <pt x="120" y="0" on="1"/>
        <pt x="40" y="0" on="1"/>
        <pt x="189" y="700" on="1"/>
        <pt x="269" y="700" on="1"/>
        <pt x="136" y="74" on="1"/>
        <pt x="353" y="74" on="1"/>
        <pt x="485" y="700" on="1"/>
        <pt x="565" y="700" on="1"/>
        <pt x="432" y="74" on="1"/>
        <pt x="649" y="74" on="1"/>
        <pt x="781" y="700" on="1"/>
        <pt x="861" y="700" on="1"/>
        <pt x="712" y="0" on="1"/>
        <pt x="632" y="0" on="1"/>
      </contour>
    </TTGlyph>
    <TTGlyph name="afii10043" xMin="40" yMin="-129" xMax="861" yMax="700">
      <contour>
        <pt x="120" y="0" on="1"/>
        <pt x="40" y="0" on="1"/>
        <pt x="189" y="700" on="1"/>
        <pt x="269" y="700" on="1"/>
        <pt x="136" y="74" on="1"/>
        <pt x="353" y="74" on="1"/>
        <pt x="485" y="700" on="1"/>
        <pt x="565" y="700" on="1"/>
        <pt x="432" y="74" on="1"/>
        <pt x="649" y="74" on="1"/>
        <pt x="781" y="700" on="1"/>
        <pt x="861" y="700" on="1"/>
        <pt x="728" y="74" on="1"/>
        <pt x="816" y="74" on="1"/>
        <pt x="773" y="-129" on="1"/>
        <pt x="718" y="-129" on="1"/>
        <pt x="731" y="0" on="1"/>
        <pt x="712" y="0" on="1"/>
        <pt x="632" y="0" on="1"/>
        <pt x="416" y="0" on="1"/>
        <pt x="336" y="0" on="1"/>
      </contour>
    </TTGlyph>
    <TTGlyph name="afii10044" xMin="92" yMin="-8" xMax="581" yMax="700">
      <contour>
        <pt x="243" y="626" on="1"/>
        <pt x="92" y="626" on="1"/>
        <pt x="107" y="700" on="1"/>
        <pt x="338" y="700" on="1"/>
        <pt x="280" y="428" on="1"/>
        <pt x="286" y="429" on="0"/>
        <pt x="308" y="432" on="0"/>
        <pt x="334" y="435" on="0"/>
        <pt x="361" y="436" on="0"/>
        <pt x="372" y="436" on="1"/>
        <pt x="413" y="436" on="0"/>
        <pt x="489" y="417" on="0"/>
        <pt x="547" y="374" on="0"/>
        <pt x="581" y="306" on="0"/>
        <pt x="581" y="257" on="1"/>
        <pt x="581" y="189" on="0"/>
        <pt x="534" y="89" on="0"/>
        <pt x="450" y="24" on="0"/>
        <pt x="335" y="-8" on="0"/>
        <pt x="267" y="-8" on="1"/>
        <pt x="254" y="-8" on="0"/>
        <pt x="215" y="-7" on="0"/>
        <pt x="189" y="-5" on="1"/>
        <pt x="169" y="-4" on="0"/>
        <pt x="129" y="2" on="0"/>
        <pt x="112" y="7" on="1"/>
      </contour>
      <contour>
        <pt x="286" y="64" on="1"/>
        <pt x="331" y="64" on="0"/>
        <pt x="408" y="87" on="0"/>
        <pt x="465" y="133" on="0"/>
        <pt x="497" y="202" on="0"/>
        <pt x="497" y="247" on="1"/>
        <pt x="497" y="280" on="0"/>
        <pt x="473" y="325" on="0"/>
        <pt x="433" y="352" on="0"/>
        <pt x="380" y="364" on="0"/>
        <pt x="351" y="364" on="1"/>
        <pt x="342" y="364" on="0"/>
        <pt x="317" y="362" on="0"/>
        <pt x="291" y="360" on="0"/>
        <pt x="269" y="356" on="0"/>
        <pt x="264" y="355" on="1"/>
        <pt x="204" y="70" on="1"/>
        <pt x="217" y="67" on="0"/>
        <pt x="262" y="64" on="0"/>
      </contour>
    </TTGlyph>
    <TTGlyph name="afii10045" xMin="40" yMin="-8" xMax="759" yMax="700">
      <contour>
        <pt x="679" y="700" on="1"/>
        <pt x="759" y="700" on="1"/>
        <pt x="611" y="0" on="1"/>
        <pt x="531" y="0" on="1"/>
      </contour>
      <contour>
        <pt x="187" y="700" on="1"/>
        <pt x="267" y="700" on="1"/>
        <pt x="210" y="428" on="1"/>
        <pt x="226" y="431" on="0"/>
        <pt x="271" y="436" on="0"/>
        <pt x="294" y="436" on="1"/>
        <pt x="335" y="436" on="0"/>
        <pt x="406" y="414" on="0"/>
        <pt x="458" y="370" on="0"/>
        <pt x="487" y="305" on="0"/>
        <pt x="487" y="262" on="1"/>
        <pt x="487" y="190" on="0"/>
        <pt x="436" y="87" on="0"/>
        <pt x="351" y="22" on="0"/>
        <pt x="240" y="-8" on="0"/>
        <pt x="181" y="-8" on="1"/>
        <pt x="157" y="-8" on="0"/>
        <pt x="118" y="-6" on="1"/>
        <pt x="73" y="-2" on="0"/>
        <pt x="40" y="7" on="1"/>
      </contour>
      <contour>
        <pt x="203" y="64" on="1"/>
        <pt x="242" y="64" on="0"/>
        <pt x="315" y="88" on="0"/>
        <pt x="370" y="134" on="0"/>
        <pt x="403" y="204" on="0"/>
        <pt x="403" y="251" on="1"/>
        <pt x="403" y="309" on="0"/>
        <pt x="333" y="364" on="0"/>
        <pt x="265" y="364" on="1"/>
        <pt x="248" y="364" on="0"/>
        <pt x="204" y="358" on="0"/>
        <pt x="193" y="355" on="1"/>
        <pt x="134" y="70" on="1"/>
        <pt x="148" y="67" on="0"/>
        <pt x="180" y="64" on="0"/>
      </contour>
    </TTGlyph>
    <TTGlyph name="afii10046" xMin="40" yMin="-8" xMax="510" yMax="700">
      <contour>
        <pt x="187" y="700" on="1"/>
        <pt x="267" y="700" on="1"/>
        <pt x="210" y="428" on="1"/>
        <pt x="215" y="429" on="0"/>
        <pt x="236" y="432" on="0"/>
        <pt x="261" y="435" on="0"/>
        <pt x="289" y="436" on="0"/>
        <pt x="300" y="436" on="1"/>
        <pt x="342" y="436" on="0"/>
        <pt x="418" y="416" on="0"/>
        <pt x="476" y="373" on="0"/>
        <pt x="510" y="305" on="0"/>
        <pt x="510" y="256" on="1"/>
        <pt x="510" y="188" on="0"/>
        <pt x="462" y="88" on="0"/>
        <pt x="377" y="23" on="0"/>
        <pt x="263" y="-8" on="0"/>
        <pt x="197" y="-8" on="1"/>
        <pt x="184" y="-8" on="0"/>
        <pt x="145" y="-7" on="0"/>
        <pt x="118" y="-5" on="1"/>
        <pt x="99" y="-4" on="0"/>
        <pt x="58" y="2" on="0"/>
        <pt x="40" y="7" on="1"/>
      </contour>
      <contour>
        <pt x="216" y="64" on="1"/>
        <pt x="257" y="64" on="0"/>
        <pt x="333" y="85" on="0"/>
        <pt x="391" y="130" on="0"/>
        <pt x="426" y="199" on="0"/>
        <pt x="426" y="248" on="1"/>
        <pt x="426" y="308" on="0"/>
        <pt x="345" y="364" on="0"/>
        <pt x="279" y="364" on="1"/>
        <pt x="271" y="364" on="0"/>
        <pt x="246" y="362" on="0"/>
        <pt x="220" y="360" on="0"/>
        <pt x="198" y="356" on="0"/>
        <pt x="193" y="355" on="1"/>
        <pt x="134" y="70" on="1"/>
        <pt x="146" y="67" on="0"/>
        <pt x="192" y="64" on="0"/>
      </contour>
    </TTGlyph>
    <TTGlyph name="afii10047" xMin="11" yMin="-12" xMax="552" yMax="712">
      <contour>
        <pt x="192" y="392" on="1"/>
        <pt x="470" y="392" on="1"/>
        <pt x="471" y="403" on="0"/>
        <pt x="472" y="427" on="0"/>
        <pt x="472" y="438" on="1"/>
        <pt x="472" y="533" on="0"/>
        <pt x="386" y="640" on="0"/>
        <pt x="292" y="640" on="1"/>
        <pt x="247" y="640" on="0"/>
        <pt x="179" y="620" on="0"/>
        <pt x="154" y="607" on="1"/>
        <pt x="148" y="673" on="1"/>
        <pt x="182" y="691" on="0"/>
        <pt x="261" y="712" on="0"/>
        <pt x="311" y="712" on="1"/>
        <pt x="383" y="712" on="0"/>
        <pt x="476" y="664" on="0"/>
        <pt x="530" y="589" on="0"/>
        <pt x="552" y="496" on="0"/>
        <pt x="552" y="451" on="1"/>
        <pt x="552" y="353" on="0"/>
        <pt x="505" y="184" on="0"/>
        <pt x="409" y="60" on="0"/>
        <pt x="261" y="-12" on="0"/>
        <pt x="159" y="-12" on="1"/>
        <pt x="113" y="-12" on="0"/>
        <pt x="35" y="2" on="0"/>
        <pt x="11" y="13" on="1"/>
        <pt x="48" y="86" on="1"/>
        <pt x="68" y="75" on="0"/>
        <pt x="137" y="60" on="0"/>
        <pt x="175" y="60" on="1"/>
        <pt x="226" y="60" on="0"/>
        <pt x="319" y="94" on="0"/>
        <pt x="396" y="161" on="0"/>
        <pt x="449" y="258" on="0"/>
        <pt x="460" y="321" on="1"/>
        <pt x="178" y="321" on="1"/>
      </contour>
    </TTGlyph>
    <TTGlyph name="afii10048" xMin="40" yMin="-12" xMax="857" yMax="712">
      <contour>
        <pt x="204" y="395" on="1"/>
        <pt x="321" y="395" on="1"/>
        <pt x="368" y="558" on="0"/>
        <pt x="536" y="712" on="0"/>
        <pt x="642" y="712" on="1"/>
        <pt x="741" y="712" on="0"/>
        <pt x="857" y="597" on="0"/>
        <pt x="857" y="480" on="1"/>
        <pt x="857" y="381" on="0"/>
        <pt x="810" y="202" on="0"/>
        <pt x="720" y="67" on="0"/>
        <pt x="590" y="-12" on="0"/>
        <pt x="507" y="-12" on="1"/>
        <pt x="454" y="-12" on="0"/>
        <pt x="378" y="25" on="0"/>
        <pt x="329" y="91" on="0"/>
        <pt x="306" y="182" on="0"/>
        <pt x="306" y="236" on="1"/>
        <pt x="306" y="277" on="0"/>
        <pt x="312" y="321" on="1"/>
        <pt x="187" y="321" on="1"/>
        <pt x="120" y="0" on="1"/>
        <pt x="40" y="0" on="1"/>
        <pt x="188" y="700" on="1"/>
        <pt x="268" y="700" on="1"/>
      </contour>
      <contour>
        <pt x="388" y="233" on="1"/>
        <pt x="388" y="198" on="0"/>
        <pt x="402" y="135" on="0"/>
        <pt x="435" y="88" on="0"/>
        <pt x="488" y="60" on="0"/>
        <pt x="528" y="60" on="1"/>
        <pt x="581" y="60" on="0"/>
        <pt x="671" y="127" on="0"/>
        <pt x="736" y="239" on="0"/>
        <pt x="773" y="388" on="0"/>
        <pt x="773" y="470" on="1"/>
        <pt x="773" y="547" on="0"/>
        <pt x="704" y="640" on="0"/>
        <pt x="639" y="640" on="1"/>
        <pt x="584" y="640" on="0"/>
        <pt x="492" y="574" on="0"/>
        <pt x="425" y="463" on="0"/>
        <pt x="388" y="315" on="0"/>
      </contour>
    </TTGlyph>
    <TTGlyph name="afii10049" xMin="-13" yMin="0" xMax="569" yMax="708">
      <contour>
        <pt x="423" y="0" on="1"/>
        <pt x="343" y="0" on="1"/>
        <pt x="407" y="304" on="1"/>
        <pt x="310" y="283" on="1"/>
        <pt x="83" y="0" on="1"/>
        <pt x="-13" y="0" on="1"/>
        <pt x="187" y="251" on="1"/>
        <pt x="254" y="295" on="1"/>
        <pt x="235" y="301" on="0"/>
        <pt x="192" y="327" on="0"/>
        <pt x="156" y="368" on="0"/>
        <pt x="132" y="427" on="0"/>
        <pt x="132" y="468" on="1"/>
        <pt x="132" y="537" on="0"/>
        <pt x="185" y="629" on="0"/>
        <pt x="269" y="685" on="0"/>
        <pt x="374" y="708" on="0"/>
        <pt x="426" y="708" on="1"/>
        <pt x="458" y="708" on="0"/>
        <pt x="536" y="702" on="0"/>
        <pt x="569" y="693" on="1"/>
      </contour>
      <contour>
        <pt x="407" y="636" on="1"/>
        <pt x="372" y="636" on="0"/>
        <pt x="304" y="620" on="0"/>
        <pt x="250" y="583" on="0"/>
        <pt x="216" y="520" on="0"/>
        <pt x="216" y="474" on="1"/>
        <pt x="216" y="417" on="0"/>
        <pt x="287" y="353" on="0"/>
        <pt x="352" y="353" on="1"/>
        <pt x="417" y="353" on="1"/>
        <pt x="476" y="630" on="1"/>
        <pt x="464" y="633" on="0"/>
        <pt x="431" y="636" on="0"/>
      </contour>
    </TTGlyph>
    <TTGlyph name="afii10050" xMin="40" yMin="0" xMax="572" yMax="834">
      <contour>
        <pt x="529" y="626" on="1"/>
        <pt x="252" y="626" on="1"/>
        <pt x="120" y="0" on="1"/>
        <pt x="40" y="0" on="1"/>
        <pt x="189" y="700" on="1"/>
        <pt x="475" y="700" on="1"/>
        <pt x="518" y="834" on="1"/>
        <pt x="572" y="834" on="1"/>
        <pt x="544" y="700" on="1"/>
      </contour>
    </TTGlyph>
    <TTGlyph name="afii10051" xMin="110" yMin="-8" xMax="653" yMax="700">
      <contour>
        <pt x="263" y="0" on="1"/>
        <pt x="183" y="0" on="1"/>
        <pt x="316" y="626" on="1"/>
        <pt x="110" y="626" on="1"/>
        <pt x="125" y="700" on="1"/>
        <pt x="617" y="700" on="1"/>
        <pt x="602" y="626" on="1"/>
        <pt x="395" y="626" on="1"/>
        <pt x="351" y="415" on="1"/>
        <pt x="363" y="420" on="0"/>
        <pt x="428" y="436" on="0"/>
        <pt x="479" y="436" on="1"/>
        <pt x="527" y="436" on="0"/>
        <pt x="593" y="409" on="0"/>
        <pt x="635" y="362" on="0"/>
        <pt x="653" y="300" on="0"/>
        <pt x="653" y="266" on="1"/>
        <pt x="653" y="208" on="0"/>
        <pt x="618" y="108" on="0"/>
        <pt x="549" y="34" on="0"/>
        <pt x="446" y="-8" on="0"/>
        <pt x="379" y="-8" on="1"/>
        <pt x="348" y="-8" on="0"/>
        <pt x="315" y="-7" on="0"/>
        <pt x="308" y="-5" on="1"/>
        <pt x="324" y="67" on="1"/>
        <pt x="335" y="65" on="0"/>
        <pt x="360" y="64" on="0"/>
        <pt x="388" y="64" on="1"/>
        <pt x="431" y="64" on="0"/>
        <pt x="499" y="94" on="0"/>
        <pt x="545" y="146" on="0"/>
        <pt x="569" y="215" on="0"/>
        <pt x="569" y="254" on="1"/>
        <pt x="569" y="313" on="0"/>
        <pt x="508" y="364" on="0"/>
        <pt x="447" y="364" on="1"/>
        <pt x="430" y="364" on="0"/>
        <pt x="395" y="359" on="0"/>
        <pt x="365" y="352" on="0"/>
        <pt x="340" y="344" on="0"/>
        <pt x="334" y="342" on="1"/>
      </contour>
    </TTGlyph>
    <TTGlyph name="afii10052" xMin="40" yMin="0" xMax="552" yMax="870">
      <component glyphName="afii10020" x="0" y="0" flags="0x204"/>
      <component glyphName="uniF6C9" x="95" y="0" flags="0x4"/>
    </TTGlyph>
    <TTGlyph name="afii10053" xMin="71" yMin="-12" xMax="612" yMax="712">
      <contour>
        <pt x="491" y="29" on="1"/>
        <pt x="456" y="6" on="0"/>
        <pt x="370" y="-12" on="0"/>
        <pt x="320" y="-12" on="1"/>
        <pt x="261" y="-12" on="0"/>
        <pt x="169" y="31" on="0"/>
        <pt x="105" y="108" on="0"/>
        <pt x="71" y="212" on="0"/>
        <pt x="71" y="274" on="1"/>
        <pt x="71" y="387" on="0"/>
        <pt x="137" y="552" on="0"/>
        <pt x="245" y="660" on="0"/>
        <pt x="380" y="712" on="0"/>
        <pt x="449" y="712" on="1"/>
        <pt x="506" y="712" on="0"/>
        <pt x="589" y="696" on="0"/>
        <pt x="612" y="685" on="1"/>
        <pt x="576" y="612" on="1"/>
        <pt x="556" y="623" on="0"/>
        <pt x="480" y="638" on="0"/>
        <pt x="438" y="638" on="1"/>
        <pt x="392" y="638" on="0"/>
        <pt x="307" y="605" on="0"/>
        <pt x="235" y="543" on="0"/>
        <pt x="182" y="454" on="0"/>
        <pt x="168" y="397" on="1"/>
        <pt x="468" y="397" on="1"/>
        <pt x="452" y="323" on="1"/>
        <pt x="156" y="323" on="1"/>
        <pt x="155" y="312" on="0"/>
        <pt x="155" y="294" on="0"/>
        <pt x="155" y="283" on="1"/>
        <pt x="155" y="235" on="0"/>
        <pt x="180" y="154" on="0"/>
        <pt x="227" y="95" on="0"/>
        <pt x="296" y="62" on="0"/>
        <pt x="340" y="62" on="1"/>
        <pt x="387" y="62" on="0"/>
        <pt x="460" y="83" on="0"/>
        <pt x="484" y="97" on="1"/>
      </contour>
    </TTGlyph>
    <TTGlyph name="afii10054" xMin="17" yMin="-12" xMax="561" yMax="712">
      <component glyphName="S" x="0" y="0" flags="0x204"/>
    </TTGlyph>
    <TTGlyph name="afii10055" xMin="62" yMin="0" xMax="290" yMax="700">
      <component glyphName="I" x="0" y="0" flags="0x204"/>
    </TTGlyph>
    <TTGlyph name="afii10055.alt" xMin="62" yMin="0" xMax="329" yMax="849">
      <component glyphName="I" x="0" y="0" flags="0x204"/>
      <component glyphName="uniF40B" x="0" y="0" flags="0x4"/>
    </TTGlyph>
    <TTGlyph name="afii10056" xMin="62" yMin="0" xMax="375" yMax="841">
      <contour>
        <pt x="156" y="793" on="1"/>
        <pt x="156" y="813" on="0"/>
        <pt x="182" y="841" on="0"/>
        <pt x="204" y="841" on="1"/>
        <pt x="226" y="841" on="0"/>
        <pt x="252" y="813" on="0"/>
        <pt x="252" y="793" on="1"/>
        <pt x="252" y="773" on="0"/>
        <pt x="226" y="746" on="0"/>
        <pt x="204" y="746" on="1"/>
        <pt x="182" y="746" on="0"/>
        <pt x="156" y="773" on="0"/>
      </contour>
      <contour>
        <pt x="279" y="793" on="1"/>
        <pt x="279" y="813" on="0"/>
        <pt x="305" y="841" on="0"/>
        <pt x="327" y="841" on="1"/>
        <pt x="349" y="841" on="0"/>
        <pt x="375" y="813" on="0"/>
        <pt x="375" y="793" on="1"/>
        <pt x="375" y="773" on="0"/>
        <pt x="349" y="746" on="0"/>
        <pt x="327" y="746" on="1"/>
        <pt x="305" y="746" on="0"/>
        <pt x="279" y="773" on="0"/>
      </contour>
      <contour>
        <pt x="210" y="700" on="1"/>
        <pt x="290" y="700" on="1"/>
        <pt x="142" y="0" on="1"/>
        <pt x="62" y="0" on="1"/>
      </contour>
    </TTGlyph>
    <TTGlyph name="afii10057" xMin="-61" yMin="-10" xMax="302" yMax="700">
      <component glyphName="J" x="0" y="0" flags="0x204"/>
    </TTGlyph>
    <TTGlyph name="afii10058" xMin="-42" yMin="-8" xMax="864" yMax="700">
      <contour>
        <pt x="525" y="626" on="1"/>
        <pt x="329" y="626" on="1"/>
        <pt x="283" y="427" on="0"/>
        <pt x="198" y="162" on="0"/>
        <pt x="151" y="87" on="1"/>
        <pt x="120" y="38" on="0"/>
        <pt x="53" y="-5" on="0"/>
        <pt x="16" y="-5" on="1"/>
        <pt x="-1" y="-5" on="0"/>
        <pt x="-31" y="0" on="0"/>
        <pt x="-42" y="5" on="1"/>
        <pt x="-15" y="77" on="1"/>
        <pt x="-5" y="74" on="0"/>
        <pt x="7" y="74" on="1"/>
        <pt x="26" y="74" on="0"/>
        <pt x="65" y="98" on="0"/>
        <pt x="85" y="128" on="1"/>
        <pt x="103" y="155" on="0"/>
        <pt x="145" y="245" on="0"/>
        <pt x="191" y="382" on="0"/>
        <pt x="241" y="572" on="0"/>
        <pt x="268" y="700" on="1"/>
        <pt x="348" y="700" on="1"/>
        <pt x="621" y="700" on="1"/>
        <pt x="564" y="428" on="1"/>
        <pt x="569" y="429" on="0"/>
        <pt x="590" y="432" on="0"/>
        <pt x="615" y="435" on="0"/>
        <pt x="643" y="436" on="0"/>
        <pt x="654" y="436" on="1"/>
        <pt x="696" y="436" on="0"/>
        <pt x="772" y="416" on="0"/>
        <pt x="830" y="373" on="0"/>
        <pt x="864" y="305" on="0"/>
        <pt x="864" y="256" on="1"/>
        <pt x="864" y="188" on="0"/>
        <pt x="816" y="88" on="0"/>
        <pt x="731" y="23" on="0"/>
        <pt x="617" y="-8" on="0"/>
        <pt x="551" y="-8" on="1"/>
        <pt x="530" y="-8" on="0"/>
        <pt x="483" y="-6" on="0"/>
        <pt x="474" y="-5" on="1"/>
        <pt x="449" y="-3" on="0"/>
        <pt x="423" y="0" on="0"/>
        <pt x="401" y="5" on="0"/>
        <pt x="394" y="7" on="1"/>
      </contour>
      <contour>
        <pt x="570" y="64" on="1"/>
        <pt x="611" y="64" on="0"/>
        <pt x="687" y="85" on="0"/>
        <pt x="745" y="130" on="0"/>
        <pt x="780" y="199" on="0"/>
        <pt x="780" y="248" on="1"/>
        <pt x="780" y="308" on="0"/>
        <pt x="699" y="364" on="0"/>
        <pt x="633" y="364" on="1"/>
        <pt x="625" y="364" on="0"/>
        <pt x="600" y="362" on="0"/>
        <pt x="575" y="360" on="0"/>
        <pt x="553" y="356" on="0"/>
        <pt x="547" y="355" on="1"/>
        <pt x="488" y="70" on="1"/>
        <pt x="500" y="67" on="0"/>
        <pt x="546" y="64" on="0"/>
      </contour>
    </TTGlyph>
    <TTGlyph name="afii10059" xMin="40" yMin="-8" xMax="909" yMax="700">
      <contour>
        <pt x="510" y="335" on="1"/>
        <pt x="191" y="335" on="1"/>
        <pt x="120" y="0" on="1"/>
        <pt x="40" y="0" on="1"/>
        <pt x="188" y="700" on="1"/>
        <pt x="268" y="700" on="1"/>
        <pt x="206" y="409" on="1"/>
        <pt x="525" y="409" on="1"/>
        <pt x="586" y="700" on="1"/>
        <pt x="666" y="700" on="1"/>
        <pt x="605" y="409" on="1"/>
        <pt x="619" y="412" on="0"/>
        <pt x="677" y="417" on="0"/>
        <pt x="700" y="417" on="1"/>
        <pt x="745" y="417" on="0"/>
        <pt x="822" y="395" on="0"/>
        <pt x="877" y="352" on="0"/>
        <pt x="909" y="286" on="0"/>
        <pt x="909" y="242" on="1"/>
        <pt x="909" y="118" on="0"/>
        <pt x="747" y="-8" on="0"/>
        <pt x="595" y="-8" on="1"/>
        <pt x="582" y="-8" on="0"/>
        <pt x="543" y="-7" on="0"/>
        <pt x="520" y="-5" on="1"/>
        <pt x="498" y="-4" on="0"/>
        <pt x="457" y="2" on="0"/>
        <pt x="440" y="6" on="1"/>
      </contour>
      <contour>
        <pt x="615" y="64" on="1"/>
        <pt x="725" y="64" on="0"/>
        <pt x="825" y="156" on="0"/>
        <pt x="825" y="235" on="1"/>
        <pt x="825" y="298" on="0"/>
        <pt x="744" y="345" on="0"/>
        <pt x="677" y="345" on="1"/>
        <pt x="668" y="345" on="0"/>
        <pt x="642" y="343" on="0"/>
        <pt x="616" y="341" on="0"/>
        <pt x="594" y="337" on="0"/>
        <pt x="589" y="336" on="1"/>
        <pt x="533" y="70" on="1"/>
        <pt x="545" y="67" on="0"/>
        <pt x="591" y="64" on="0"/>
      </contour>
    </TTGlyph>
    <TTGlyph name="afii10060" xMin="110" yMin="0" xMax="663" yMax="700">
      <contour>
        <pt x="263" y="0" on="1"/>
        <pt x="183" y="0" on="1"/>
        <pt x="315" y="626" on="1"/>
        <pt x="110" y="626" on="1"/>
        <pt x="125" y="700" on="1"/>
        <pt x="617" y="700" on="1"/>
        <pt x="602" y="626" on="1"/>
        <pt x="395" y="626" on="1"/>
        <pt x="347" y="395" on="1"/>
        <pt x="377" y="412" on="0"/>
        <pt x="459" y="440" on="0"/>
        <pt x="512" y="440" on="1"/>
        <pt x="543" y="440" on="0"/>
        <pt x="599" y="424" on="0"/>
        <pt x="639" y="389" on="0"/>
        <pt x="663" y="334" on="0"/>
        <pt x="663" y="296" on="1"/>
        <pt x="663" y="266" on="0"/>
        <pt x="656" y="234" on="1"/>
        <pt x="608" y="0" on="1"/>
        <pt x="528" y="0" on="1"/>
        <pt x="576" y="223" on="1"/>
        <pt x="582" y="251" on="0"/>
        <pt x="583" y="274" on="1"/>
        <pt x="582" y="366" on="0"/>
        <pt x="486" y="366" on="1"/>
        <pt x="441" y="366" on="0"/>
        <pt x="364" y="340" on="0"/>
        <pt x="330" y="320" on="1"/>
      </contour>
    </TTGlyph>
    <TTGlyph name="afii10061" xMin="40" yMin="0" xMax="624" yMax="870">
      <component glyphName="K" x="0" y="0" flags="0x204"/>
      <component glyphName="uniF6C9" x="120" y="0" flags="0x4"/>
    </TTGlyph>
    <TTGlyph name="afii10062" xMin="54" yMin="-5" xMax="635" yMax="870">
      <component glyphName="afii10037" x="0" y="0" flags="0x204"/>
      <component glyphName="uniF6D1" x="92" y="0" flags="0x4"/>
    </TTGlyph>
    <TTGlyph name="afii10065" xMin="45" yMin="-12" xMax="477" yMax="513">
      <component glyphName="a" x="0" y="0" flags="0x204"/>
    </TTGlyph>
    <TTGlyph name="afii10066" xMin="60" yMin="-12" xMax="542" yMax="725">
      <contour>
        <pt x="154" y="382" on="1"/>
        <pt x="196" y="444" on="0"/>
        <pt x="289" y="498" on="0"/>
        <pt x="349" y="498" on="1"/>
        <pt x="418" y="498" on="0"/>
        <pt x="478" y="420" on="0"/>
        <pt x="478" y="350" on="1"/>
        <pt x="478" y="267" on="0"/>
        <pt x="435" y="133" on="0"/>
        <pt x="363" y="39" on="0"/>
        <pt x="270" y="-12" on="0"/>
        <pt x="219" y="-12" on="1"/>
        <pt x="175" y="-12" on="0"/>
        <pt x="114" y="18" on="0"/>
        <pt x="77" y="68" on="0"/>
        <pt x="60" y="134" on="0"/>
        <pt x="60" y="171" on="1"/>
        <pt x="60" y="277" on="0"/>
        <pt x="101" y="459" on="0"/>
        <pt x="172" y="596" on="0"/>
        <pt x="268" y="679" on="0"/>
        <pt x="324" y="688" on="1"/>
        <pt x="366" y="694" on="0"/>
        <pt x="436" y="701" on="0"/>
        <pt x="492" y="707" on="0"/>
        <pt x="531" y="716" on="0"/>
        <pt x="542" y="725" on="1"/>
        <pt x="539" y="655" on="1"/>
        <pt x="523" y="643" on="0"/>
        <pt x="448" y="626" on="0"/>
        <pt x="373" y="620" on="1"/>
        <pt x="339" y="617" on="0"/>
        <pt x="276" y="599" on="0"/>
        <pt x="218" y="549" on="0"/>
        <pt x="168" y="457" on="0"/>
        <pt x="147" y="382" on="1"/>
      </contour>
      <contour>
        <pt x="140" y="182" on="1"/>
        <pt x="140" y="156" on="0"/>
        <pt x="146" y="110" on="0"/>
        <pt x="166" y="76" on="0"/>
        <pt x="202" y="57" on="0"/>
        <pt x="232" y="57" on="1"/>
        <pt x="262" y="57" on="0"/>
        <pt x="321" y="96" on="0"/>
        <pt x="368" y="168" on="0"/>
        <pt x="398" y="270" on="0"/>
        <pt x="398" y="333" on="1"/>
        <pt x="398" y="352" on="0"/>
        <pt x="391" y="386" on="0"/>
        <pt x="373" y="413" on="0"/>
        <pt x="342" y="429" on="0"/>
        <pt x="317" y="429" on="1"/>
        <pt x="284" y="429" on="0"/>
        <pt x="220" y="390" on="0"/>
        <pt x="170" y="322" on="0"/>
        <pt x="140" y="233" on="0"/>
      </contour>
    </TTGlyph>
    <TTGlyph name="afii10067" xMin="47" yMin="-7" xMax="436" yMax="507">
      <contour>
        <pt x="69" y="285" on="1"/>
        <pt x="94" y="397" on="0"/>
        <pt x="216" y="507" on="0"/>
        <pt x="306" y="507" on="1"/>
        <pt x="344" y="507" on="0"/>
        <pt x="394" y="493" on="0"/>
        <pt x="424" y="468" on="0"/>
        <pt x="436" y="434" on="0"/>
        <pt x="436" y="413" on="1"/>
        <pt x="436" y="360" on="0"/>
        <pt x="367" y="282" on="0"/>
        <pt x="310" y="266" on="1"/>
        <pt x="308" y="262" on="1"/>
        <pt x="356" y="260" on="0"/>
        <pt x="407" y="216" on="0"/>
        <pt x="407" y="179" on="1"/>
        <pt x="407" y="133" on="0"/>
        <pt x="370" y="64" on="0"/>
        <pt x="308" y="17" on="0"/>
        <pt x="228" y="-7" on="0"/>
        <pt x="185" y="-7" on="1"/>
        <pt x="156" y="-7" on="0"/>
        <pt x="105" y="7" on="0"/>
        <pt x="68" y="40" on="0"/>
        <pt x="47" y="97" on="0"/>
        <pt x="47" y="139" on="1"/>
        <pt x="47" y="154" on="0"/>
        <pt x="49" y="180" on="0"/>
        <pt x="54" y="212" on="0"/>
        <pt x="62" y="255" on="0"/>
      </contour>
      <contour>
        <pt x="129" y="222" on="1"/>
        <pt x="124" y="195" on="0"/>
        <pt x="119" y="158" on="0"/>
        <pt x="119" y="143" on="1"/>
        <pt x="119" y="57" on="0"/>
        <pt x="199" y="57" on="1"/>
        <pt x="225" y="57" on="0"/>
        <pt x="272" y="71" on="0"/>
        <pt x="308" y="100" on="0"/>
        <pt x="329" y="142" on="0"/>
        <pt x="329" y="171" on="1"/>
        <pt x="329" y="197" on="0"/>
        <pt x="286" y="229" on="0"/>
        <pt x="235" y="229" on="1"/>
        <pt x="232" y="229" on="0"/>
        <pt x="223" y="229" on="0"/>
        <pt x="202" y="227" on="0"/>
        <pt x="162" y="225" on="0"/>
      </contour>
      <contour>
        <pt x="231" y="289" on="1"/>
        <pt x="246" y="290" on="0"/>
        <pt x="290" y="304" on="0"/>
        <pt x="331" y="329" on="0"/>
        <pt x="359" y="365" on="0"/>
        <pt x="359" y="389" on="1"/>
        <pt x="359" y="416" on="0"/>
        <pt x="331" y="443" on="0"/>
        <pt x="291" y="443" on="1"/>
        <pt x="234" y="443" on="0"/>
        <pt x="164" y="371" on="0"/>
        <pt x="147" y="304" on="1"/>
        <pt x="141" y="280" on="1"/>
      </contour>
    </TTGlyph>
    <TTGlyph name="afii10068" xMin="27" yMin="-12" xMax="393" yMax="507">
      <contour>
        <pt x="27" y="120" on="1"/>
        <pt x="27" y="168" on="0"/>
        <pt x="69" y="228" on="0"/>
        <pt x="133" y="268" on="0"/>
        <pt x="207" y="294" on="0"/>
        <pt x="271" y="321" on="0"/>
        <pt x="313" y="356" on="0"/>
        <pt x="313" y="385" on="1"/>
        <pt x="313" y="417" on="0"/>
        <pt x="278" y="443" on="0"/>
        <pt x="235" y="443" on="1"/>
        <pt x="197" y="443" on="0"/>
        <pt x="142" y="426" on="0"/>
        <pt x="120" y="415" on="1"/>
        <pt x="105" y="474" on="1"/>
        <pt x="137" y="491" on="0"/>
        <pt x="213" y="507" on="0"/>
        <pt x="255" y="507" on="1"/>
        <pt x="295" y="507" on="0"/>
        <pt x="348" y="489" on="0"/>
        <pt x="380" y="459" on="0"/>
        <pt x="393" y="419" on="0"/>
        <pt x="393" y="397" on="1"/>
        <pt x="393" y="349" on="0"/>
        <pt x="351" y="290" on="0"/>
        <pt x="287" y="253" on="0"/>
        <pt x="213" y="229" on="0"/>
        <pt x="149" y="201" on="0"/>
        <pt x="107" y="162" on="0"/>
        <pt x="107" y="129" on="1"/>
        <pt x="107" y="94" on="0"/>
        <pt x="152" y="52" on="0"/>
        <pt x="189" y="52" on="1"/>
        <pt x="226" y="52" on="0"/>
        <pt x="298" y="78" on="0"/>
        <pt x="318" y="92" on="1"/>
        <pt x="338" y="43" on="1"/>
        <pt x="307" y="17" on="0"/>
        <pt x="220" y="-12" on="0"/>
        <pt x="184" y="-12" on="1"/>
        <pt x="135" y="-12" on="0"/>
        <pt x="74" y="15" on="0"/>
        <pt x="39" y="55" on="0"/>
        <pt x="27" y="101" on="0"/>
      </contour>
    </TTGlyph>
    <TTGlyph name="afii10069" xMin="51" yMin="-12" xMax="474" yMax="712">
      <contour>
        <pt x="305" y="505" on="1"/>
        <pt x="339" y="505" on="0"/>
        <pt x="378" y="492" on="0"/>
        <pt x="392" y="482" on="1"/>
        <pt x="397" y="482" on="1"/>
        <pt x="392" y="558" on="0"/>
        <pt x="291" y="648" on="0"/>
        <pt x="204" y="648" on="1"/>
        <pt x="218" y="712" on="1"/>
        <pt x="291" y="712" on="0"/>
        <pt x="389" y="668" on="0"/>
        <pt x="449" y="592" on="0"/>
        <pt x="474" y="490" on="0"/>
        <pt x="474" y="432" on="1"/>
        <pt x="474" y="327" on="0"/>
        <pt x="433" y="162" on="0"/>
        <pt x="361" y="48" on="0"/>
        <pt x="264" y="-12" on="0"/>
        <pt x="208" y="-12" on="1"/>
        <pt x="127" y="-12" on="0"/>
        <pt x="51" y="88" on="0"/>
        <pt x="51" y="176" on="1"/>
        <pt x="51" y="239" on="0"/>
        <pt x="86" y="357" on="0"/>
        <pt x="152" y="449" on="0"/>
        <pt x="246" y="505" on="0"/>
      </contour>
      <contour>
        <pt x="299" y="441" on="1"/>
        <pt x="267" y="441" on="0"/>
        <pt x="207" y="401" on="0"/>
        <pt x="160" y="329" on="0"/>
        <pt x="131" y="228" on="0"/>
        <pt x="131" y="168" on="1"/>
        <pt x="131" y="119" on="0"/>
        <pt x="171" y="52" on="0"/>
        <pt x="216" y="52" on="1"/>
        <pt x="265" y="52" on="0"/>
        <pt x="333" y="122" on="0"/>
        <pt x="375" y="227" on="0"/>
        <pt x="394" y="350" on="0"/>
        <pt x="394" y="403" on="1"/>
        <pt x="377" y="423" on="0"/>
        <pt x="334" y="441" on="0"/>
      </contour>
    </TTGlyph>
    <TTGlyph name="afii10070" xMin="50" yMin="-12" xMax="455" yMax="512">
      <component glyphName="e" x="0" y="0" flags="0x204"/>
    </TTGlyph>
    <TTGlyph name="afii10071" xMin="50" yMin="-12" xMax="476" yMax="685">
      <component glyphName="e" x="0" y="0" flags="0x204"/>
      <component glyphName="dieresis" x="112" y="-19" flags="0x4"/>
    </TTGlyph>
    <TTGlyph name="afii10072" xMin="-14" yMin="-6" xMax="719" yMax="504">
      <contour>
        <pt x="224" y="225" on="1"/>
        <pt x="206" y="158" on="0"/>
        <pt x="163" y="70" on="0"/>
        <pt x="115" y="17" on="0"/>
        <pt x="62" y="-5" on="0"/>
        <pt x="35" y="-5" on="1"/>
        <pt x="23" y="-5" on="0"/>
        <pt x="-2" y="-1" on="0"/>
        <pt x="-14" y="2" on="1"/>
        <pt x="6" y="70" on="1"/>
        <pt x="18" y="67" on="0"/>
        <pt x="30" y="67" on="1"/>
        <pt x="70" y="67" on="0"/>
        <pt x="140" y="152" on="0"/>
        <pt x="160" y="253" on="1"/>
        <pt x="165" y="282" on="0"/>
        <pt x="171" y="327" on="0"/>
        <pt x="171" y="346" on="1"/>
        <pt x="171" y="399" on="0"/>
        <pt x="135" y="438" on="0"/>
        <pt x="107" y="438" on="1"/>
        <pt x="102" y="438" on="0"/>
        <pt x="92" y="437" on="0"/>
        <pt x="87" y="436" on="1"/>
        <pt x="78" y="498" on="1"/>
        <pt x="92" y="500" on="0"/>
        <pt x="116" y="503" on="0"/>
        <pt x="127" y="503" on="1"/>
        <pt x="183" y="503" on="0"/>
        <pt x="239" y="438" on="0"/>
        <pt x="239" y="366" on="1"/>
        <pt x="239" y="348" on="0"/>
        <pt x="235" y="307" on="0"/>
        <pt x="231" y="284" on="1"/>
        <pt x="329" y="284" on="1"/>
        <pt x="375" y="500" on="1"/>
        <pt x="450" y="500" on="1"/>
        <pt x="403" y="284" on="1"/>
        <pt x="494" y="284" on="1"/>
        <pt x="511" y="348" on="0"/>
        <pt x="552" y="432" on="0"/>
        <pt x="599" y="483" on="0"/>
        <pt x="650" y="504" on="0"/>
        <pt x="676" y="504" on="1"/>
        <pt x="698" y="504" on="0"/>
        <pt x="719" y="498" on="1"/>
        <pt x="702" y="434" on="1"/>
        <pt x="697" y="435" on="0"/>
        <pt x="687" y="436" on="0"/>
        <pt x="682" y="436" on="1"/>
        <pt x="664" y="436" on="0"/>
        <pt x="631" y="420" on="0"/>
        <pt x="602" y="381" on="0"/>
        <pt x="576" y="317" on="0"/>
        <pt x="564" y="269" on="1"/>
        <pt x="558" y="244" on="0"/>
        <pt x="551" y="196" on="0"/>
        <pt x="551" y="173" on="1"/>
        <pt x="551" y="125" on="0"/>
        <pt x="582" y="58" on="0"/>
        <pt x="616" y="58" on="1"/>
        <pt x="627" y="58" on="0"/>
        <pt x="642" y="63" on="1"/>
        <pt x="653" y="2" on="1"/>
        <pt x="637" y="-3" on="0"/>
        <pt x="609" y="-6" on="0"/>
        <pt x="596" y="-6" on="1"/>
        <pt x="562" y="-6" on="0"/>
        <pt x="517" y="21" on="0"/>
        <pt x="490" y="66" on="0"/>
        <pt x="479" y="125" on="0"/>
        <pt x="479" y="157" on="1"/>
        <pt x="479" y="174" on="0"/>
        <pt x="482" y="208" on="0"/>
        <pt x="484" y="225" on="1"/>
        <pt x="391" y="225" on="1"/>
        <pt x="344" y="0" on="1"/>
        <pt x="269" y="0" on="1"/>
        <pt x="317" y="225" on="1"/>
      </contour>
    </TTGlyph>
    <TTGlyph name="afii10072_afii10077" xMin="-14" yMin="-6" xMax="1150" yMax="504">
      <contour>
        <pt x="629" y="56" on="1"/>
        <pt x="647" y="56" on="0"/>
        <pt x="683" y="64" on="0"/>
        <pt x="721" y="94" on="0"/>
        <pt x="760" y="152" on="0"/>
        <pt x="802" y="250" on="0"/>
        <pt x="847" y="396" on="0"/>
        <pt x="872" y="500" on="1"/>
        <pt x="942" y="500" on="1"/>
        <pt x="1150" y="500" on="1"/>
        <pt x="1044" y="0" on="1"/>
        <pt x="968" y="0" on="1"/>
        <pt x="1061" y="436" on="1"/>
        <pt x="928" y="436" on="1"/>
        <pt x="895" y="319" on="0"/>
        <pt x="839" y="151" on="0"/>
        <pt x="770" y="44" on="0"/>
        <pt x="678" y="-6" on="0"/>
        <pt x="611" y="-6" on="1"/>
        <pt x="537" y="-6" on="0"/>
        <pt x="477" y="77" on="0"/>
        <pt x="477" y="148" on="1"/>
        <pt x="477" y="184" on="0"/>
        <pt x="483" y="225" on="1"/>
        <pt x="390" y="225" on="1"/>
        <pt x="343" y="0" on="1"/>
        <pt x="269" y="0" on="1"/>
        <pt x="317" y="225" on="1"/>
        <pt x="224" y="225" on="1"/>
        <pt x="206" y="158" on="0"/>
        <pt x="163" y="70" on="0"/>
        <pt x="115" y="17" on="0"/>
        <pt x="62" y="-5" on="0"/>
        <pt x="35" y="-5" on="1"/>
        <pt x="23" y="-5" on="0"/>
        <pt x="-2" y="-1" on="0"/>
        <pt x="-14" y="2" on="1"/>
        <pt x="6" y="70" on="1"/>
        <pt x="18" y="67" on="0"/>
        <pt x="30" y="67" on="1"/>
        <pt x="70" y="67" on="0"/>
        <pt x="140" y="152" on="0"/>
        <pt x="160" y="253" on="1"/>
        <pt x="165" y="282" on="0"/>
        <pt x="171" y="327" on="0"/>
        <pt x="171" y="346" on="1"/>
        <pt x="171" y="399" on="0"/>
        <pt x="135" y="438" on="0"/>
        <pt x="107" y="438" on="1"/>
        <pt x="102" y="438" on="0"/>
        <pt x="92" y="437" on="0"/>
        <pt x="87" y="436" on="1"/>
        <pt x="78" y="498" on="1"/>
        <pt x="92" y="500" on="0"/>
        <pt x="116" y="503" on="0"/>
        <pt x="127" y="503" on="1"/>
        <pt x="183" y="503" on="0"/>
        <pt x="238" y="438" on="0"/>
        <pt x="238" y="366" on="1"/>
        <pt x="238" y="348" on="0"/>
        <pt x="235" y="307" on="0"/>
        <pt x="231" y="284" on="1"/>
        <pt x="329" y="284" on="1"/>
        <pt x="375" y="500" on="1"/>
        <pt x="449" y="500" on="1"/>
        <pt x="402" y="284" on="1"/>
        <pt x="493" y="284" on="1"/>
        <pt x="510" y="348" on="0"/>
        <pt x="551" y="432" on="0"/>
        <pt x="598" y="483" on="0"/>
        <pt x="649" y="504" on="0"/>
        <pt x="675" y="504" on="1"/>
        <pt x="697" y="504" on="0"/>
        <pt x="718" y="498" on="1"/>
        <pt x="701" y="434" on="1"/>
        <pt x="696" y="435" on="0"/>
        <pt x="685" y="436" on="0"/>
        <pt x="680" y="436" on="1"/>
        <pt x="662" y="436" on="0"/>
        <pt x="628" y="420" on="0"/>
        <pt x="599" y="381" on="0"/>
        <pt x="573" y="317" on="0"/>
        <pt x="563" y="269" on="1"/>
        <pt x="548" y="204" on="0"/>
        <pt x="548" y="157" on="1"/>
        <pt x="548" y="109" on="0"/>
        <pt x="585" y="56" on="0"/>
      </contour>
    </TTGlyph>
    <TTGlyph name="afii10073" xMin="-4" yMin="-9" xMax="390" yMax="507">
      <contour>
        <pt x="120" y="224" on="1"/>
        <pt x="133" y="286" on="1"/>
        <pt x="199" y="286" on="1"/>
        <pt x="216" y="286" on="0"/>
        <pt x="255" y="302" on="0"/>
        <pt x="288" y="330" on="0"/>
        <pt x="310" y="365" on="0"/>
        <pt x="310" y="385" on="1"/>
        <pt x="310" y="417" on="0"/>
        <pt x="272" y="443" on="0"/>
        <pt x="221" y="443" on="1"/>
        <pt x="185" y="443" on="0"/>
        <pt x="132" y="427" on="0"/>
        <pt x="109" y="416" on="1"/>
        <pt x="93" y="475" on="1"/>
        <pt x="125" y="492" on="0"/>
        <pt x="202" y="507" on="0"/>
        <pt x="252" y="507" on="1"/>
        <pt x="326" y="507" on="0"/>
        <pt x="390" y="454" on="0"/>
        <pt x="390" y="404" on="1"/>
        <pt x="390" y="378" on="0"/>
        <pt x="372" y="334" on="0"/>
        <pt x="341" y="299" on="0"/>
        <pt x="302" y="275" on="0"/>
        <pt x="281" y="268" on="1"/>
        <pt x="281" y="264" on="1"/>
        <pt x="324" y="256" on="0"/>
        <pt x="359" y="207" on="0"/>
        <pt x="359" y="175" on="1"/>
        <pt x="359" y="131" on="0"/>
        <pt x="323" y="63" on="0"/>
        <pt x="262" y="16" on="0"/>
        <pt x="179" y="-9" on="0"/>
        <pt x="131" y="-9" on="1"/>
        <pt x="91" y="-9" on="0"/>
        <pt x="17" y="11" on="0"/>
        <pt x="-4" y="27" on="1"/>
        <pt x="28" y="87" on="1"/>
        <pt x="48" y="74" on="0"/>
        <pt x="108" y="55" on="0"/>
        <pt x="144" y="55" on="1"/>
        <pt x="202" y="55" on="0"/>
        <pt x="281" y="114" on="0"/>
        <pt x="281" y="165" on="1"/>
        <pt x="281" y="195" on="0"/>
        <pt x="233" y="224" on="0"/>
        <pt x="175" y="224" on="1"/>
      </contour>
    </TTGlyph>
    <TTGlyph name="afii10074" xMin="60" yMin="-12" xMax="497" yMax="500">
      <component glyphName="u" x="0" y="0" flags="0x204"/>
    </TTGlyph>
    <TTGlyph name="afii10075" xMin="60" yMin="-12" xMax="497" yMax="702">
      <component glyphName="u" x="0" y="0" flags="0x204"/>
      <component glyphName="uniF6D4" x="99" y="0" flags="0x4"/>
    </TTGlyph>
    <TTGlyph name="afii10076" xMin="35" yMin="0" xMax="485" yMax="500">
      <contour>
        <pt x="211" y="225" on="1"/>
        <pt x="157" y="225" on="1"/>
        <pt x="110" y="0" on="1"/>
        <pt x="35" y="0" on="1"/>
        <pt x="141" y="500" on="1"/>
        <pt x="216" y="500" on="1"/>
        <pt x="168" y="274" on="1"/>
        <pt x="209" y="287" on="1"/>
        <pt x="395" y="500" on="1"/>
        <pt x="485" y="500" on="1"/>
        <pt x="302" y="299" on="1"/>
        <pt x="256" y="266" on="1"/>
        <pt x="296" y="226" on="1"/>
        <pt x="408" y="0" on="1"/>
        <pt x="324" y="0" on="1"/>
      </contour>
    </TTGlyph>
    <TTGlyph name="afii10077" xMin="-33" yMin="-4" xMax="476" yMax="500">
      <contour>
        <pt x="388" y="436" on="1"/>
        <pt x="254" y="436" on="1"/>
        <pt x="228" y="329" on="0"/>
        <pt x="182" y="165" on="0"/>
        <pt x="129" y="54" on="0"/>
        <pt x="65" y="-4" on="0"/>
        <pt x="20" y="-4" on="1"/>
        <pt x="3" y="-4" on="0"/>
        <pt x="-24" y="0" on="0"/>
        <pt x="-33" y="5" on="1"/>
        <pt x="-10" y="69" on="1"/>
        <pt x="2" y="66" on="0"/>
        <pt x="13" y="66" on="1"/>
        <pt x="35" y="66" on="0"/>
        <pt x="74" y="98" on="0"/>
        <pt x="116" y="192" on="0"/>
        <pt x="165" y="362" on="0"/>
        <pt x="198" y="500" on="1"/>
        <pt x="476" y="500" on="1"/>
        <pt x="370" y="0" on="1"/>
        <pt x="295" y="0" on="1"/>
      </contour>
    </TTGlyph>
    <TTGlyph name="afii10078" xMin="35" yMin="0" xMax="607" yMax="500">
      <contour>
        <pt x="490" y="297" on="1"/>
        <pt x="515" y="392" on="1"/>
        <pt x="511" y="392" on="1"/>
        <pt x="460" y="315" on="1"/>
        <pt x="304" y="119" on="1"/>
        <pt x="278" y="119" on="1"/>
        <pt x="200" y="315" on="1"/>
        <pt x="185" y="392" on="1"/>
        <pt x="181" y="392" on="1"/>
        <pt x="168" y="298" on="1"/>
        <pt x="105" y="0" on="1"/>
        <pt x="35" y="0" on="1"/>
        <pt x="141" y="500" on="1"/>
        <pt x="210" y="500" on="1"/>
        <pt x="295" y="276" on="1"/>
        <pt x="310" y="218" on="1"/>
        <pt x="312" y="218" on="1"/>
        <pt x="353" y="278" on="1"/>
        <pt x="525" y="500" on="1"/>
        <pt x="607" y="500" on="1"/>
        <pt x="501" y="0" on="1"/>
        <pt x="427" y="0" on="1"/>
      </contour>
    </TTGlyph>
    <TTGlyph name="afii10079" xMin="35" yMin="0" xMax="507" yMax="500">
      <contour>
        <pt x="373" y="220" on="1"/>
        <pt x="157" y="220" on="1"/>
        <pt x="110" y="0" on="1"/>
        <pt x="35" y="0" on="1"/>
        <pt x="141" y="500" on="1"/>
        <pt x="216" y="500" on="1"/>
        <pt x="172" y="292" on="1"/>
        <pt x="388" y="292" on="1"/>
        <pt x="432" y="500" on="1"/>
        <pt x="507" y="500" on="1"/>
        <pt x="401" y="0" on="1"/>
        <pt x="326" y="0" on="1"/>
      </contour>
    </TTGlyph>
    <TTGlyph name="afii10080" xMin="50" yMin="-12" xMax="466" yMax="512">
      <component glyphName="o" x="0" y="0" flags="0x204"/>
    </TTGlyph>
    <TTGlyph name="afii10081" xMin="26" yMin="0" xMax="476" yMax="512">
      <component glyphName="n" x="-10" y="0" flags="0x204"/>
    </TTGlyph>
    <TTGlyph name="afii10082" xMin="-5" yMin="-200" xMax="482" yMax="512">
      <component glyphName="p" x="0" y="0" flags="0x204"/>
    </TTGlyph>
    <TTGlyph name="afii10083" xMin="50" yMin="-12" xMax="433" yMax="512">
      <component glyphName="c" x="0" y="0" flags="0x204"/>
    </TTGlyph>
    <TTGlyph name="afii10084" xMin="36" yMin="0" xMax="727" yMax="512">
      <component glyphName="m" x="0" y="0" flags="0x204"/>
    </TTGlyph>
    <TTGlyph name="afii10085" xMin="-20" yMin="-205" xMax="488" yMax="500">
      <component glyphName="y" x="0" y="0" flags="0x204"/>
    </TTGlyph>
    <TTGlyph name="afii10086" xMin="44" yMin="-200" xMax="654" yMax="700">
      <contour>
        <pt x="258" y="-4" on="1"/>
        <pt x="244" y="-8" on="0"/>
        <pt x="222" y="-12" on="0"/>
        <pt x="208" y="-12" on="1"/>
        <pt x="126" y="-12" on="0"/>
        <pt x="44" y="77" on="0"/>
        <pt x="44" y="148" on="1"/>
        <pt x="44" y="233" on="0"/>
        <pt x="88" y="367" on="0"/>
        <pt x="164" y="460" on="0"/>
        <pt x="264" y="508" on="0"/>
        <pt x="321" y="508" on="1"/>
        <pt x="347" y="508" on="0"/>
        <pt x="366" y="504" on="1"/>
        <pt x="407" y="700" on="1"/>
        <pt x="479" y="700" on="1"/>
        <pt x="437" y="503" on="1"/>
        <pt x="455" y="506" on="0"/>
        <pt x="482" y="508" on="0"/>
        <pt x="495" y="508" on="1"/>
        <pt x="573" y="508" on="0"/>
        <pt x="654" y="421" on="0"/>
        <pt x="654" y="351" on="1"/>
        <pt x="654" y="257" on="0"/>
        <pt x="605" y="120" on="0"/>
        <pt x="527" y="31" on="0"/>
        <pt x="429" y="-12" on="0"/>
        <pt x="380" y="-12" on="1"/>
        <pt x="371" y="-12" on="0"/>
        <pt x="338" y="-9" on="0"/>
        <pt x="329" y="-5" on="1"/>
        <pt x="288" y="-200" on="1"/>
        <pt x="216" y="-200" on="1"/>
      </contour>
      <contour>
        <pt x="466" y="444" on="1"/>
        <pt x="454" y="444" on="0"/>
        <pt x="436" y="441" on="0"/>
        <pt x="422" y="438" on="1"/>
        <pt x="341" y="56" on="1"/>
        <pt x="351" y="54" on="0"/>
        <pt x="372" y="52" on="0"/>
        <pt x="383" y="52" on="1"/>
        <pt x="415" y="52" on="0"/>
        <pt x="483" y="88" on="0"/>
        <pt x="538" y="160" on="0"/>
        <pt x="574" y="269" on="0"/>
        <pt x="574" y="343" on="1"/>
        <pt x="574" y="444" on="0"/>
      </contour>
      <contour>
        <pt x="223" y="52" on="1"/>
        <pt x="234" y="52" on="0"/>
        <pt x="258" y="56" on="0"/>
        <pt x="272" y="58" on="1"/>
        <pt x="353" y="439" on="1"/>
        <pt x="342" y="441" on="0"/>
        <pt x="322" y="444" on="0"/>
        <pt x="308" y="444" on="1"/>
        <pt x="278" y="444" on="0"/>
        <pt x="213" y="407" on="0"/>
        <pt x="159" y="335" on="0"/>
        <pt x="124" y="231" on="0"/>
        <pt x="124" y="164" on="1"/>
        <pt x="124" y="114" on="0"/>
        <pt x="174" y="52" on="0"/>
      </contour>
    </TTGlyph>
    <TTGlyph name="afii10087" xMin="-22" yMin="0" xMax="511" yMax="500">
      <component glyphName="x" x="0" y="0" flags="0x204"/>
    </TTGlyph>
    <TTGlyph name="afii10088" xMin="60" yMin="-127" xMax="497" yMax="500">
      <contour>
        <pt x="417" y="0" on="1"/>
        <pt x="414" y="0" on="1"/>
        <pt x="379" y="0" on="0"/>
        <pt x="345" y="34" on="0"/>
        <pt x="345" y="66" on="1"/>
        <pt x="345" y="80" on="0"/>
        <pt x="348" y="95" on="1"/>
        <pt x="344" y="95" on="1"/>
        <pt x="330" y="76" on="0"/>
        <pt x="292" y="38" on="0"/>
        <pt x="246" y="7" on="0"/>
        <pt x="193" y="-12" on="0"/>
        <pt x="163" y="-12" on="1"/>
        <pt x="141" y="-12" on="0"/>
        <pt x="104" y="-2" on="0"/>
        <pt x="76" y="23" on="0"/>
        <pt x="60" y="64" on="0"/>
        <pt x="60" y="96" on="1"/>
        <pt x="60" y="131" on="0"/>
        <pt x="70" y="175" on="1"/>
        <pt x="138" y="500" on="1"/>
        <pt x="213" y="500" on="1"/>
        <pt x="143" y="167" on="1"/>
        <pt x="137" y="140" on="0"/>
        <pt x="137" y="117" on="1"/>
        <pt x="137" y="89" on="0"/>
        <pt x="159" y="52" on="0"/>
        <pt x="188" y="52" on="1"/>
        <pt x="212" y="52" on="0"/>
        <pt x="261" y="76" on="0"/>
        <pt x="306" y="114" on="0"/>
        <pt x="343" y="160" on="0"/>
        <pt x="355" y="182" on="1"/>
        <pt x="422" y="500" on="1"/>
        <pt x="497" y="500" on="1"/>
        <pt x="477" y="406" on="0"/>
        <pt x="449" y="277" on="0"/>
        <pt x="431" y="191" on="0"/>
        <pt x="420" y="141" on="0"/>
        <pt x="415" y="114" on="0"/>
        <pt x="414" y="102" on="0"/>
        <pt x="414" y="96" on="1"/>
        <pt x="414" y="64" on="0"/>
        <pt x="441" y="64" on="1"/>
        <pt x="496" y="64" on="1"/>
        <pt x="444" y="-127" on="1"/>
        <pt x="384" y="-127" on="1"/>
      </contour>
    </TTGlyph>
    <TTGlyph name="afii10089" xMin="66" yMin="0" xMax="456" yMax="500">
      <contour>
        <pt x="185" y="500" on="1"/>
        <pt x="156" y="364" on="1"/>
        <pt x="149" y="329" on="0"/>
        <pt x="149" y="304" on="1"/>
        <pt x="149" y="275" on="0"/>
        <pt x="176" y="240" on="0"/>
        <pt x="213" y="240" on="1"/>
        <pt x="257" y="240" on="0"/>
        <pt x="315" y="265" on="0"/>
        <pt x="332" y="277" on="1"/>
        <pt x="380" y="500" on="1"/>
        <pt x="456" y="500" on="1"/>
        <pt x="350" y="0" on="1"/>
        <pt x="274" y="0" on="1"/>
        <pt x="318" y="210" on="1"/>
        <pt x="301" y="200" on="0"/>
        <pt x="237" y="176" on="0"/>
        <pt x="189" y="176" on="1"/>
        <pt x="162" y="176" on="0"/>
        <pt x="118" y="187" on="0"/>
        <pt x="87" y="212" on="0"/>
        <pt x="69" y="254" on="0"/>
        <pt x="69" y="285" on="1"/>
        <pt x="66" y="321" on="0"/>
        <pt x="109" y="500" on="1"/>
      </contour>
    </TTGlyph>
    <TTGlyph name="afii10090" xMin="59" yMin="-12" xMax="730" yMax="500">
      <contour>
        <pt x="471" y="500" on="1"/>
        <pt x="412" y="217" on="1"/>
        <pt x="405" y="184" on="0"/>
        <pt x="396" y="130" on="0"/>
        <pt x="396" y="110" on="1"/>
        <pt x="396" y="82" on="0"/>
        <pt x="416" y="52" on="0"/>
        <pt x="439" y="52" on="1"/>
        <pt x="456" y="52" on="0"/>
        <pt x="499" y="77" on="0"/>
        <pt x="541" y="115" on="0"/>
        <pt x="578" y="159" on="0"/>
        <pt x="588" y="179" on="1"/>
        <pt x="655" y="500" on="1"/>
        <pt x="730" y="500" on="1"/>
        <pt x="656" y="151" on="1"/>
        <pt x="648" y="113" on="0"/>
        <pt x="639" y="35" on="0"/>
        <pt x="637" y="0" on="1"/>
        <pt x="580" y="0" on="1"/>
        <pt x="577" y="85" on="1"/>
        <pt x="573" y="85" on="1"/>
        <pt x="540" y="43" on="0"/>
        <pt x="457" y="-12" on="0"/>
        <pt x="400" y="-12" on="1"/>
        <pt x="363" y="-12" on="0"/>
        <pt x="324" y="43" on="0"/>
        <pt x="324" y="90" on="1"/>
        <pt x="324" y="93" on="1"/>
        <pt x="309" y="73" on="0"/>
        <pt x="272" y="36" on="0"/>
        <pt x="228" y="6" on="0"/>
        <pt x="178" y="-12" on="0"/>
        <pt x="151" y="-12" on="1"/>
        <pt x="106" y="-12" on="0"/>
        <pt x="59" y="30" on="0"/>
        <pt x="59" y="88" on="1"/>
        <pt x="59" y="131" on="0"/>
        <pt x="74" y="200" on="1"/>
        <pt x="137" y="500" on="1"/>
        <pt x="212" y="500" on="1"/>
        <pt x="149" y="199" on="1"/>
        <pt x="137" y="145" on="0"/>
        <pt x="137" y="110" on="1"/>
        <pt x="137" y="52" on="0"/>
        <pt x="176" y="52" on="1"/>
        <pt x="200" y="52" on="0"/>
        <pt x="247" y="78" on="0"/>
        <pt x="288" y="118" on="0"/>
        <pt x="320" y="165" on="0"/>
        <pt x="330" y="185" on="1"/>
        <pt x="396" y="500" on="1"/>
      </contour>
    </TTGlyph>
    <TTGlyph name="afii10091" xMin="59" yMin="-127" xMax="730" yMax="500">
      <contour>
        <pt x="579" y="95" on="1"/>
        <pt x="545" y="45" on="0"/>
        <pt x="457" y="-12" on="0"/>
        <pt x="400" y="-12" on="1"/>
        <pt x="363" y="-12" on="0"/>
        <pt x="324" y="43" on="0"/>
        <pt x="324" y="90" on="1"/>
        <pt x="324" y="93" on="1"/>
        <pt x="309" y="73" on="0"/>
        <pt x="272" y="36" on="0"/>
        <pt x="228" y="6" on="0"/>
        <pt x="178" y="-12" on="0"/>
        <pt x="151" y="-12" on="1"/>
        <pt x="106" y="-12" on="0"/>
        <pt x="59" y="30" on="0"/>
        <pt x="59" y="88" on="1"/>
        <pt x="59" y="131" on="0"/>
        <pt x="74" y="200" on="1"/>
        <pt x="137" y="500" on="1"/>
        <pt x="212" y="500" on="1"/>
        <pt x="149" y="199" on="1"/>
        <pt x="144" y="173" on="0"/>
        <pt x="137" y="129" on="0"/>
        <pt x="137" y="112" on="1"/>
        <pt x="137" y="83" on="0"/>
        <pt x="156" y="52" on="0"/>
        <pt x="176" y="52" on="1"/>
        <pt x="200" y="52" on="0"/>
        <pt x="247" y="78" on="0"/>
        <pt x="288" y="118" on="0"/>
        <pt x="320" y="165" on="0"/>
        <pt x="330" y="185" on="1"/>
        <pt x="396" y="500" on="1"/>
        <pt x="471" y="500" on="1"/>
        <pt x="412" y="217" on="1"/>
        <pt x="405" y="184" on="0"/>
        <pt x="396" y="130" on="0"/>
        <pt x="396" y="110" on="1"/>
        <pt x="396" y="82" on="0"/>
        <pt x="416" y="52" on="0"/>
        <pt x="439" y="52" on="1"/>
        <pt x="456" y="52" on="0"/>
        <pt x="499" y="77" on="0"/>
        <pt x="541" y="115" on="0"/>
        <pt x="578" y="159" on="0"/>
        <pt x="588" y="179" on="1"/>
        <pt x="655" y="500" on="1"/>
        <pt x="730" y="500" on="1"/>
        <pt x="712" y="416" on="0"/>
        <pt x="688" y="300" on="0"/>
        <pt x="672" y="224" on="0"/>
        <pt x="664" y="183" on="0"/>
        <pt x="659" y="162" on="0"/>
        <pt x="657" y="155" on="0"/>
        <pt x="657" y="153" on="1"/>
        <pt x="655" y="141" on="0"/>
        <pt x="649" y="110" on="0"/>
        <pt x="649" y="96" on="1"/>
        <pt x="649" y="64" on="0"/>
        <pt x="676" y="64" on="1"/>
        <pt x="730" y="64" on="1"/>
        <pt x="679" y="-127" on="1"/>
        <pt x="618" y="-127" on="1"/>
        <pt x="652" y="0" on="1"/>
        <pt x="649" y="0" on="1"/>
        <pt x="613" y="0" on="0"/>
        <pt x="580" y="34" on="0"/>
        <pt x="580" y="65" on="1"/>
        <pt x="580" y="78" on="0"/>
        <pt x="583" y="95" on="1"/>
        <pt x="579" y="95" on="1"/>
      </contour>
    </TTGlyph>
    <TTGlyph name="afii10092" xMin="52" yMin="-6" xMax="442" yMax="500">
      <contour>
        <pt x="167" y="135" on="1"/>
        <pt x="163" y="119" on="0"/>
        <pt x="163" y="104" on="1"/>
        <pt x="163" y="58" on="0"/>
        <pt x="215" y="58" on="1"/>
        <pt x="246" y="58" on="0"/>
        <pt x="300" y="78" on="0"/>
        <pt x="340" y="114" on="0"/>
        <pt x="362" y="161" on="0"/>
        <pt x="362" y="188" on="1"/>
        <pt x="362" y="217" on="0"/>
        <pt x="331" y="254" on="0"/>
        <pt x="286" y="254" on="1"/>
        <pt x="276" y="254" on="0"/>
        <pt x="250" y="251" on="0"/>
        <pt x="223" y="246" on="0"/>
        <pt x="197" y="238" on="0"/>
        <pt x="188" y="232" on="1"/>
      </contour>
      <contour>
        <pt x="202" y="298" on="1"/>
        <pt x="226" y="306" on="0"/>
        <pt x="282" y="316" on="0"/>
        <pt x="311" y="316" on="1"/>
        <pt x="369" y="316" on="0"/>
        <pt x="442" y="263" on="0"/>
        <pt x="442" y="206" on="1"/>
        <pt x="442" y="159" on="0"/>
        <pt x="404" y="81" on="0"/>
        <pt x="336" y="25" on="0"/>
        <pt x="245" y="-6" on="0"/>
        <pt x="193" y="-6" on="1"/>
        <pt x="136" y="-6" on="0"/>
        <pt x="86" y="46" on="0"/>
        <pt x="86" y="87" on="1"/>
        <pt x="86" y="97" on="0"/>
        <pt x="88" y="118" on="0"/>
        <pt x="91" y="129" on="1"/>
        <pt x="166" y="431" on="1"/>
        <pt x="52" y="431" on="1"/>
        <pt x="66" y="500" on="1"/>
        <pt x="256" y="500" on="1"/>
      </contour>
    </TTGlyph>
    <TTGlyph name="afii10093" xMin="60" yMin="-6" xMax="625" yMax="500">
      <contour>
        <pt x="139" y="117" on="1"/>
        <pt x="138" y="112" on="0"/>
        <pt x="137" y="104" on="0"/>
        <pt x="137" y="100" on="1"/>
        <pt x="137" y="81" on="0"/>
        <pt x="158" y="58" on="0"/>
        <pt x="182" y="58" on="1"/>
        <pt x="212" y="58" on="0"/>
        <pt x="265" y="77" on="0"/>
        <pt x="305" y="112" on="0"/>
        <pt x="328" y="160" on="0"/>
        <pt x="328" y="189" on="1"/>
        <pt x="328" y="220" on="0"/>
        <pt x="294" y="254" on="0"/>
        <pt x="244" y="254" on="1"/>
        <pt x="203" y="254" on="0"/>
        <pt x="165" y="238" on="1"/>
      </contour>
      <contour>
        <pt x="179" y="303" on="1"/>
        <pt x="196" y="308" on="0"/>
        <pt x="252" y="316" on="0"/>
        <pt x="275" y="316" on="1"/>
        <pt x="348" y="316" on="0"/>
        <pt x="408" y="257" on="0"/>
        <pt x="408" y="209" on="1"/>
        <pt x="408" y="157" on="0"/>
        <pt x="365" y="77" on="0"/>
        <pt x="296" y="22" on="0"/>
        <pt x="210" y="-6" on="0"/>
        <pt x="166" y="-6" on="1"/>
        <pt x="111" y="-6" on="0"/>
        <pt x="60" y="40" on="0"/>
        <pt x="60" y="79" on="1"/>
        <pt x="60" y="98" on="0"/>
        <pt x="64" y="114" on="1"/>
        <pt x="151" y="500" on="1"/>
        <pt x="226" y="500" on="1"/>
      </contour>
      <contour>
        <pt x="550" y="500" on="1"/>
        <pt x="625" y="500" on="1"/>
        <pt x="519" y="0" on="1"/>
        <pt x="444" y="0" on="1"/>
      </contour>
    </TTGlyph>
    <TTGlyph name="afii10094" xMin="60" yMin="-6" xMax="415" yMax="500">
      <contour>
        <pt x="140" y="132" on="1"/>
        <pt x="137" y="118" on="0"/>
        <pt x="137" y="108" on="1"/>
        <pt x="137" y="85" on="0"/>
        <pt x="166" y="58" on="0"/>
        <pt x="198" y="58" on="1"/>
        <pt x="226" y="58" on="0"/>
        <pt x="275" y="77" on="0"/>
        <pt x="313" y="111" on="0"/>
        <pt x="335" y="159" on="0"/>
        <pt x="335" y="189" on="1"/>
        <pt x="335" y="224" on="0"/>
        <pt x="298" y="254" on="0"/>
        <pt x="250" y="254" on="1"/>
        <pt x="224" y="254" on="0"/>
        <pt x="184" y="243" on="0"/>
        <pt x="166" y="237" on="1"/>
      </contour>
      <contour>
        <pt x="180" y="303" on="1"/>
        <pt x="182" y="303" on="0"/>
        <pt x="183" y="304" on="0"/>
        <pt x="185" y="304" on="1"/>
        <pt x="205" y="309" on="0"/>
        <pt x="249" y="316" on="0"/>
        <pt x="276" y="316" on="1"/>
        <pt x="320" y="316" on="0"/>
        <pt x="374" y="298" on="0"/>
        <pt x="404" y="268" on="0"/>
        <pt x="415" y="228" on="0"/>
        <pt x="415" y="207" on="1"/>
        <pt x="415" y="154" on="0"/>
        <pt x="376" y="75" on="0"/>
        <pt x="311" y="21" on="0"/>
        <pt x="227" y="-6" on="0"/>
        <pt x="182" y="-6" on="1"/>
        <pt x="147" y="-6" on="0"/>
        <pt x="101" y="10" on="0"/>
        <pt x="72" y="37" on="0"/>
        <pt x="60" y="72" on="0"/>
        <pt x="60" y="90" on="1"/>
        <pt x="60" y="104" on="0"/>
        <pt x="63" y="119" on="1"/>
        <pt x="152" y="500" on="1"/>
        <pt x="227" y="500" on="1"/>
      </contour>
    </TTGlyph>
    <TTGlyph name="afii10095" xMin="-9" yMin="-12" xMax="407" yMax="512">
      <contour>
        <pt x="124" y="283" on="1"/>
        <pt x="323" y="283" on="1"/>
        <pt x="325" y="293" on="0"/>
        <pt x="327" y="314" on="0"/>
        <pt x="327" y="326" on="1"/>
        <pt x="327" y="389" on="0"/>
        <pt x="277" y="448" on="0"/>
        <pt x="231" y="448" on="1"/>
        <pt x="185" y="448" on="0"/>
        <pt x="124" y="427" on="0"/>
        <pt x="104" y="415" on="1"/>
        <pt x="84" y="467" on="1"/>
        <pt x="118" y="489" on="0"/>
        <pt x="199" y="512" on="0"/>
        <pt x="249" y="512" on="1"/>
        <pt x="290" y="512" on="0"/>
        <pt x="349" y="488" on="0"/>
        <pt x="388" y="445" on="0"/>
        <pt x="407" y="387" on="0"/>
        <pt x="407" y="353" on="1"/>
        <pt x="407" y="251" on="0"/>
        <pt x="361" y="111" on="0"/>
        <pt x="285" y="26" on="0"/>
        <pt x="188" y="-12" on="0"/>
        <pt x="138" y="-12" on="1"/>
        <pt x="37" y="-12" on="0"/>
        <pt x="-9" y="19" on="1"/>
        <pt x="24" y="80" on="1"/>
        <pt x="43" y="67" on="0"/>
        <pt x="106" y="52" on="0"/>
        <pt x="137" y="52" on="1"/>
        <pt x="206" y="52" on="0"/>
        <pt x="299" y="138" on="0"/>
        <pt x="318" y="222" on="1"/>
        <pt x="111" y="222" on="1"/>
      </contour>
    </TTGlyph>
    <TTGlyph name="afii10096" xMin="35" yMin="-12" xMax="648" yMax="512">
      <contour>
        <pt x="265" y="289" on="1"/>
        <pt x="279" y="340" on="0"/>
        <pt x="324" y="422" on="0"/>
        <pt x="384" y="480" on="0"/>
        <pt x="456" y="512" on="0"/>
        <pt x="498" y="512" on="1"/>
        <pt x="541" y="512" on="0"/>
        <pt x="598" y="485" on="0"/>
        <pt x="633" y="438" on="0"/>
        <pt x="648" y="377" on="0"/>
        <pt x="648" y="344" on="1"/>
        <pt x="648" y="269" on="0"/>
        <pt x="609" y="139" on="0"/>
        <pt x="541" y="43" on="0"/>
        <pt x="450" y="-12" on="0"/>
        <pt x="399" y="-12" on="1"/>
        <pt x="354" y="-12" on="0"/>
        <pt x="296" y="17" on="0"/>
        <pt x="262" y="65" on="0"/>
        <pt x="249" y="125" on="0"/>
        <pt x="249" y="156" on="1"/>
        <pt x="249" y="174" on="0"/>
        <pt x="252" y="208" on="0"/>
        <pt x="254" y="225" on="1"/>
        <pt x="157" y="225" on="1"/>
        <pt x="110" y="0" on="1"/>
        <pt x="35" y="0" on="1"/>
        <pt x="141" y="500" on="1"/>
        <pt x="216" y="500" on="1"/>
        <pt x="172" y="289" on="1"/>
      </contour>
      <contour>
        <pt x="324" y="174" on="1"/>
        <pt x="324" y="115" on="0"/>
        <pt x="360" y="52" on="0"/>
        <pt x="408" y="52" on="1"/>
        <pt x="439" y="52" on="0"/>
        <pt x="497" y="99" on="0"/>
        <pt x="541" y="179" on="0"/>
        <pt x="568" y="282" on="0"/>
        <pt x="568" y="338" on="1"/>
        <pt x="568" y="389" on="0"/>
        <pt x="535" y="448" on="0"/>
        <pt x="484" y="448" on="1"/>
        <pt x="451" y="448" on="0"/>
        <pt x="393" y="403" on="0"/>
        <pt x="349" y="327" on="0"/>
        <pt x="324" y="228" on="0"/>
      </contour>
    </TTGlyph>
    <TTGlyph name="afii10097" xMin="-16" yMin="0" xMax="452" yMax="512">
      <contour>
        <pt x="319" y="206" on="1"/>
        <pt x="242" y="194" on="1"/>
        <pt x="81" y="0" on="1"/>
        <pt x="-16" y="0" on="1"/>
        <pt x="130" y="171" on="1"/>
        <pt x="179" y="208" on="1"/>
        <pt x="139" y="215" on="0"/>
        <pt x="85" y="268" on="0"/>
        <pt x="85" y="316" on="1"/>
        <pt x="85" y="362" on="0"/>
        <pt x="123" y="435" on="0"/>
        <pt x="187" y="485" on="0"/>
        <pt x="272" y="512" on="0"/>
        <pt x="319" y="512" on="1"/>
        <pt x="339" y="512" on="0"/>
        <pt x="379" y="507" on="0"/>
        <pt x="415" y="500" on="0"/>
        <pt x="443" y="491" on="0"/>
        <pt x="452" y="488" on="1"/>
        <pt x="350" y="0" on="1"/>
        <pt x="275" y="0" on="1"/>
      </contour>
      <contour>
        <pt x="369" y="435" on="1"/>
        <pt x="364" y="440" on="0"/>
        <pt x="330" y="448" on="0"/>
        <pt x="301" y="448" on="1"/>
        <pt x="241" y="448" on="0"/>
        <pt x="165" y="381" on="0"/>
        <pt x="165" y="325" on="1"/>
        <pt x="165" y="252" on="0"/>
        <pt x="269" y="252" on="1"/>
        <pt x="270" y="252" on="0"/>
        <pt x="275" y="252" on="0"/>
        <pt x="287" y="252" on="0"/>
        <pt x="309" y="253" on="0"/>
        <pt x="329" y="254" on="1"/>
      </contour>
    </TTGlyph>
    <TTGlyph name="afii10098" xMin="35" yMin="0" xMax="446" yMax="634">
      <contour>
        <pt x="202" y="436" on="1"/>
        <pt x="110" y="0" on="1"/>
        <pt x="35" y="0" on="1"/>
        <pt x="141" y="500" on="1"/>
        <pt x="349" y="500" on="1"/>
        <pt x="392" y="634" on="1"/>
        <pt x="446" y="634" on="1"/>
        <pt x="418" y="500" on="1"/>
        <pt x="404" y="436" on="1"/>
      </contour>
    </TTGlyph>
    <TTGlyph name="afii10099" xMin="38" yMin="-212" xMax="475" yMax="700">
      <contour>
        <pt x="89" y="600" on="1"/>
        <pt x="164" y="600" on="1"/>
        <pt x="186" y="700" on="1"/>
        <pt x="261" y="700" on="1"/>
        <pt x="239" y="600" on="1"/>
        <pt x="392" y="600" on="1"/>
        <pt x="380" y="540" on="1"/>
        <pt x="226" y="540" on="1"/>
        <pt x="190" y="372" on="1"/>
        <pt x="194" y="372" on="1"/>
        <pt x="209" y="387" on="0"/>
        <pt x="246" y="418" on="0"/>
        <pt x="291" y="444" on="0"/>
        <pt x="345" y="460" on="0"/>
        <pt x="377" y="460" on="1"/>
        <pt x="427" y="460" on="0"/>
        <pt x="475" y="411" on="0"/>
        <pt x="475" y="354" on="1"/>
        <pt x="475" y="343" on="0"/>
        <pt x="466" y="283" on="0"/>
        <pt x="449" y="190" on="0"/>
        <pt x="424" y="70" on="0"/>
        <pt x="409" y="0" on="1"/>
        <pt x="392" y="-106" on="0"/>
        <pt x="308" y="-212" on="0"/>
        <pt x="236" y="-212" on="1"/>
        <pt x="229" y="-212" on="0"/>
        <pt x="215" y="-211" on="0"/>
        <pt x="208" y="-210" on="1"/>
        <pt x="223" y="-140" on="1"/>
        <pt x="250" y="-140" on="0"/>
        <pt x="285" y="-124" on="0"/>
        <pt x="309" y="-89" on="0"/>
        <pt x="326" y="-36" on="0"/>
        <pt x="334" y="0" on="1"/>
        <pt x="384" y="234" on="1"/>
        <pt x="390" y="263" on="0"/>
        <pt x="397" y="310" on="0"/>
        <pt x="397" y="329" on="1"/>
        <pt x="397" y="361" on="0"/>
        <pt x="372" y="396" on="0"/>
        <pt x="340" y="396" on="1"/>
        <pt x="316" y="396" on="0"/>
        <pt x="264" y="372" on="0"/>
        <pt x="216" y="334" on="0"/>
        <pt x="177" y="286" on="0"/>
        <pt x="167" y="262" on="1"/>
        <pt x="113" y="0" on="1"/>
        <pt x="38" y="0" on="1"/>
        <pt x="152" y="540" on="1"/>
        <pt x="76" y="540" on="1"/>
      </contour>
    </TTGlyph>
    <TTGlyph name="afii10100" xMin="27" yMin="-12" xMax="410" yMax="720">
      <component glyphName="afii10068" x="0" y="0" flags="0x204"/>
      <component glyphName="acute" x="98" y="0" flags="0x4"/>
    </TTGlyph>
    <TTGlyph name="afii10101" xMin="50" yMin="-12" xMax="447" yMax="512">
      <contour>
        <pt x="390" y="43" on="1"/>
        <pt x="354" y="14" on="0"/>
        <pt x="266" y="-12" on="0"/>
        <pt x="222" y="-12" on="1"/>
        <pt x="181" y="-12" on="0"/>
        <pt x="117" y="15" on="0"/>
        <pt x="73" y="63" on="0"/>
        <pt x="50" y="127" on="0"/>
        <pt x="50" y="165" on="1"/>
        <pt x="50" y="253" on="0"/>
        <pt x="100" y="384" on="0"/>
        <pt x="181" y="470" on="0"/>
        <pt x="284" y="512" on="0"/>
        <pt x="338" y="512" on="1"/>
        <pt x="383" y="512" on="0"/>
        <pt x="430" y="497" on="0"/>
        <pt x="447" y="489" on="1"/>
        <pt x="419" y="431" on="1"/>
        <pt x="398" y="440" on="0"/>
        <pt x="361" y="448" on="0"/>
        <pt x="332" y="448" on="1"/>
        <pt x="267" y="448" on="0"/>
        <pt x="167" y="362" on="0"/>
        <pt x="144" y="289" on="1"/>
        <pt x="370" y="289" on="1"/>
        <pt x="356" y="225" on="1"/>
        <pt x="132" y="225" on="1"/>
        <pt x="130" y="215" on="0"/>
        <pt x="130" y="196" on="0"/>
        <pt x="130" y="186" on="1"/>
        <pt x="130" y="159" on="0"/>
        <pt x="141" y="110" on="0"/>
        <pt x="169" y="74" on="0"/>
        <pt x="217" y="52" on="0"/>
        <pt x="255" y="52" on="1"/>
        <pt x="290" y="52" on="0"/>
        <pt x="352" y="79" on="0"/>
        <pt x="372" y="93" on="1"/>
      </contour>
    </TTGlyph>
    <TTGlyph name="afii10102" xMin="3" yMin="-12" xMax="392" yMax="512">
      <component glyphName="s" x="0" y="0" flags="0x204"/>
    </TTGlyph>
    <TTGlyph name="afii10103" xMin="54" yMin="0" xMax="285" yMax="708">
      <component glyphName="i" x="0" y="0" flags="0x204"/>
    </TTGlyph>
    <TTGlyph name="afii10103.alt" xMin="54" yMin="0" xMax="235" yMax="500">
      <component glyphName="dotlessi" x="0" y="0" flags="0x204"/>
    </TTGlyph>
    <TTGlyph name="afii10104" xMin="40" yMin="0" xMax="320" yMax="702">
      <contour>
        <pt x="111" y="653" on="1"/>
        <pt x="111" y="674" on="0"/>
        <pt x="135" y="702" on="0"/>
        <pt x="156" y="702" on="1"/>
        <pt x="177" y="702" on="0"/>
        <pt x="201" y="674" on="0"/>
        <pt x="201" y="653" on="1"/>
        <pt x="201" y="632" on="0"/>
        <pt x="177" y="604" on="0"/>
        <pt x="156" y="604" on="1"/>
        <pt x="135" y="604" on="0"/>
        <pt x="111" y="632" on="0"/>
      </contour>
      <contour>
        <pt x="230" y="653" on="1"/>
        <pt x="230" y="674" on="0"/>
        <pt x="254" y="702" on="0"/>
        <pt x="275" y="702" on="1"/>
        <pt x="296" y="702" on="0"/>
        <pt x="320" y="674" on="0"/>
        <pt x="320" y="653" on="1"/>
        <pt x="320" y="632" on="0"/>
        <pt x="296" y="604" on="0"/>
        <pt x="275" y="604" on="1"/>
        <pt x="254" y="604" on="0"/>
        <pt x="230" y="632" on="0"/>
      </contour>
      <contour>
        <pt x="146" y="500" on="1"/>
        <pt x="221" y="500" on="1"/>
        <pt x="115" y="0" on="1"/>
        <pt x="40" y="0" on="1"/>
      </contour>
    </TTGlyph>
    <TTGlyph name="afii10105" xMin="-96" yMin="-208" xMax="273" yMax="708">
      <component glyphName="j" x="0" y="0" flags="0x204"/>
    </TTGlyph>
    <TTGlyph name="afii10106" xMin="-33" yMin="-6" xMax="662" yMax="500">
      <contour>
        <pt x="414" y="237" on="1"/>
        <pt x="403" y="194" on="0"/>
        <pt x="392" y="147" on="0"/>
        <pt x="386" y="123" on="0"/>
        <pt x="385" y="113" on="0"/>
        <pt x="385" y="108" on="1"/>
        <pt x="385" y="85" on="0"/>
        <pt x="414" y="58" on="0"/>
        <pt x="446" y="58" on="1"/>
        <pt x="474" y="58" on="0"/>
        <pt x="523" y="77" on="0"/>
        <pt x="560" y="112" on="0"/>
        <pt x="582" y="161" on="0"/>
        <pt x="582" y="191" on="1"/>
        <pt x="582" y="226" on="0"/>
        <pt x="546" y="254" on="0"/>
        <pt x="498" y="254" on="1"/>
        <pt x="472" y="254" on="0"/>
        <pt x="432" y="243" on="0"/>
      </contour>
      <contour>
        <pt x="382" y="436" on="1"/>
        <pt x="254" y="436" on="1"/>
        <pt x="228" y="329" on="0"/>
        <pt x="182" y="165" on="0"/>
        <pt x="129" y="54" on="0"/>
        <pt x="65" y="-4" on="0"/>
        <pt x="20" y="-4" on="1"/>
        <pt x="3" y="-4" on="0"/>
        <pt x="-24" y="0" on="0"/>
        <pt x="-33" y="5" on="1"/>
        <pt x="-10" y="69" on="1"/>
        <pt x="2" y="66" on="0"/>
        <pt x="13" y="66" on="1"/>
        <pt x="35" y="66" on="0"/>
        <pt x="74" y="98" on="0"/>
        <pt x="116" y="192" on="0"/>
        <pt x="165" y="362" on="0"/>
        <pt x="198" y="500" on="1"/>
        <pt x="471" y="500" on="1"/>
        <pt x="428" y="303" on="1"/>
        <pt x="448" y="308" on="0"/>
        <pt x="495" y="316" on="0"/>
        <pt x="524" y="316" on="1"/>
        <pt x="568" y="316" on="0"/>
        <pt x="622" y="298" on="0"/>
        <pt x="652" y="268" on="0"/>
        <pt x="662" y="228" on="0"/>
        <pt x="662" y="207" on="1"/>
        <pt x="662" y="154" on="0"/>
        <pt x="623" y="75" on="0"/>
        <pt x="558" y="21" on="0"/>
        <pt x="474" y="-6" on="0"/>
        <pt x="429" y="-6" on="1"/>
        <pt x="394" y="-6" on="0"/>
        <pt x="348" y="10" on="0"/>
        <pt x="319" y="37" on="0"/>
        <pt x="307" y="72" on="0"/>
        <pt x="307" y="90" on="1"/>
        <pt x="307" y="105" on="0"/>
        <pt x="310" y="119" on="1"/>
      </contour>
    </TTGlyph>
    <TTGlyph name="afii10107" xMin="35" yMin="-6" xMax="694" yMax="500">
      <contour>
        <pt x="456" y="302" on="1"/>
        <pt x="475" y="307" on="0"/>
        <pt x="528" y="316" on="0"/>
        <pt x="555" y="316" on="1"/>
        <pt x="599" y="316" on="0"/>
        <pt x="654" y="298" on="0"/>
        <pt x="684" y="268" on="0"/>
        <pt x="694" y="228" on="0"/>
        <pt x="694" y="207" on="1"/>
        <pt x="694" y="154" on="0"/>
        <pt x="655" y="75" on="0"/>
        <pt x="590" y="21" on="0"/>
        <pt x="506" y="-6" on="0"/>
        <pt x="461" y="-6" on="1"/>
        <pt x="426" y="-6" on="0"/>
        <pt x="380" y="10" on="0"/>
        <pt x="351" y="37" on="0"/>
        <pt x="339" y="72" on="0"/>
        <pt x="339" y="90" on="1"/>
        <pt x="339" y="105" on="0"/>
        <pt x="342" y="120" on="1"/>
        <pt x="365" y="225" on="1"/>
        <pt x="158" y="225" on="1"/>
        <pt x="110" y="0" on="1"/>
        <pt x="35" y="0" on="1"/>
        <pt x="141" y="500" on="1"/>
        <pt x="216" y="500" on="1"/>
        <pt x="171" y="289" on="1"/>
        <pt x="378" y="289" on="1"/>
        <pt x="423" y="500" on="1"/>
        <pt x="498" y="500" on="1"/>
      </contour>
      <contour>
        <pt x="419" y="132" on="1"/>
        <pt x="416" y="118" on="0"/>
        <pt x="416" y="108" on="1"/>
        <pt x="416" y="85" on="0"/>
        <pt x="445" y="58" on="0"/>
        <pt x="477" y="58" on="1"/>
        <pt x="505" y="58" on="0"/>
        <pt x="554" y="77" on="0"/>
        <pt x="592" y="112" on="0"/>
        <pt x="614" y="161" on="0"/>
        <pt x="614" y="191" on="1"/>
        <pt x="614" y="226" on="0"/>
        <pt x="577" y="254" on="0"/>
        <pt x="529" y="254" on="1"/>
        <pt x="503" y="254" on="0"/>
        <pt x="463" y="243" on="0"/>
        <pt x="445" y="237" on="1"/>
      </contour>
    </TTGlyph>
    <TTGlyph name="afii10108" xMin="38" yMin="0" xMax="473" yMax="700">
      <contour>
        <pt x="89" y="600" on="1"/>
        <pt x="164" y="600" on="1"/>
        <pt x="186" y="700" on="1"/>
        <pt x="261" y="700" on="1"/>
        <pt x="239" y="600" on="1"/>
        <pt x="392" y="600" on="1"/>
        <pt x="380" y="540" on="1"/>
        <pt x="227" y="540" on="1"/>
        <pt x="193" y="381" on="1"/>
        <pt x="197" y="381" on="1"/>
        <pt x="229" y="412" on="0"/>
        <pt x="314" y="460" on="0"/>
        <pt x="377" y="460" on="1"/>
        <pt x="422" y="460" on="0"/>
        <pt x="473" y="414" on="0"/>
        <pt x="473" y="351" on="1"/>
        <pt x="473" y="310" on="0"/>
        <pt x="461" y="250" on="1"/>
        <pt x="408" y="0" on="1"/>
        <pt x="333" y="0" on="1"/>
        <pt x="383" y="235" on="1"/>
        <pt x="389" y="264" on="0"/>
        <pt x="396" y="312" on="0"/>
        <pt x="396" y="331" on="1"/>
        <pt x="396" y="363" on="0"/>
        <pt x="371" y="396" on="0"/>
        <pt x="340" y="396" on="1"/>
        <pt x="311" y="396" on="0"/>
        <pt x="258" y="373" on="0"/>
        <pt x="213" y="336" on="0"/>
        <pt x="178" y="291" on="0"/>
        <pt x="168" y="270" on="1"/>
        <pt x="113" y="0" on="1"/>
        <pt x="38" y="0" on="1"/>
        <pt x="152" y="540" on="1"/>
        <pt x="76" y="540" on="1"/>
      </contour>
    </TTGlyph>
    <TTGlyph name="afii10109" xMin="35" yMin="0" xMax="485" yMax="720">
      <component glyphName="afii10076" x="0" y="0" flags="0x204"/>
      <component glyphName="acute" x="131" y="0" flags="0x4"/>
    </TTGlyph>
    <TTGlyph name="afii10110" xMin="-20" yMin="-205" xMax="488" yMax="702">
      <component glyphName="y" x="0" y="0" flags="0x204"/>
      <component glyphName="uniF6D4" x="74" y="0" flags="0x4"/>
    </TTGlyph>
    <TTGlyph name="afii10145" xMin="40" yMin="-179" xMax="654" yMax="700">
      <contour>
        <pt x="40" y="0" on="1"/>
        <pt x="188" y="700" on="1"/>
        <pt x="268" y="700" on="1"/>
        <pt x="135" y="74" on="1"/>
        <pt x="442" y="74" on="1"/>
        <pt x="574" y="700" on="1"/>
        <pt x="654" y="700" on="1"/>
        <pt x="505" y="0" on="1"/>
        <pt x="306" y="0" on="1"/>
        <pt x="273" y="-179" on="1"/>
        <pt x="199" y="-179" on="1"/>
        <pt x="243" y="0" on="1"/>
      </contour>
    </TTGlyph>
    <TTGlyph name="afii10146" xMin="79" yMin="-8" xMax="573" yMax="721">
      <contour>
        <pt x="94" y="620" on="1"/>
        <pt x="234" y="620" on="1"/>
        <pt x="256" y="721" on="1"/>
        <pt x="336" y="721" on="1"/>
        <pt x="314" y="620" on="1"/>
        <pt x="512" y="620" on="1"/>
        <pt x="497" y="550" on="1"/>
        <pt x="300" y="550" on="1"/>
        <pt x="274" y="427" on="1"/>
        <pt x="279" y="428" on="0"/>
        <pt x="300" y="431" on="0"/>
        <pt x="325" y="433" on="0"/>
        <pt x="353" y="435" on="0"/>
        <pt x="364" y="435" on="1"/>
        <pt x="408" y="435" on="0"/>
        <pt x="485" y="414" on="0"/>
        <pt x="541" y="370" on="0"/>
        <pt x="573" y="302" on="0"/>
        <pt x="573" y="255" on="1"/>
        <pt x="573" y="190" on="0"/>
        <pt x="527" y="91" on="0"/>
        <pt x="445" y="25" on="0"/>
        <pt x="330" y="-8" on="0"/>
        <pt x="261" y="-8" on="1"/>
        <pt x="247" y="-8" on="0"/>
        <pt x="208" y="-7" on="0"/>
        <pt x="164" y="-4" on="0"/>
        <pt x="121" y="2" on="0"/>
        <pt x="104" y="7" on="1"/>
        <pt x="219" y="550" on="1"/>
        <pt x="79" y="550" on="1"/>
      </contour>
      <contour>
        <pt x="280" y="64" on="1"/>
        <pt x="320" y="64" on="0"/>
        <pt x="396" y="85" on="0"/>
        <pt x="454" y="130" on="0"/>
        <pt x="489" y="199" on="0"/>
        <pt x="489" y="247" on="1"/>
        <pt x="489" y="310" on="0"/>
        <pt x="407" y="363" on="0"/>
        <pt x="342" y="363" on="1"/>
        <pt x="334" y="363" on="0"/>
        <pt x="309" y="362" on="0"/>
        <pt x="284" y="359" on="0"/>
        <pt x="263" y="356" on="0"/>
        <pt x="258" y="355" on="1"/>
        <pt x="198" y="70" on="1"/>
        <pt x="211" y="67" on="0"/>
        <pt x="257" y="64" on="0"/>
      </contour>
    </TTGlyph>
    <TTGlyph name="afii10147" xMin="72" yMin="-12" xMax="647" yMax="712">
      <contour>
        <pt x="72" y="256" on="1"/>
        <pt x="72" y="348" on="0"/>
        <pt x="121" y="514" on="0"/>
        <pt x="212" y="639" on="0"/>
        <pt x="342" y="712" on="0"/>
        <pt x="422" y="712" on="1"/>
        <pt x="470" y="712" on="0"/>
        <pt x="553" y="683" on="0"/>
        <pt x="613" y="620" on="0"/>
        <pt x="647" y="520" on="0"/>
        <pt x="647" y="448" on="1"/>
        <pt x="647" y="354" on="0"/>
        <pt x="599" y="187" on="0"/>
        <pt x="510" y="61" on="0"/>
        <pt x="387" y="-12" on="0"/>
        <pt x="312" y="-12" on="1"/>
        <pt x="194" y="-12" on="0"/>
        <pt x="72" y="125" on="0"/>
      </contour>
      <contour>
        <pt x="156" y="257" on="1"/>
        <pt x="156" y="163" on="0"/>
        <pt x="238" y="60" on="0"/>
        <pt x="314" y="60" on="1"/>
        <pt x="358" y="60" on="0"/>
        <pt x="434" y="99" on="0"/>
        <pt x="494" y="168" on="0"/>
        <pt x="538" y="263" on="0"/>
        <pt x="550" y="319" on="1"/>
        <pt x="159" y="319" on="1"/>
        <pt x="156" y="287" on="0"/>
      </contour>
      <contour>
        <pt x="408" y="640" on="1"/>
        <pt x="364" y="640" on="0"/>
        <pt x="288" y="602" on="0"/>
        <pt x="228" y="536" on="0"/>
        <pt x="183" y="445" on="0"/>
        <pt x="171" y="391" on="1"/>
        <pt x="560" y="391" on="1"/>
        <pt x="563" y="418" on="0"/>
        <pt x="563" y="446" on="1"/>
        <pt x="563" y="504" on="0"/>
        <pt x="535" y="580" on="0"/>
        <pt x="491" y="623" on="0"/>
        <pt x="436" y="640" on="0"/>
      </contour>
    </TTGlyph>
    <TTGlyph name="afii10148" xMin="104" yMin="-11" xMax="730" yMax="707">
      <contour>
        <pt x="249" y="-11" on="1"/>
        <pt x="212" y="-11" on="1"/>
        <pt x="104" y="700" on="1"/>
        <pt x="186" y="700" on="1"/>
        <pt x="253" y="220" on="1"/>
        <pt x="253" y="114" on="1"/>
        <pt x="255" y="114" on="1"/>
        <pt x="294" y="221" on="1"/>
        <pt x="421" y="477" on="1"/>
        <pt x="456" y="549" on="0"/>
        <pt x="511" y="639" on="0"/>
        <pt x="561" y="689" on="0"/>
        <pt x="612" y="707" on="0"/>
        <pt x="644" y="707" on="1"/>
        <pt x="675" y="707" on="0"/>
        <pt x="716" y="694" on="0"/>
        <pt x="730" y="685" on="1"/>
        <pt x="692" y="615" on="1"/>
        <pt x="664" y="633" on="0"/>
        <pt x="635" y="633" on="1"/>
        <pt x="607" y="633" on="0"/>
        <pt x="557" y="581" on="0"/>
        <pt x="525" y="520" on="1"/>
      </contour>
    </TTGlyph>
    <TTGlyph name="afii10193" xMin="60" yMin="-200" xMax="497" yMax="500">
      <contour>
        <pt x="263" y="-39" on="1"/>
        <pt x="239" y="-200" on="1"/>
        <pt x="160" y="-200" on="1"/>
        <pt x="201" y="-39" on="1"/>
      </contour>
      <contour>
        <pt x="213" y="500" on="1"/>
        <pt x="143" y="167" on="1"/>
        <pt x="137" y="140" on="0"/>
        <pt x="137" y="117" on="1"/>
        <pt x="137" y="89" on="0"/>
        <pt x="159" y="52" on="0"/>
        <pt x="188" y="52" on="1"/>
        <pt x="212" y="52" on="0"/>
        <pt x="261" y="76" on="0"/>
        <pt x="306" y="114" on="0"/>
        <pt x="343" y="160" on="0"/>
        <pt x="355" y="182" on="1"/>
        <pt x="422" y="500" on="1"/>
        <pt x="497" y="500" on="1"/>
        <pt x="434" y="203" on="1"/>
        <pt x="430" y="186" on="0"/>
        <pt x="422" y="137" on="0"/>
        <pt x="415" y="83" on="0"/>
        <pt x="411" y="32" on="0"/>
        <pt x="411" y="13" on="1"/>
        <pt x="411" y="0" on="1"/>
        <pt x="352" y="0" on="1"/>
        <pt x="352" y="95" on="1"/>
        <pt x="348" y="95" on="1"/>
        <pt x="333" y="75" on="0"/>
        <pt x="294" y="37" on="0"/>
        <pt x="247" y="7" on="0"/>
        <pt x="193" y="-12" on="0"/>
        <pt x="163" y="-12" on="1"/>
        <pt x="141" y="-12" on="0"/>
        <pt x="104" y="-2" on="0"/>
        <pt x="76" y="23" on="0"/>
        <pt x="60" y="64" on="0"/>
        <pt x="60" y="96" on="1"/>
        <pt x="60" y="131" on="0"/>
        <pt x="70" y="175" on="1"/>
        <pt x="138" y="500" on="1"/>
      </contour>
    </TTGlyph>
    <TTGlyph name="afii10194" xMin="36" yMin="-6" xMax="640" yMax="512">
      <contour>
        <pt x="365" y="132" on="1"/>
        <pt x="362" y="118" on="0"/>
        <pt x="362" y="108" on="1"/>
        <pt x="362" y="85" on="0"/>
        <pt x="391" y="58" on="0"/>
        <pt x="423" y="58" on="1"/>
        <pt x="451" y="58" on="0"/>
        <pt x="500" y="77" on="0"/>
        <pt x="538" y="112" on="0"/>
        <pt x="560" y="161" on="0"/>
        <pt x="560" y="191" on="1"/>
        <pt x="560" y="226" on="0"/>
        <pt x="523" y="254" on="0"/>
        <pt x="475" y="254" on="1"/>
        <pt x="449" y="254" on="0"/>
        <pt x="409" y="243" on="0"/>
        <pt x="391" y="237" on="1"/>
      </contour>
      <contour>
        <pt x="334" y="316" on="1"/>
        <pt x="340" y="342" on="0"/>
        <pt x="347" y="384" on="0"/>
        <pt x="347" y="399" on="1"/>
        <pt x="347" y="448" on="0"/>
        <pt x="307" y="448" on="1"/>
        <pt x="290" y="448" on="0"/>
        <pt x="254" y="424" on="0"/>
        <pt x="219" y="387" on="0"/>
        <pt x="189" y="342" on="0"/>
        <pt x="177" y="320" on="1"/>
        <pt x="111" y="0" on="1"/>
        <pt x="36" y="0" on="1"/>
        <pt x="142" y="500" on="1"/>
        <pt x="194" y="500" on="1"/>
        <pt x="189" y="422" on="1"/>
        <pt x="193" y="422" on="1"/>
        <pt x="203" y="437" on="0"/>
        <pt x="231" y="468" on="0"/>
        <pt x="267" y="495" on="0"/>
        <pt x="313" y="512" on="0"/>
        <pt x="340" y="512" on="1"/>
        <pt x="381" y="512" on="0"/>
        <pt x="424" y="471" on="0"/>
        <pt x="424" y="421" on="1"/>
        <pt x="424" y="384" on="0"/>
        <pt x="412" y="332" on="1"/>
        <pt x="405" y="303" on="1"/>
        <pt x="425" y="308" on="0"/>
        <pt x="472" y="316" on="0"/>
        <pt x="501" y="316" on="1"/>
        <pt x="545" y="316" on="0"/>
        <pt x="599" y="298" on="0"/>
        <pt x="629" y="268" on="0"/>
        <pt x="640" y="228" on="0"/>
        <pt x="640" y="207" on="1"/>
        <pt x="640" y="154" on="0"/>
        <pt x="601" y="75" on="0"/>
        <pt x="535" y="21" on="0"/>
        <pt x="451" y="-6" on="0"/>
        <pt x="406" y="-6" on="1"/>
        <pt x="371" y="-6" on="0"/>
        <pt x="325" y="10" on="0"/>
        <pt x="296" y="37" on="0"/>
        <pt x="284" y="72" on="0"/>
        <pt x="284" y="90" on="1"/>
        <pt x="284" y="105" on="0"/>
        <pt x="287" y="119" on="1"/>
      </contour>
    </TTGlyph>
    <TTGlyph name="afii10195" xMin="50" yMin="-12" xMax="466" yMax="512">
      <contour>
        <pt x="50" y="156" on="1"/>
        <pt x="50" y="235" on="0"/>
        <pt x="91" y="366" on="0"/>
        <pt x="163" y="460" on="0"/>
        <pt x="258" y="512" on="0"/>
        <pt x="312" y="512" on="1"/>
        <pt x="354" y="512" on="0"/>
        <pt x="413" y="485" on="0"/>
        <pt x="450" y="438" on="0"/>
        <pt x="466" y="377" on="0"/>
        <pt x="466" y="344" on="1"/>
        <pt x="466" y="269" on="0"/>
        <pt x="427" y="139" on="0"/>
        <pt x="358" y="43" on="0"/>
        <pt x="266" y="-12" on="0"/>
        <pt x="212" y="-12" on="1"/>
        <pt x="167" y="-12" on="0"/>
        <pt x="106" y="17" on="0"/>
        <pt x="67" y="65" on="0"/>
        <pt x="50" y="125" on="0"/>
      </contour>
      <contour>
        <pt x="297" y="448" on="1"/>
        <pt x="272" y="448" on="0"/>
        <pt x="226" y="422" on="0"/>
        <pt x="185" y="377" on="0"/>
        <pt x="154" y="315" on="0"/>
        <pt x="144" y="279" on="1"/>
        <pt x="382" y="279" on="1"/>
        <pt x="384" y="293" on="0"/>
        <pt x="386" y="323" on="0"/>
        <pt x="386" y="338" on="1"/>
        <pt x="386" y="389" on="0"/>
        <pt x="349" y="448" on="0"/>
      </contour>
      <contour>
        <pt x="130" y="174" on="1"/>
        <pt x="130" y="115" on="0"/>
        <pt x="174" y="52" on="0"/>
        <pt x="222" y="52" on="1"/>
        <pt x="246" y="52" on="0"/>
        <pt x="290" y="77" on="0"/>
        <pt x="328" y="122" on="0"/>
        <pt x="359" y="183" on="0"/>
        <pt x="369" y="219" on="1"/>
        <pt x="132" y="219" on="1"/>
        <pt x="131" y="208" on="0"/>
        <pt x="130" y="185" on="0"/>
      </contour>
    </TTGlyph>
    <TTGlyph name="afii10196" xMin="60" yMin="-11" xMax="554" yMax="507">
      <contour>
        <pt x="189" y="-11" on="1"/>
        <pt x="157" y="-11" on="1"/>
        <pt x="60" y="500" on="1"/>
        <pt x="140" y="500" on="1"/>
        <pt x="192" y="207" on="1"/>
        <pt x="198" y="112" on="1"/>
        <pt x="200" y="112" on="1"/>
        <pt x="243" y="209" on="1"/>
        <pt x="270" y="254" on="0"/>
        <pt x="304" y="312" on="0"/>
        <pt x="326" y="351" on="0"/>
        <pt x="341" y="375" on="0"/>
        <pt x="347" y="385" on="1"/>
        <pt x="384" y="443" on="0"/>
        <pt x="453" y="507" on="0"/>
        <pt x="499" y="507" on="1"/>
        <pt x="516" y="507" on="0"/>
        <pt x="543" y="503" on="0"/>
        <pt x="554" y="498" on="1"/>
        <pt x="529" y="431" on="1"/>
        <pt x="522" y="433" on="0"/>
        <pt x="508" y="437" on="0"/>
        <pt x="500" y="437" on="1"/>
        <pt x="483" y="437" on="0"/>
        <pt x="441" y="405" on="0"/>
        <pt x="411" y="356" on="1"/>
      </contour>
    </TTGlyph>
    <TTGlyph name="afii10846" xMin="34" yMin="-12" xMax="452" yMax="512">
      <contour>
        <pt x="106" y="465" on="1"/>
        <pt x="140" y="488" on="0"/>
        <pt x="217" y="512" on="0"/>
        <pt x="276" y="512" on="1"/>
        <pt x="324" y="512" on="0"/>
        <pt x="391" y="482" on="0"/>
        <pt x="433" y="433" on="0"/>
        <pt x="452" y="372" on="0"/>
        <pt x="452" y="341" on="1"/>
        <pt x="452" y="261" on="0"/>
        <pt x="415" y="130" on="0"/>
        <pt x="345" y="38" on="0"/>
        <pt x="245" y="-12" on="0"/>
        <pt x="182" y="-12" on="1"/>
        <pt x="150" y="-12" on="0"/>
        <pt x="95" y="8" on="0"/>
        <pt x="56" y="42" on="0"/>
        <pt x="34" y="89" on="0"/>
        <pt x="34" y="115" on="1"/>
        <pt x="34" y="201" on="0"/>
        <pt x="155" y="283" on="0"/>
        <pt x="272" y="283" on="1"/>
        <pt x="319" y="283" on="0"/>
        <pt x="373" y="277" on="1"/>
        <pt x="375" y="291" on="0"/>
        <pt x="377" y="315" on="0"/>
        <pt x="377" y="327" on="1"/>
        <pt x="377" y="360" on="0"/>
        <pt x="359" y="406" on="0"/>
        <pt x="326" y="435" on="0"/>
        <pt x="283" y="448" on="0"/>
        <pt x="259" y="448" on="1"/>
        <pt x="212" y="448" on="0"/>
        <pt x="146" y="421" on="0"/>
        <pt x="126" y="408" on="1"/>
      </contour>
      <contour>
        <pt x="198" y="52" on="1"/>
        <pt x="251" y="52" on="0"/>
        <pt x="338" y="135" on="0"/>
        <pt x="358" y="215" on="1"/>
        <pt x="338" y="219" on="0"/>
        <pt x="293" y="223" on="0"/>
        <pt x="270" y="223" on="1"/>
        <pt x="240" y="223" on="0"/>
        <pt x="183" y="214" on="0"/>
        <pt x="138" y="192" on="0"/>
        <pt x="111" y="155" on="0"/>
        <pt x="111" y="128" on="1"/>
        <pt x="111" y="100" on="0"/>
        <pt x="151" y="52" on="0"/>
      </contour>
    </TTGlyph>
    <TTGlyph name="afii57929" xMin="120" yMin="500" xMax="248" yMax="708">
      <component glyphName="quoteright" x="12" y="0" flags="0x4"/>
    </TTGlyph>
    <TTGlyph name="afii61289" xMin="94" yMin="-12" xMax="426" yMax="712">
      <contour>
        <pt x="426" y="30" on="1"/>
        <pt x="404" y="16" on="0"/>
        <pt x="333" y="-12" on="0"/>
        <pt x="298" y="-12" on="1"/>
        <pt x="235" y="-12" on="0"/>
        <pt x="178" y="49" on="0"/>
        <pt x="178" y="114" on="1"/>
        <pt x="178" y="218" on="1"/>
        <pt x="129" y="174" on="1"/>
        <pt x="94" y="218" on="1"/>
        <pt x="178" y="292" on="1"/>
        <pt x="178" y="546" on="1"/>
        <pt x="178" y="590" on="0"/>
        <pt x="198" y="653" on="0"/>
        <pt x="233" y="693" on="0"/>
        <pt x="280" y="712" on="0"/>
        <pt x="307" y="712" on="1"/>
        <pt x="355" y="712" on="0"/>
        <pt x="417" y="653" on="0"/>
        <pt x="417" y="593" on="1"/>
        <pt x="417" y="519" on="0"/>
        <pt x="337" y="353" on="0"/>
        <pt x="246" y="265" on="1"/>
        <pt x="246" y="125" on="1"/>
        <pt x="246" y="81" on="0"/>
        <pt x="280" y="48" on="0"/>
        <pt x="304" y="48" on="1"/>
        <pt x="329" y="48" on="0"/>
        <pt x="389" y="69" on="0"/>
        <pt x="409" y="80" on="1"/>
      </contour>
      <contour>
        <pt x="353" y="588" on="1"/>
        <pt x="353" y="622" on="0"/>
        <pt x="325" y="652" on="0"/>
        <pt x="307" y="652" on="1"/>
        <pt x="295" y="652" on="0"/>
        <pt x="273" y="645" on="0"/>
        <pt x="256" y="624" on="0"/>
        <pt x="246" y="587" on="0"/>
        <pt x="246" y="557" on="1"/>
        <pt x="246" y="345" on="1"/>
        <pt x="302" y="410" on="0"/>
        <pt x="353" y="531" on="0"/>
      </contour>
    </TTGlyph>
    <TTGlyph name="afii61352" xMin="27" yMin="-11" xMax="979" yMax="712">
      <contour>
        <pt x="644" y="310" on="1"/>
        <pt x="909" y="310" on="1"/>
        <pt x="893" y="242" on="1"/>
        <pt x="628" y="242" on="1"/>
      </contour>
      <contour>
        <pt x="244" y="456" on="1"/>
        <pt x="213" y="559" on="1"/>
        <pt x="211" y="559" on="1"/>
        <pt x="200" y="458" on="1"/>
        <pt x="103" y="0" on="1"/>
        <pt x="27" y="0" on="1"/>
        <pt x="178" y="711" on="1"/>
        <pt x="221" y="711" on="1"/>
        <pt x="422" y="245" on="1"/>
        <pt x="451" y="148" on="1"/>
        <pt x="455" y="148" on="1"/>
        <pt x="465" y="244" on="1"/>
        <pt x="561" y="700" on="1"/>
        <pt x="637" y="700" on="1"/>
        <pt x="486" y="-11" on="1"/>
        <pt x="444" y="-11" on="1"/>
      </contour>
      <contour>
        <pt x="676" y="490" on="1"/>
        <pt x="676" y="548" on="0"/>
        <pt x="711" y="632" on="0"/>
        <pt x="765" y="686" on="0"/>
        <pt x="831" y="712" on="0"/>
        <pt x="863" y="712" on="1"/>
        <pt x="920" y="712" on="0"/>
        <pt x="979" y="650" on="0"/>
        <pt x="979" y="593" on="1"/>
        <pt x="979" y="539" on="0"/>
        <pt x="949" y="457" on="0"/>
        <pt x="898" y="401" on="0"/>
        <pt x="829" y="372" on="0"/>
        <pt x="791" y="372" on="1"/>
        <pt x="740" y="372" on="0"/>
        <pt x="676" y="434" on="0"/>
      </contour>
      <contour>
        <pt x="745" y="498" on="1"/>
        <pt x="745" y="466" on="0"/>
        <pt x="774" y="430" on="0"/>
        <pt x="803" y="430" on="1"/>
        <pt x="824" y="430" on="0"/>
        <pt x="863" y="452" on="0"/>
        <pt x="893" y="493" on="0"/>
        <pt x="910" y="552" on="0"/>
        <pt x="910" y="589" on="1"/>
        <pt x="910" y="624" on="0"/>
        <pt x="879" y="654" on="0"/>
        <pt x="851" y="654" on="1"/>
        <pt x="830" y="654" on="0"/>
        <pt x="791" y="629" on="0"/>
        <pt x="762" y="587" on="0"/>
        <pt x="745" y="530" on="0"/>
      </contour>
    </TTGlyph>
    <TTGlyph name="agrave" xMin="45" yMin="-12" xMax="477" yMax="720">
      <component glyphName="a" x="0" y="0" flags="0x204"/>
      <component glyphName="grave" x="62" y="0" flags="0x4"/>
    </TTGlyph>
    <TTGlyph name="amacron" xMin="45" yMin="-12" xMax="488" yMax="643">
      <component glyphName="a" x="0" y="0" flags="0x204"/>
      <component glyphName="macron" x="73" y="0" flags="0x4"/>
    </TTGlyph>
</ttFont>
